{"_v":2,"glyphs":{"0":{"ha":544,"x_min":35,"x_max":509,"o":"m 271 -10 l 271 -10 q 189 -10 137 33 q 85 75 60 157 q 35 238 35 355 l 35 355 q 35 475 60 557 q 84 639 137 682 q 190 724 272 724 l 272 724 q 355 724 408 682 q 460 639 485 558 q 509 476 509 358 l 509 358 q 509 275 497 208 q 484 140 456 92 q 428 43 383 17 q 337 -10 271 -10 z m 272 135 l 272 135 q 289 135 301 149 q 312 163 318 191 q 324 218 327 260 q 329 302 329 357 l 329 357 q 329 413 327 455 q 324 497 318 524 q 312 551 301 565 q 289 579 272 579 l 272 579 q 255 579 244 565 q 233 551 227 523 q 220 495 218 454 q 215 412 215 356 l 215 356 q 215 301 218 259 q 220 217 226 190 q 232 163 244 149 q 255 135 272 135 z"},"1":{"ha":544,"x_min":36,"x_max":433,"o":"m 433 714 l 433 0 l 249 0 l 249 362 q 249 400 250 438 q 250 476 252 508 l 252 508 q 240 494 229 481 q 218 468 203 454 l 203 454 l 135 391 l 36 506 l 266 714 l 433 714 z"},"2":{"ha":544,"x_min":20,"x_max":507,"o":"m 507 0 l 24 0 l 24 123 l 202 322 q 243 368 267 400 q 291 431 302 456 q 312 481 312 508 l 312 508 q 312 530 304 544 q 296 557 281 564 q 266 570 246 570 l 246 570 q 212 570 179 553 q 146 535 111 506 l 111 506 l 20 626 q 55 654 92 676 q 128 698 172 711 q 215 724 268 724 l 268 724 q 339 724 390 699 q 440 673 468 629 q 495 585 495 529 l 495 529 q 495 473 477 428 q 459 383 421 336 q 383 288 321 223 l 321 223 l 258 155 l 258 151 l 507 151 l 507 0 z"},"3":{"ha":544,"x_min":29,"x_max":502,"o":"m 227 -11 l 227 -11 q 168 -11 121 -1 q 73 8 32 24 l 32 24 l 32 175 q 74 155 118 145 q 161 135 206 135 l 206 135 q 263 135 291 156 q 318 176 318 215 l 318 215 q 318 242 305 260 q 292 278 262 288 q 231 297 179 297 l 179 297 l 133 297 l 133 434 l 180 434 q 227 434 256 444 q 284 454 297 473 q 310 491 310 515 l 310 515 q 310 547 289 563 q 268 578 231 578 l 231 578 q 197 578 166 567 q 134 556 103 537 l 103 537 l 29 656 q 80 688 135 706 q 189 724 257 724 l 257 724 q 328 724 380 703 q 431 682 460 642 q 488 602 488 544 l 488 544 q 488 501 470 468 q 452 435 421 412 q 389 389 349 376 l 349 376 l 349 373 q 420 360 461 319 q 502 277 502 204 l 502 204 q 502 143 472 94 q 441 45 380 17 q 319 -11 227 -11 z"},"4":{"ha":544,"x_min":16,"x_max":530,"o":"m 458 0 l 280 0 l 280 139 l 16 139 l 16 275 l 285 714 l 458 714 l 458 277 l 530 277 l 530 139 l 458 139 l 458 0 z m 237 387 l 172 277 l 280 277 l 280 374 q 280 394 281 411 q 281 428 282 443 q 283 458 284 472 l 284 472 l 280 472 q 272 453 262 433 q 252 413 237 387 l 237 387 z"},"5":{"ha":544,"x_min":47,"x_max":503,"o":"m 231 -10 l 231 -10 q 177 -10 131 -1 q 84 8 47 24 l 47 24 l 47 176 q 84 158 124 147 q 164 136 211 136 l 211 136 q 249 136 274 146 q 298 156 310 178 q 321 199 321 231 l 321 231 q 321 277 294 302 q 267 326 216 326 l 216 326 q 190 326 167 322 q 144 317 121 309 l 121 309 l 57 348 l 86 714 l 463 714 l 463 563 l 238 563 l 228 458 q 246 461 262 463 q 277 465 300 465 l 300 465 q 358 465 404 439 q 450 413 477 363 q 503 313 503 239 l 503 239 q 503 159 473 104 q 442 48 382 19 q 322 -10 231 -10 z"},"6":{"ha":544,"x_min":30,"x_max":517,"o":"m 282 -10 l 282 -10 q 226 -10 180 10 q 134 30 100 70 q 66 109 48 170 q 30 230 30 312 l 30 312 q 30 372 39 431 q 47 490 69 543 q 90 595 129 636 q 167 677 227 701 q 287 724 371 724 l 371 724 q 398 724 423 723 q 448 721 474 716 l 474 716 l 474 569 q 451 574 427 576 q 403 578 377 578 l 377 578 q 315 578 276 557 q 236 536 218 495 q 199 454 197 393 l 197 393 l 202 393 q 215 418 233 437 q 251 455 277 466 q 302 476 334 476 l 334 476 q 392 476 433 449 q 474 422 496 370 q 517 318 517 244 l 517 244 q 517 165 488 108 q 459 51 407 21 q 355 -10 282 -10 z m 276 135 l 276 135 q 306 135 323 160 q 340 185 340 239 l 340 239 q 340 286 325 311 q 310 335 278 335 l 278 335 q 257 335 242 324 q 226 313 218 294 q 210 275 210 251 l 210 251 q 210 226 215 205 q 219 184 228 169 q 236 153 248 144 q 260 135 276 135 z"},"7":{"ha":544,"x_min":27,"x_max":512,"o":"m 281 0 l 88 0 l 321 563 l 27 563 l 27 714 l 512 714 l 512 601 l 281 0 z"},"8":{"ha":544,"x_min":28,"x_max":516,"o":"m 272 -11 l 272 -11 q 189 -11 135 14 q 80 38 54 83 q 28 127 28 187 l 28 187 q 28 231 42 264 q 55 297 83 324 q 111 350 151 372 l 151 372 q 121 395 98 421 q 74 447 61 479 q 47 511 47 550 l 47 550 q 47 607 75 646 q 103 684 155 704 q 206 724 274 724 l 274 724 q 341 724 392 704 q 442 684 470 645 q 498 606 498 550 l 498 550 q 498 507 483 475 q 467 443 442 419 q 416 394 382 375 l 382 375 q 420 351 451 325 q 481 298 499 266 q 516 233 516 191 l 516 191 q 516 130 490 85 q 463 40 409 15 q 354 -11 272 -11 z m 270 124 l 270 124 q 307 124 324 143 q 340 161 340 188 l 340 188 q 340 206 335 222 q 330 237 318 252 q 305 267 284 282 l 284 282 l 269 292 q 247 278 233 263 q 218 247 211 230 q 204 213 204 193 l 204 193 q 204 162 220 143 q 236 124 270 124 z m 273 455 l 273 455 q 288 466 299 478 q 310 490 317 505 q 323 519 323 536 l 323 536 q 323 561 309 575 q 295 588 272 588 l 272 588 q 248 588 235 574 q 222 560 222 536 l 222 536 q 222 519 228 505 q 234 491 246 479 q 257 467 273 455 z"},"9":{"ha":544,"x_min":27,"x_max":514,"o":"m 173 -10 l 173 -10 q 145 -10 120 -8 q 94 -6 69 -2 l 69 -2 l 69 145 q 92 141 117 139 q 141 136 167 136 l 167 136 q 214 136 248 148 q 281 160 303 183 q 324 206 336 241 q 347 276 350 321 l 350 321 l 344 321 q 333 295 314 277 q 295 258 270 248 q 244 238 209 238 l 209 238 q 153 238 112 266 q 71 293 49 345 q 27 397 27 470 l 27 470 q 27 549 56 606 q 85 663 138 694 q 190 724 261 724 l 261 724 q 317 724 364 705 q 410 685 444 644 q 477 603 496 541 q 514 478 514 394 l 514 394 q 514 336 505 278 q 496 219 474 168 q 452 116 414 76 q 375 36 316 13 q 256 -10 173 -10 z m 268 379 l 268 379 q 291 379 306 392 q 320 405 328 425 q 335 444 335 464 l 335 464 q 335 482 332 502 q 328 522 321 540 q 313 557 300 568 q 287 579 268 579 l 268 579 q 239 579 222 555 q 204 531 204 478 l 204 478 q 204 431 220 405 q 235 379 268 379 z"},"\r":{"ha":277,"x_min":0,"x_max":0,"o":""}," ":{"ha":277,"x_min":0,"x_max":0,"o":""},"ഀ":{"ha":0,"x_min":-450,"x_max":-105,"o":"m -450 708 l -450 708 q -450 775 -405 820 q -360 864 -278 864 l -278 864 q -196 864 -150 820 q -105 776 -105 708 l -105 708 q -105 641 -149 597 q -194 552 -278 552 l -278 552 q -362 552 -406 597 q -450 641 -450 708 z m -331 708 l -331 708 q -331 684 -318 668 q -306 651 -278 651 l -278 651 q -250 651 -237 668 q -225 685 -225 709 l -225 709 q -225 733 -238 749 q -252 765 -278 765 l -278 765 q -306 765 -318 749 q -331 732 -331 708 z"},"ഁ":{"ha":0,"x_min":-478,"x_max":-79,"o":"m -278 631 l -278 631 q -384 631 -431 678 q -478 725 -478 799 l -478 799 q -478 819 -475 836 q -473 852 -469 864 l -469 864 l -369 847 q -371 837 -372 827 q -374 817 -374 808 l -374 808 q -374 777 -362 759 q -350 741 -328 734 q -307 726 -278 726 l -278 726 q -253 726 -231 733 q -210 740 -196 759 q -183 777 -183 810 l -183 810 q -183 817 -184 827 q -185 837 -188 847 l -188 847 l -88 863 q -84 851 -81 835 q -79 819 -79 800 l -79 800 q -79 723 -125 677 q -172 631 -278 631 z m -279 748 l -279 748 q -312 748 -327 764 q -342 780 -342 807 l -342 807 q -342 830 -328 847 q -314 863 -279 863 l -279 863 q -243 863 -229 847 q -215 830 -215 804 l -215 804 q -215 779 -230 764 q -245 748 -279 748 z"},"ം":{"ha":499,"x_min":27,"x_max":471,"o":"m 250 -12 l 250 -12 q 177 -12 127 13 q 77 38 52 83 q 27 127 27 185 l 27 185 q 27 244 53 288 q 79 332 129 357 q 178 382 248 382 l 248 382 q 321 382 371 358 q 420 333 446 289 q 471 245 471 185 l 471 185 q 471 126 447 82 q 422 37 373 13 q 323 -12 250 -12 z m 248 260 l 248 260 q 223 260 206 242 q 189 224 189 184 l 189 184 q 189 147 206 129 q 222 110 250 110 l 250 110 q 275 110 293 128 q 310 145 310 185 l 310 185 q 310 224 293 242 q 275 260 248 260 z"},"ഃ":{"ha":362,"x_min":27,"x_max":335,"o":"m 27 439 l 27 439 q 27 500 67 541 q 107 581 180 581 l 180 581 q 254 581 295 541 q 335 501 335 439 l 335 439 q 335 378 295 338 q 255 297 180 297 l 180 297 q 105 297 66 338 q 27 378 27 439 z m 139 439 l 139 439 q 139 418 150 405 q 160 392 180 392 l 180 392 q 201 392 212 405 q 222 418 222 440 l 222 440 q 222 461 211 474 q 200 486 180 486 l 180 486 q 160 486 150 474 q 139 461 139 439 z m 27 130 l 27 130 q 27 191 67 232 q 107 272 180 272 l 180 272 q 253 272 294 232 q 335 191 335 130 l 335 130 q 335 69 295 29 q 255 -12 180 -12 l 180 -12 q 105 -12 66 28 q 27 68 27 130 z m 139 131 l 139 131 q 139 108 150 96 q 160 83 180 83 l 180 83 q 201 83 212 96 q 222 108 222 131 l 222 131 q 222 152 211 165 q 200 177 180 177 l 180 177 q 160 177 150 165 q 139 152 139 131 z"},"ഄ":{"ha":638,"x_min":31,"x_max":608,"o":"m 50 354 l 50 354 l 210 326 q 203 304 200 280 q 197 255 197 235 l 197 235 q 197 173 229 145 q 260 116 319 116 l 319 116 q 378 116 410 145 q 442 173 442 234 l 442 234 q 442 253 439 279 q 436 304 429 326 l 429 326 l 588 354 q 596 330 602 296 q 608 262 608 230 l 608 230 q 608 158 582 104 q 555 50 492 21 q 429 -9 319 -9 l 319 -9 q 209 -9 146 21 q 83 50 57 104 q 31 158 31 230 l 31 230 q 31 264 37 297 q 43 330 50 354 z m 256 195 l 256 427 l 382 427 l 382 195 l 256 195 z"},"അ":{"ha":1592,"x_min":34,"x_max":1562,"o":"m 393 581 l 393 581 q 446 581 491 575 q 535 569 584 552 l 584 552 q 600 548 608 536 q 615 524 629 519 l 629 519 q 667 507 703 488 q 738 469 761 441 q 783 412 783 372 l 783 372 q 783 346 775 325 q 766 303 746 286 q 726 269 694 256 l 694 256 l 692 271 q 741 255 768 222 q 795 188 795 139 l 795 139 q 795 100 775 66 q 755 31 706 10 q 657 -12 572 -12 l 572 -12 q 476 -12 418 21 q 360 54 334 111 q 307 168 307 240 l 307 240 q 307 304 327 354 q 347 404 382 442 q 417 480 463 508 l 463 508 q 475 515 485 526 q 495 537 508 542 l 508 542 q 552 562 602 572 q 651 581 703 581 l 703 581 q 768 581 814 569 q 860 557 895 535 q 930 512 960 480 l 960 480 l 1037 206 l 1037 0 l 860 0 l 860 256 q 860 319 850 363 q 839 407 808 433 l 808 433 q 791 447 765 455 q 738 463 704 463 l 704 463 q 684 463 665 460 q 645 457 626 452 l 626 452 q 596 445 568 428 q 540 411 519 385 q 497 358 485 323 q 472 287 472 242 l 472 242 q 472 170 498 141 q 524 111 565 111 l 565 111 q 593 111 609 121 q 624 131 624 153 l 624 153 q 624 173 610 185 q 595 197 561 197 l 561 197 l 533 197 l 533 321 l 551 321 q 584 321 600 335 q 615 348 615 371 l 615 371 q 615 401 590 420 q 565 439 515 444 l 515 444 q 486 453 460 457 q 433 461 403 461 l 403 461 q 334 461 292 438 q 250 415 232 376 q 213 337 213 285 l 213 285 q 213 244 223 208 q 233 171 253 136 q 272 100 298 63 l 298 63 l 166 -12 q 127 27 98 72 q 68 116 51 170 q 34 223 34 289 l 34 289 q 34 337 51 388 q 67 439 107 483 q 147 527 217 554 q 287 581 393 581 z m 1322 -12 l 1322 -12 q 1243 -12 1195 18 q 1146 47 1124 97 q 1101 146 1101 204 l 1101 204 q 1101 301 1151 355 q 1201 409 1291 409 l 1291 409 q 1348 409 1389 380 q 1430 350 1455 305 q 1480 259 1486 211 l 1486 211 l 1417 208 q 1412 232 1402 252 q 1391 272 1375 284 q 1358 296 1334 296 l 1334 296 q 1304 296 1288 275 q 1271 253 1271 204 l 1271 204 q 1271 171 1278 151 q 1285 131 1298 122 q 1310 113 1325 113 l 1325 113 q 1346 113 1361 125 q 1375 137 1382 165 q 1389 192 1389 238 l 1389 238 q 1389 256 1388 273 q 1386 290 1384 305 l 1384 305 q 1384 309 1385 318 q 1386 326 1384 330 l 1384 330 q 1379 363 1355 391 q 1331 419 1291 436 q 1251 453 1198 453 l 1198 453 q 1158 453 1133 445 q 1107 437 1089 423 l 1089 423 q 1067 407 1056 383 q 1045 358 1041 327 q 1037 295 1037 258 l 1037 258 l 1037 157 l 905 446 q 937 486 977 516 q 1016 546 1070 564 q 1123 581 1196 581 l 1196 581 q 1288 581 1357 553 q 1425 525 1471 478 q 1516 430 1539 368 q 1562 306 1562 237 l 1562 237 q 1562 155 1535 100 q 1507 44 1454 16 q 1400 -12 1322 -12 z"},"ആ":{"ha":1760,"x_min":34,"x_max":1738,"o":"m 393 581 l 393 581 q 446 581 491 575 q 535 569 584 552 l 584 552 q 600 548 608 536 q 615 524 629 519 l 629 519 q 667 507 703 488 q 738 469 761 441 q 783 412 783 372 l 783 372 q 783 346 775 325 q 766 303 746 286 q 726 269 694 256 l 694 256 l 692 271 q 741 255 768 222 q 795 188 795 139 l 795 139 q 795 100 775 66 q 755 31 706 10 q 657 -12 572 -12 l 572 -12 q 476 -12 418 21 q 360 54 334 111 q 307 168 307 240 l 307 240 q 307 304 327 354 q 347 404 382 442 q 417 480 463 508 l 463 508 q 475 515 485 526 q 495 537 508 542 l 508 542 q 552 562 602 572 q 651 581 703 581 l 703 581 q 768 581 814 569 q 860 557 895 535 q 930 512 960 480 l 960 480 l 1037 226 l 1037 0 l 860 0 l 860 256 q 860 319 850 363 q 839 407 808 433 l 808 433 q 791 447 765 455 q 738 463 704 463 l 704 463 q 684 463 665 460 q 645 457 626 452 l 626 452 q 596 445 568 428 q 540 411 519 385 q 497 358 485 323 q 472 287 472 242 l 472 242 q 472 170 498 141 q 524 111 565 111 l 565 111 q 593 111 609 121 q 624 131 624 153 l 624 153 q 624 173 610 185 q 595 197 561 197 l 561 197 l 533 197 l 533 321 l 551 321 q 584 321 600 335 q 615 348 615 371 l 615 371 q 615 401 590 420 q 565 439 515 444 l 515 444 q 486 453 460 457 q 433 461 403 461 l 403 461 q 334 461 292 438 q 250 415 232 376 q 213 337 213 285 l 213 285 q 213 244 223 208 q 233 171 253 136 q 272 100 298 63 l 298 63 l 166 -12 q 127 27 98 72 q 68 116 51 170 q 34 223 34 289 l 34 289 q 34 337 51 388 q 67 439 107 483 q 147 527 217 554 q 287 581 393 581 z m 1191 581 l 1191 581 q 1281 581 1351 552 q 1420 522 1466 467 q 1511 411 1529 329 l 1529 329 q 1534 307 1536 283 q 1538 259 1538 233 l 1538 233 q 1538 151 1514 96 q 1489 41 1438 15 q 1387 -12 1309 -12 l 1309 -12 q 1240 -12 1192 13 q 1143 38 1117 83 q 1091 128 1091 189 l 1091 189 q 1091 296 1168 353 q 1244 410 1379 410 l 1379 410 q 1395 410 1410 410 q 1425 409 1439 407 l 1439 407 l 1479 405 q 1558 390 1616 351 q 1674 311 1706 249 q 1738 187 1738 103 l 1738 103 q 1738 45 1722 -9 q 1706 -64 1669 -107 q 1631 -150 1566 -175 q 1501 -201 1402 -201 l 1402 -201 q 1360 -201 1319 -194 q 1278 -188 1240 -176 l 1240 -176 l 1286 -56 q 1317 -65 1344 -68 q 1370 -72 1399 -72 l 1399 -72 q 1453 -72 1488 -55 q 1522 -38 1540 -10 q 1558 17 1564 48 q 1570 79 1570 106 l 1570 106 q 1570 152 1561 187 q 1552 221 1533 245 q 1513 268 1482 281 l 1482 281 l 1441 288 q 1428 291 1414 292 q 1399 293 1383 293 l 1383 293 q 1338 293 1312 279 q 1285 264 1274 240 q 1262 215 1262 185 l 1262 185 q 1262 161 1268 145 q 1274 128 1286 120 q 1297 112 1313 112 l 1313 112 q 1343 112 1360 137 q 1376 162 1376 232 l 1376 232 q 1376 259 1373 283 q 1370 306 1364 327 l 1364 327 l 1349 372 q 1333 397 1311 416 q 1288 434 1259 444 q 1229 453 1190 453 l 1190 453 q 1155 453 1131 445 q 1107 437 1089 423 l 1089 423 q 1067 407 1056 383 q 1045 359 1041 328 q 1037 297 1037 258 l 1037 258 l 1037 212 l 905 446 q 937 486 976 516 q 1015 546 1068 564 q 1120 581 1191 581 z"},"ഇ":{"ha":1023,"x_min":31,"x_max":989,"o":"m 343 581 l 343 581 q 413 581 459 568 q 505 555 537 534 q 568 513 593 488 l 593 488 l 539 496 q 576 539 626 560 q 676 581 741 581 l 741 581 q 806 581 853 560 q 899 539 929 503 q 959 466 974 418 q 989 369 989 314 l 989 314 q 989 227 966 167 q 943 106 897 68 l 897 68 q 867 44 829 29 q 790 14 735 7 q 679 0 598 0 l 598 0 l 306 0 q 271 0 256 -1 q 241 -3 232 -8 l 232 -8 q 222 -13 217 -20 q 212 -27 212 -37 l 212 -37 q 212 -47 216 -54 q 220 -62 227 -67 l 227 -67 q 237 -73 254 -76 q 271 -79 307 -79 l 307 -79 l 969 -79 l 969 -206 l 303 -206 q 233 -206 190 -199 q 147 -193 113 -176 l 113 -176 q 78 -158 57 -125 q 35 -92 35 -43 l 35 -43 q 35 1 51 32 q 67 63 95 82 l 95 82 q 119 99 147 108 q 175 117 213 121 q 250 125 302 125 l 302 125 l 576 125 q 629 125 664 129 q 699 133 723 143 q 746 152 763 167 l 763 167 q 789 190 800 226 q 810 261 810 308 l 810 308 q 810 351 801 384 q 791 417 772 436 q 752 454 722 454 l 722 454 q 707 454 696 450 q 684 445 675 436 l 675 436 q 663 424 657 402 q 651 379 651 336 l 651 336 l 651 158 l 478 158 l 478 284 q 478 345 469 379 q 459 412 437 430 l 437 430 q 422 443 399 451 q 375 458 339 458 l 339 458 q 314 458 291 455 q 268 452 247 445 q 226 438 210 427 q 194 416 183 399 l 183 399 q 179 389 178 379 q 177 368 176 357 l 176 357 q 175 349 174 337 q 173 325 173 313 l 173 313 q 173 278 186 262 q 198 245 219 245 l 219 245 q 241 245 251 259 q 261 272 261 292 l 261 292 q 261 308 256 318 q 250 328 240 333 q 230 337 217 337 l 217 337 q 198 337 180 330 q 162 323 139 307 l 139 307 l 86 353 q 104 371 131 389 q 158 406 191 418 q 223 430 256 430 l 256 430 q 311 430 347 413 q 382 395 401 363 q 419 331 419 289 l 419 289 q 419 248 402 213 q 384 178 342 157 q 299 135 224 135 l 224 135 q 168 135 125 157 q 81 179 56 223 q 31 266 31 332 l 31 332 q 31 398 65 455 q 99 511 169 546 q 238 581 343 581 z"},"ഈ":{"ha":1829,"x_min":31,"x_max":1795,"o":"m 343 581 l 343 581 q 413 581 459 568 q 505 555 537 534 q 568 513 593 488 l 593 488 l 539 496 q 576 539 626 560 q 676 581 741 581 l 741 581 q 806 581 853 560 q 899 539 929 503 q 959 466 974 418 q 989 369 989 314 l 989 314 q 989 227 966 167 q 943 106 897 68 l 897 68 q 867 44 829 29 q 790 14 735 7 q 679 0 598 0 l 598 0 l 306 0 q 271 0 256 -1 q 241 -3 232 -8 l 232 -8 q 222 -13 217 -20 q 212 -27 212 -37 l 212 -37 q 212 -47 216 -54 q 220 -62 227 -67 l 227 -67 q 237 -73 254 -76 q 271 -79 307 -79 l 307 -79 l 969 -79 l 969 -206 l 303 -206 q 233 -206 190 -199 q 147 -193 113 -176 l 113 -176 q 78 -158 57 -125 q 35 -92 35 -43 l 35 -43 q 35 1 51 32 q 67 63 95 82 l 95 82 q 119 99 147 108 q 175 117 213 121 q 250 125 302 125 l 302 125 l 576 125 q 629 125 664 129 q 699 133 723 143 q 746 152 763 167 l 763 167 q 789 190 800 226 q 810 261 810 308 l 810 308 q 810 351 801 384 q 791 417 772 436 q 752 454 722 454 l 722 454 q 707 454 696 450 q 684 445 675 436 l 675 436 q 663 424 657 402 q 651 379 651 336 l 651 336 l 651 158 l 478 158 l 478 284 q 478 345 469 379 q 459 412 437 430 l 437 430 q 422 443 399 451 q 375 458 339 458 l 339 458 q 314 458 291 455 q 268 452 247 445 q 226 438 210 427 q 194 416 183 399 l 183 399 q 179 389 178 379 q 177 368 176 357 l 176 357 q 175 349 174 337 q 173 325 173 313 l 173 313 q 173 278 186 262 q 198 245 219 245 l 219 245 q 241 245 251 259 q 261 272 261 292 l 261 292 q 261 308 256 318 q 250 328 240 333 q 230 337 217 337 l 217 337 q 198 337 180 330 q 162 323 139 307 l 139 307 l 86 353 q 104 371 131 389 q 158 406 191 418 q 223 430 256 430 l 256 430 q 311 430 347 413 q 382 395 401 363 q 419 331 419 289 l 419 289 q 419 248 402 213 q 384 178 342 157 q 299 135 224 135 l 224 135 q 168 135 125 157 q 81 179 56 223 q 31 266 31 332 l 31 332 q 31 398 65 455 q 99 511 169 546 q 238 581 343 581 z m 1562 581 l 1562 581 q 1635 581 1687 549 q 1738 517 1766 457 q 1794 396 1794 309 l 1794 309 q 1794 207 1761 136 q 1728 64 1661 26 q 1593 -12 1488 -12 l 1488 -12 q 1408 -12 1351 2 q 1294 15 1239 41 l 1239 41 l 1304 156 q 1348 134 1386 125 q 1424 116 1468 116 l 1468 116 q 1522 116 1555 137 q 1587 158 1601 201 q 1615 244 1615 310 l 1615 310 q 1615 386 1596 421 q 1576 455 1549 455 l 1549 455 q 1539 455 1532 452 q 1524 449 1519 443 l 1519 443 q 1510 432 1508 415 q 1505 398 1505 365 l 1505 365 l 1505 269 l 1330 269 l 1330 353 q 1330 385 1327 408 q 1324 430 1314 441 l 1314 441 q 1307 449 1300 452 q 1292 455 1282 455 l 1282 455 q 1259 455 1244 436 q 1228 417 1228 378 l 1228 378 q 1228 354 1232 332 q 1235 310 1241 291 l 1241 291 l 1071 255 q 1062 285 1057 319 q 1051 353 1051 384 l 1051 384 q 1051 436 1074 481 q 1097 525 1145 553 q 1192 581 1267 581 l 1267 581 q 1325 581 1363 563 q 1400 545 1429 514 l 1429 514 l 1404 514 q 1436 551 1475 566 q 1513 581 1562 581 z"},"ഉ":{"ha":733,"x_min":31,"x_max":700,"o":"m 362 581 l 362 581 q 450 581 514 559 q 578 536 620 497 q 661 458 681 407 q 700 355 700 297 l 700 297 q 700 219 676 162 q 652 105 611 71 l 611 71 q 580 46 540 30 q 499 14 444 7 q 389 0 314 0 l 314 0 l 296 0 q 268 0 255 -1 q 241 -3 232 -8 l 232 -8 q 222 -12 217 -19 q 212 -27 212 -37 l 212 -37 q 212 -47 216 -54 q 220 -62 227 -67 l 227 -67 q 237 -73 254 -76 q 271 -79 307 -79 l 307 -79 l 682 -79 l 682 -206 l 303 -206 q 233 -206 190 -199 q 147 -193 113 -176 l 113 -176 q 78 -158 57 -125 q 35 -92 35 -43 l 35 -43 q 35 1 51 32 q 67 63 95 83 l 95 83 q 131 107 176 116 q 221 125 282 125 l 282 125 l 295 125 q 349 125 383 130 q 417 135 439 145 q 461 154 477 169 l 477 169 q 501 193 511 226 q 520 259 520 295 l 520 295 q 520 335 509 365 q 497 394 475 415 q 453 436 422 447 q 390 457 351 457 l 351 457 q 319 457 293 454 q 266 451 245 444 q 224 436 208 425 q 191 414 180 399 l 180 399 q 174 388 176 378 q 177 368 176 357 l 176 357 q 175 349 174 337 q 173 325 173 313 l 173 313 q 173 278 186 262 q 198 245 219 245 l 219 245 q 241 245 251 259 q 261 272 261 292 l 261 292 q 261 308 256 318 q 250 328 240 333 q 230 337 217 337 l 217 337 q 198 337 179 330 q 160 323 138 307 l 138 307 l 86 353 q 104 371 131 389 q 158 406 191 418 q 223 430 256 430 l 256 430 q 311 430 347 413 q 382 395 401 363 q 419 331 419 289 l 419 289 q 419 248 402 213 q 384 178 342 157 q 299 135 224 135 l 224 135 q 168 135 125 157 q 81 178 56 222 q 31 265 31 329 l 31 329 q 31 378 51 423 q 70 468 111 504 q 152 540 214 561 q 276 581 362 581 z"},"ഊ":{"ha":1536,"x_min":31,"x_max":1502,"o":"m 362 581 l 362 581 q 450 581 514 559 q 578 536 620 497 q 661 458 681 407 q 700 355 700 297 l 700 297 q 700 219 676 162 q 652 105 611 71 l 611 71 q 580 46 540 30 q 499 14 444 7 q 389 0 314 0 l 314 0 l 296 0 q 268 0 255 -1 q 241 -3 232 -8 l 232 -8 q 222 -12 217 -19 q 212 -27 212 -37 l 212 -37 q 212 -47 216 -54 q 220 -62 227 -67 l 227 -67 q 237 -73 254 -76 q 271 -79 307 -79 l 307 -79 l 682 -79 l 682 -206 l 303 -206 q 233 -206 190 -199 q 147 -193 113 -176 l 113 -176 q 78 -158 57 -125 q 35 -92 35 -43 l 35 -43 q 35 1 51 32 q 67 63 95 83 l 95 83 q 131 107 176 116 q 221 125 282 125 l 282 125 l 295 125 q 349 125 383 130 q 417 135 439 145 q 461 154 477 169 l 477 169 q 501 193 511 226 q 520 259 520 295 l 520 295 q 520 335 509 365 q 497 394 475 415 q 453 436 422 447 q 390 457 351 457 l 351 457 q 319 457 293 454 q 266 451 245 444 q 224 436 208 425 q 191 414 180 399 l 180 399 q 174 388 176 378 q 177 368 176 357 l 176 357 q 175 349 174 337 q 173 325 173 313 l 173 313 q 173 278 186 262 q 198 245 219 245 l 219 245 q 241 245 251 259 q 261 272 261 292 l 261 292 q 261 308 256 318 q 250 328 240 333 q 230 337 217 337 l 217 337 q 198 337 179 330 q 160 323 138 307 l 138 307 l 86 353 q 104 371 131 389 q 158 406 191 418 q 223 430 256 430 l 256 430 q 311 430 347 413 q 382 395 401 363 q 419 331 419 289 l 419 289 q 419 248 402 213 q 384 178 342 157 q 299 135 224 135 l 224 135 q 168 135 125 157 q 81 178 56 222 q 31 265 31 329 l 31 329 q 31 378 51 423 q 70 468 111 504 q 152 540 214 561 q 276 581 362 581 z m 1270 581 l 1270 581 q 1343 581 1395 549 q 1446 517 1474 457 q 1502 396 1502 309 l 1502 309 q 1502 207 1469 136 q 1436 64 1369 26 q 1301 -12 1196 -12 l 1196 -12 q 1116 -12 1059 2 q 1002 15 947 41 l 947 41 l 1012 156 q 1056 134 1094 125 q 1132 116 1176 116 l 1176 116 q 1230 116 1263 137 q 1295 158 1309 201 q 1323 244 1323 310 l 1323 310 q 1323 386 1304 421 q 1284 455 1257 455 l 1257 455 q 1247 455 1240 452 q 1232 449 1227 443 l 1227 443 q 1218 432 1216 415 q 1213 398 1213 365 l 1213 365 l 1213 269 l 1038 269 l 1038 353 q 1038 385 1035 408 q 1032 430 1022 441 l 1022 441 q 1015 449 1008 452 q 1000 455 990 455 l 990 455 q 967 455 952 436 q 936 417 936 378 l 936 378 q 936 354 940 332 q 943 310 949 291 l 949 291 l 779 255 q 770 285 765 319 q 759 353 759 384 l 759 384 q 759 436 782 481 q 805 525 853 553 q 900 581 975 581 l 975 581 q 1033 581 1071 563 q 1108 545 1137 514 l 1137 514 l 1112 514 q 1144 551 1183 566 q 1221 581 1270 581 z"},"ഋ":{"ha":978,"x_min":29,"x_max":949,"o":"m 720 581 l 720 581 q 828 581 889 517 q 949 452 949 345 l 949 345 q 949 275 927 225 q 904 174 862 140 l 862 140 q 812 98 744 81 q 676 63 587 63 l 587 63 l 393 63 q 333 63 283 71 q 232 78 191 95 q 149 112 116 140 l 116 140 q 75 175 52 226 q 29 277 29 347 l 29 347 q 29 416 57 469 q 84 522 137 552 q 189 581 264 581 l 264 581 q 331 581 378 557 q 424 532 448 491 q 472 449 472 398 l 472 398 q 472 334 448 296 q 424 257 380 240 q 335 222 274 222 l 274 222 q 236 222 201 238 q 165 254 135 280 q 105 305 83 331 l 83 331 l 127 422 q 148 395 166 375 q 184 355 203 345 q 222 334 246 334 l 246 334 q 270 334 287 349 q 303 363 303 402 l 303 402 q 303 432 290 448 q 277 463 255 463 l 255 463 q 236 463 221 451 q 206 439 198 415 q 189 391 189 352 l 189 352 q 189 337 190 324 q 191 311 194 299 l 194 299 l 196 268 q 210 237 238 218 q 265 199 303 189 q 340 179 385 176 q 430 172 480 172 l 480 172 l 497 172 q 546 172 592 176 q 637 179 675 189 q 713 199 741 218 q 768 237 782 268 l 782 268 l 784 298 q 787 310 788 324 q 789 337 789 352 l 789 352 q 789 391 781 415 q 773 439 759 451 q 744 463 726 463 l 726 463 q 702 463 689 447 q 675 431 675 399 l 675 399 q 675 362 692 348 q 709 334 731 334 l 731 334 q 756 334 775 344 q 794 354 812 374 q 830 394 851 422 l 851 422 l 895 331 q 874 305 844 280 q 813 254 777 238 q 741 222 700 222 l 700 222 q 641 222 597 239 q 553 256 530 295 q 506 333 506 395 l 506 395 q 506 449 531 491 q 556 533 604 557 q 652 581 720 581 z m 496 -261 l 496 -261 q 365 -261 276 -241 q 187 -221 142 -176 q 97 -132 97 -59 l 97 -59 q 97 -4 126 32 q 154 67 201 89 q 248 110 305 119 q 361 128 416 128 l 416 128 l 562 128 q 617 128 674 119 q 730 110 777 89 q 824 67 853 32 q 881 -4 881 -59 l 881 -59 q 881 -132 837 -176 q 792 -221 707 -241 q 621 -261 496 -261 z m 490 -131 l 490 -131 q 562 -131 608 -122 q 654 -113 678 -93 q 701 -73 701 -40 l 701 -40 q 701 -14 686 3 q 671 19 644 29 q 617 38 580 42 q 543 46 499 46 l 499 46 l 479 46 q 420 46 375 39 q 329 31 304 13 q 278 -6 278 -40 l 278 -40 q 278 -73 301 -93 q 324 -113 371 -122 q 418 -131 490 -131 z"},"ഌ":{"ha":1256,"x_min":33,"x_max":1226,"o":"m 390 581 l 390 581 q 475 581 535 559 q 594 536 645 481 l 645 481 l 675 393 l 701 281 l 701 0 l 525 0 l 525 283 q 525 346 516 378 q 507 409 484 428 l 484 428 q 468 441 444 448 q 420 455 387 455 l 387 455 q 335 455 290 432 q 245 408 218 361 q 191 314 191 243 l 191 243 l 191 238 q 191 184 200 156 q 208 127 222 117 q 236 107 252 107 l 252 107 q 267 107 277 114 q 286 120 292 135 q 297 149 297 173 l 297 173 q 297 208 284 225 q 270 241 247 241 l 247 241 q 218 241 195 222 q 171 203 134 159 l 134 159 l 111 277 q 148 311 192 335 q 236 358 294 358 l 294 358 q 353 358 391 336 q 429 313 448 273 q 467 233 467 181 l 467 181 q 467 121 444 78 q 420 34 374 11 q 327 -12 257 -12 l 257 -12 q 193 -12 143 14 q 92 40 63 97 q 33 153 33 245 l 33 245 q 33 354 80 429 q 126 504 207 543 q 288 581 390 581 z m 986 -12 l 986 -12 q 907 -12 859 18 q 810 47 788 97 q 766 146 766 204 l 766 204 q 766 301 816 355 q 865 409 956 409 l 956 409 q 1012 409 1053 380 q 1094 350 1119 305 q 1144 259 1150 211 l 1150 211 l 1081 208 q 1077 232 1066 252 q 1055 272 1039 284 q 1022 296 999 296 l 999 296 q 968 296 952 275 q 936 253 936 204 l 936 204 q 936 171 943 151 q 950 131 962 122 q 974 113 989 113 l 989 113 q 1011 113 1025 125 q 1039 137 1046 165 q 1053 192 1053 238 l 1053 238 q 1053 256 1052 273 q 1050 290 1048 305 l 1048 305 q 1048 309 1049 318 q 1050 326 1048 330 l 1048 330 q 1044 363 1020 391 q 995 419 955 436 q 915 453 862 453 l 862 453 q 822 453 797 445 q 772 437 753 423 l 753 423 q 732 407 721 383 q 709 358 705 327 q 701 295 701 258 l 701 258 l 701 157 l 569 446 q 601 486 641 516 q 680 546 734 564 q 787 581 859 581 l 859 581 q 951 581 1020 553 q 1089 525 1135 478 q 1181 430 1204 368 q 1226 306 1226 237 l 1226 237 q 1226 155 1199 100 q 1171 44 1118 16 q 1065 -12 986 -12 z"},"എ":{"ha":1336,"x_min":27,"x_max":1298,"o":"m 264 372 l 264 372 q 348 372 399 343 q 449 314 473 270 q 496 225 496 178 l 496 178 q 496 154 490 127 q 483 99 471 77 l 471 77 l 471 126 l 890 126 l 890 0 l 357 0 l 300 71 q 310 88 319 112 q 328 136 328 167 l 328 167 q 328 199 314 223 q 300 247 266 247 l 266 247 q 244 247 230 237 q 215 226 209 208 q 202 190 202 166 l 202 166 q 202 131 213 103 q 224 74 241 44 l 241 44 l 104 -13 q 70 26 49 72 q 27 117 27 174 l 27 174 q 27 235 57 280 q 86 324 140 348 q 193 372 264 372 z m 938 581 l 938 581 q 1031 581 1100 553 q 1168 524 1212 471 q 1255 417 1277 343 q 1298 269 1298 178 l 1298 178 q 1298 91 1282 20 q 1265 -52 1237 -112 q 1209 -173 1172 -229 l 1172 -229 l 1026 -160 q 1056 -108 1077 -56 q 1097 -5 1108 52 q 1119 109 1119 177 l 1119 177 q 1119 239 1109 290 q 1099 341 1077 378 q 1055 415 1021 435 q 987 454 939 454 l 939 454 q 872 454 829 417 q 785 379 764 310 q 743 240 743 144 l 743 144 q 743 129 743 112 q 743 94 744 77 l 744 77 q 744 71 744 64 q 743 57 743 51 l 743 51 q 744 5 752 -29 q 759 -64 774 -84 q 789 -104 813 -104 l 813 -104 q 826 -104 832 -98 l 832 -98 q 836 -93 838 -86 q 840 -79 840 -62 l 840 -62 l 840 377 l 1016 377 l 1016 -12 q 1016 -88 1001 -126 q 985 -164 959 -187 l 959 -187 q 934 -208 902 -218 q 869 -228 820 -228 l 820 -228 q 739 -228 683 -190 q 626 -152 597 -69 q 567 14 567 148 l 567 148 q 567 240 590 320 q 612 399 658 457 q 704 515 774 548 q 843 581 938 581 z"},"ഏ":{"ha":1354,"x_min":28,"x_max":1326,"o":"m 265 372 l 265 372 q 349 372 400 343 q 450 314 474 270 q 497 225 497 178 l 497 178 q 497 154 491 127 q 484 99 473 77 l 473 77 l 472 126 l 892 126 l 892 0 l 358 0 l 301 71 q 311 88 320 112 q 329 136 329 167 l 329 167 q 329 199 315 223 q 301 247 267 247 l 267 247 q 245 247 231 237 q 216 226 210 208 q 203 190 203 166 l 203 166 q 203 131 214 103 q 225 74 242 44 l 242 44 l 105 -13 q 71 26 50 72 q 28 117 28 174 l 28 174 q 28 235 58 280 q 87 324 141 348 q 194 372 265 372 z m 986 581 l 986 581 q 1077 581 1140 561 q 1203 541 1242 507 q 1281 473 1299 430 q 1317 386 1317 338 l 1317 338 q 1317 287 1303 250 q 1288 213 1264 187 q 1240 160 1211 141 l 1211 141 l 1213 159 q 1264 135 1295 91 q 1326 46 1326 -24 l 1326 -24 q 1326 -96 1300 -141 q 1273 -186 1224 -207 q 1174 -228 1106 -228 l 1106 -228 q 1085 -228 1061 -226 q 1036 -224 1019 -220 l 1019 -220 l 1039 -97 q 1048 -99 1058 -100 q 1068 -101 1075 -101 l 1075 -101 q 1103 -101 1119 -91 q 1135 -81 1142 -62 q 1149 -43 1149 -17 l 1149 -17 q 1149 24 1125 51 q 1101 77 1055 79 l 1055 79 l 1055 203 q 1080 212 1099 227 q 1118 241 1129 264 q 1140 287 1140 322 l 1140 322 q 1140 363 1122 393 q 1104 422 1069 438 q 1033 454 981 454 l 981 454 q 897 454 845 414 q 793 374 769 305 q 744 235 744 144 l 744 144 q 744 129 745 112 q 745 94 745 77 l 745 77 q 745 71 745 64 q 744 57 744 51 l 744 51 q 746 5 754 -29 q 761 -64 776 -84 q 791 -104 814 -104 l 814 -104 q 827 -104 833 -98 l 833 -98 q 837 -93 839 -86 q 841 -79 841 -62 l 841 -62 l 841 377 l 1017 377 l 1017 -12 q 1017 -88 1002 -126 q 986 -164 960 -187 l 960 -187 q 936 -208 903 -218 q 870 -228 822 -228 l 822 -228 q 740 -228 684 -190 q 627 -152 598 -69 q 569 14 569 148 l 569 148 q 569 241 595 320 q 620 399 672 458 q 724 516 803 549 q 881 581 986 581 z"},"ഐ":{"ha":2110,"x_min":34,"x_max":2072,"o":"m 258 -12 l 258 -12 q 195 -12 144 14 q 93 39 64 95 q 34 151 34 242 l 34 242 q 34 314 58 376 q 82 438 129 484 q 176 530 246 556 q 316 581 406 581 l 406 581 q 502 581 567 555 q 631 529 669 486 q 707 443 724 391 q 740 339 740 287 l 740 287 q 740 223 723 169 q 705 115 675 71 q 645 26 606 -13 l 606 -13 l 471 62 q 499 98 519 133 q 538 168 548 205 q 558 242 558 284 l 558 284 q 558 336 541 374 q 523 412 487 433 q 451 454 393 454 l 393 454 q 334 454 289 428 q 243 401 218 353 q 192 305 192 240 l 192 240 q 192 186 201 157 q 209 128 223 118 q 237 107 253 107 l 253 107 q 268 107 278 114 q 287 120 293 135 q 298 149 298 173 l 298 173 q 298 208 285 225 q 271 241 248 241 l 248 241 q 219 241 196 222 q 172 203 135 159 l 135 159 l 112 277 q 149 311 192 335 q 235 358 295 358 l 295 358 q 354 358 392 336 q 430 313 449 273 q 468 233 468 181 l 468 181 q 468 121 445 78 q 421 35 375 12 q 329 -12 258 -12 z m 1037 372 l 1037 372 q 1121 372 1172 343 q 1222 314 1246 270 q 1269 225 1269 178 l 1269 178 q 1269 154 1263 127 q 1256 99 1244 77 l 1244 77 l 1244 126 l 1663 126 l 1663 0 l 1130 0 l 1073 71 q 1083 88 1092 112 q 1101 136 1101 167 l 1101 167 q 1101 199 1087 223 q 1073 247 1039 247 l 1039 247 q 1017 247 1003 237 q 988 226 982 208 q 975 190 975 166 l 975 166 q 975 131 986 103 q 997 74 1014 44 l 1014 44 l 877 -13 q 843 26 822 72 q 800 117 800 174 l 800 174 q 800 235 830 280 q 859 324 913 348 q 966 372 1037 372 z m 1711 581 l 1711 581 q 1804 581 1873 553 q 1941 524 1985 471 q 2028 417 2050 343 q 2071 269 2071 178 l 2071 178 q 2071 91 2055 20 q 2038 -52 2010 -112 q 1982 -173 1945 -229 l 1945 -229 l 1799 -160 q 1829 -108 1850 -56 q 1870 -5 1881 52 q 1892 109 1892 177 l 1892 177 q 1892 239 1882 290 q 1872 341 1850 378 q 1828 415 1794 435 q 1760 454 1712 454 l 1712 454 q 1645 454 1602 417 q 1558 379 1537 310 q 1516 240 1516 144 l 1516 144 q 1516 129 1516 112 q 1516 94 1517 77 l 1517 77 q 1517 71 1517 64 q 1516 57 1516 51 l 1516 51 q 1517 5 1525 -29 q 1532 -64 1547 -84 q 1562 -104 1586 -104 l 1586 -104 q 1599 -104 1605 -98 l 1605 -98 q 1609 -93 1611 -86 q 1613 -79 1613 -62 l 1613 -62 l 1613 377 l 1789 377 l 1789 -12 q 1789 -88 1774 -126 q 1758 -164 1732 -187 l 1732 -187 q 1707 -208 1675 -218 q 1642 -228 1593 -228 l 1593 -228 q 1512 -228 1456 -190 q 1399 -152 1370 -69 q 1340 14 1340 148 l 1340 148 q 1340 240 1363 320 q 1385 399 1431 457 q 1477 515 1547 548 q 1616 581 1711 581 z"},"ഒ":{"ha":810,"x_min":32,"x_max":780,"o":"m 476 581 l 476 581 q 588 581 653 558 q 717 534 744 496 q 770 457 770 412 l 770 412 q 770 382 762 358 q 754 334 735 315 q 715 295 682 280 l 682 280 l 685 287 q 733 269 757 233 q 780 196 780 148 l 780 148 q 780 71 727 30 q 674 -12 570 -12 l 570 -12 q 541 -12 515 -8 q 488 -5 465 0 l 465 0 l 490 120 q 502 117 516 116 q 530 114 542 114 l 542 114 q 573 114 589 126 q 605 137 605 163 l 605 163 q 605 178 599 188 q 593 198 582 205 l 582 205 q 570 213 553 216 q 536 219 504 219 l 504 219 l 498 219 l 498 342 l 502 342 q 534 342 550 345 q 566 348 577 356 l 577 356 q 587 363 591 373 q 595 382 595 394 l 595 394 q 595 428 560 442 q 525 455 463 455 l 463 455 q 417 455 370 444 q 322 432 281 408 q 240 384 215 345 q 190 306 190 250 l 190 250 l 190 235 q 190 183 199 156 q 207 128 221 118 q 235 107 251 107 l 251 107 q 266 107 276 114 q 286 121 291 136 q 296 150 296 173 l 296 173 q 296 208 283 225 q 269 241 246 241 l 246 241 q 217 241 194 222 q 170 203 134 159 l 134 159 l 111 277 q 147 311 192 335 q 236 358 293 358 l 293 358 q 352 358 390 336 q 428 313 447 273 q 466 233 466 181 l 466 181 q 466 121 443 78 q 420 34 374 11 q 327 -12 256 -12 l 256 -12 q 193 -12 142 14 q 91 39 62 95 q 32 150 32 237 l 32 237 q 32 323 65 388 q 98 452 159 495 q 219 538 300 560 q 380 581 476 581 z"},"ഓ":{"ha":1372,"x_min":32,"x_max":1338,"o":"m 476 581 l 476 581 q 588 581 653 558 q 717 534 744 496 q 770 457 770 412 l 770 412 q 770 382 762 358 q 754 334 735 315 q 715 295 682 280 l 682 280 l 685 287 q 733 269 757 233 q 780 196 780 148 l 780 148 q 780 71 727 30 q 674 -12 570 -12 l 570 -12 q 541 -12 515 -8 q 488 -5 465 0 l 465 0 l 490 120 q 502 117 516 116 q 530 114 542 114 l 542 114 q 573 114 589 126 q 605 137 605 163 l 605 163 q 605 178 599 188 q 593 198 582 205 l 582 205 q 570 213 553 216 q 536 219 504 219 l 504 219 l 498 219 l 498 342 l 502 342 q 534 342 550 345 q 566 348 577 356 l 577 356 q 587 363 591 373 q 595 382 595 394 l 595 394 q 595 428 560 442 q 525 455 463 455 l 463 455 q 417 455 370 444 q 322 432 281 408 q 240 384 215 345 q 190 306 190 250 l 190 250 l 190 235 q 190 183 199 156 q 207 128 221 118 q 235 107 251 107 l 251 107 q 266 107 276 114 q 286 121 291 136 q 296 150 296 173 l 296 173 q 296 208 283 225 q 269 241 246 241 l 246 241 q 217 241 194 222 q 170 203 134 159 l 134 159 l 111 277 q 147 311 192 335 q 236 358 293 358 l 293 358 q 352 358 390 336 q 428 313 447 273 q 466 233 466 181 l 466 181 q 466 121 443 78 q 420 34 374 11 q 327 -12 256 -12 l 256 -12 q 193 -12 142 14 q 91 39 62 95 q 32 150 32 237 l 32 237 q 32 323 65 388 q 98 452 159 495 q 219 538 300 560 q 380 581 476 581 z m 1338 287 l 1338 287 q 1338 223 1326 168 q 1313 113 1284 73 q 1254 33 1204 11 q 1153 -12 1077 -12 l 1077 -12 q 1006 -12 961 5 q 915 22 888 51 q 861 80 847 115 q 832 150 824 186 l 824 186 l 1004 217 q 1011 185 1020 162 q 1029 139 1044 127 q 1058 114 1081 114 l 1081 114 q 1108 114 1125 134 q 1142 153 1150 192 q 1157 230 1157 286 l 1157 286 q 1157 341 1150 378 q 1142 415 1126 435 q 1109 455 1082 455 l 1082 455 q 1061 455 1046 443 q 1031 430 1022 407 q 1013 384 1006 352 l 1006 352 l 826 384 q 837 421 855 456 q 873 491 902 520 q 931 548 976 565 q 1020 581 1086 581 l 1086 581 q 1159 581 1208 558 q 1257 534 1286 493 q 1314 452 1326 399 q 1338 346 1338 287 z"},"ഔ":{"ha":1612,"x_min":32,"x_max":1578,"o":"m 476 581 l 476 581 q 588 581 653 558 q 717 534 744 496 q 770 457 770 412 l 770 412 q 770 382 762 358 q 754 334 735 315 q 715 295 682 280 l 682 280 l 685 287 q 733 269 757 233 q 780 196 780 148 l 780 148 q 780 71 727 30 q 674 -12 570 -12 l 570 -12 q 541 -12 515 -8 q 488 -5 465 0 l 465 0 l 490 120 q 502 117 516 116 q 530 114 542 114 l 542 114 q 573 114 589 126 q 605 137 605 163 l 605 163 q 605 178 599 188 q 593 198 582 205 l 582 205 q 570 213 553 216 q 536 219 504 219 l 504 219 l 498 219 l 498 342 l 502 342 q 534 342 550 345 q 566 348 577 356 l 577 356 q 587 363 591 373 q 595 382 595 394 l 595 394 q 595 428 560 442 q 525 455 463 455 l 463 455 q 417 455 370 444 q 322 432 281 408 q 240 384 215 345 q 190 306 190 250 l 190 250 l 190 235 q 190 183 199 156 q 207 128 221 118 q 235 107 251 107 l 251 107 q 266 107 276 114 q 286 121 291 136 q 296 150 296 173 l 296 173 q 296 208 283 225 q 269 241 246 241 l 246 241 q 217 241 194 222 q 170 203 134 159 l 134 159 l 111 277 q 147 311 192 335 q 236 358 293 358 l 293 358 q 352 358 390 336 q 428 313 447 273 q 466 233 466 181 l 466 181 q 466 121 443 78 q 420 34 374 11 q 327 -12 256 -12 l 256 -12 q 193 -12 142 14 q 91 39 62 95 q 32 150 32 237 l 32 237 q 32 323 65 388 q 98 452 159 495 q 219 538 300 560 q 380 581 476 581 z m 1346 581 l 1346 581 q 1419 581 1471 549 q 1522 517 1550 457 q 1578 396 1578 309 l 1578 309 q 1578 207 1545 136 q 1512 64 1445 26 q 1377 -12 1272 -12 l 1272 -12 q 1192 -12 1135 2 q 1078 15 1023 41 l 1023 41 l 1088 156 q 1132 134 1170 125 q 1208 116 1252 116 l 1252 116 q 1306 116 1339 137 q 1371 158 1385 201 q 1399 244 1399 310 l 1399 310 q 1399 386 1380 421 q 1360 455 1333 455 l 1333 455 q 1323 455 1316 452 q 1308 449 1303 443 l 1303 443 q 1294 432 1292 415 q 1289 398 1289 365 l 1289 365 l 1289 269 l 1114 269 l 1114 353 q 1114 385 1111 408 q 1108 430 1098 441 l 1098 441 q 1091 449 1084 452 q 1076 455 1066 455 l 1066 455 q 1043 455 1028 436 q 1012 417 1012 378 l 1012 378 q 1012 354 1016 332 q 1019 310 1025 291 l 1025 291 l 855 255 q 846 285 841 319 q 835 353 835 384 l 835 384 q 835 436 858 481 q 881 525 929 553 q 976 581 1051 581 l 1051 581 q 1109 581 1147 563 q 1184 545 1213 514 l 1213 514 l 1188 514 q 1220 551 1259 566 q 1297 581 1346 581 z"},"ക":{"ha":1112,"x_min":27,"x_max":1085,"o":"m 235 -12 l 235 -12 q 135 -12 81 35 q 27 82 27 166 l 27 166 q 27 221 50 257 q 73 293 111 315 l 111 315 q 139 332 174 341 q 209 350 255 354 q 300 358 361 358 l 361 358 l 777 358 q 858 358 910 350 q 962 342 1003 318 l 1003 318 q 1041 296 1063 259 q 1085 222 1085 165 l 1085 165 q 1085 76 1032 32 q 979 -12 890 -12 l 890 -12 q 867 -12 843 -9 q 819 -7 797 -2 l 797 -2 l 825 118 q 834 116 844 115 q 854 114 863 114 l 863 114 q 889 114 902 128 q 915 142 915 165 l 915 165 q 915 184 908 196 q 901 208 889 215 l 889 215 q 873 225 848 229 q 822 232 774 232 l 774 232 l 312 232 q 273 232 251 228 q 229 223 215 213 l 215 213 q 204 205 198 194 q 192 183 192 168 l 192 168 q 192 150 199 138 q 206 125 221 119 q 235 113 257 113 l 257 113 q 284 113 308 123 q 331 133 354 153 l 354 153 l 425 43 q 394 23 365 11 q 336 -2 305 -7 q 274 -12 235 -12 z m 557 581 l 557 581 q 655 581 715 545 q 774 508 801 443 q 828 377 828 287 l 828 287 q 828 189 798 122 q 767 55 707 22 q 647 -12 558 -12 l 558 -12 q 484 -12 432 10 q 380 32 347 77 l 347 77 q 317 115 301 169 q 285 223 285 290 l 285 290 q 285 430 354 506 q 422 581 557 581 z m 557 455 l 557 455 q 505 455 482 413 q 459 371 459 283 l 459 283 q 459 228 469 190 q 479 152 501 133 q 523 114 557 114 l 557 114 q 590 114 612 133 q 633 151 644 190 q 654 228 654 286 l 654 286 q 654 343 644 381 q 634 418 613 437 q 591 455 557 455 z"},"ഖ":{"ha":1067,"x_min":32,"x_max":1014,"o":"m 404 581 l 404 581 q 499 581 564 556 q 628 530 667 489 q 706 447 723 395 q 739 343 739 291 l 739 291 q 739 235 725 193 q 711 151 685 114 q 658 76 620 35 l 620 35 l 580 0 l 531 0 l 487 77 q 507 106 523 139 q 539 171 550 208 q 560 244 560 286 l 560 286 q 560 337 542 375 q 524 412 489 433 q 453 454 396 454 l 396 454 q 344 454 297 430 q 249 406 220 360 q 190 313 190 244 l 190 244 l 190 236 q 190 183 199 155 q 207 127 221 117 q 235 107 251 107 l 251 107 q 266 107 276 114 q 285 120 291 135 q 296 149 296 173 l 296 173 q 296 208 283 225 q 269 241 246 241 l 246 241 q 218 241 194 222 q 170 203 133 159 l 133 159 l 110 277 q 147 311 191 335 q 235 358 293 358 l 293 358 q 352 358 390 336 q 428 313 447 273 q 466 233 466 181 l 466 181 q 466 121 443 78 q 419 34 373 11 q 327 -12 256 -12 l 256 -12 q 192 -12 142 14 q 91 39 62 95 q 32 150 32 239 l 32 239 q 32 344 77 420 q 122 496 206 539 q 290 581 404 581 z m 838 569 l 1014 569 l 1014 0 l 566 0 l 642 126 l 838 126 l 838 569 z"},"ഗ":{"ha":942,"x_min":34,"x_max":908,"o":"m 640 581 l 640 581 q 726 581 786 546 q 845 511 877 448 q 908 385 908 303 l 908 303 q 908 240 893 187 q 878 134 851 86 q 823 38 784 -12 l 784 -12 l 647 62 q 674 105 693 143 q 711 180 720 218 q 729 256 729 300 l 729 300 q 729 359 716 393 q 703 426 682 440 q 661 454 636 454 l 636 454 q 620 454 608 450 q 595 446 587 437 l 587 437 q 571 422 566 395 q 561 368 561 326 l 561 326 l 561 260 q 561 206 553 165 q 545 123 529 93 q 512 63 487 41 l 487 41 q 455 14 411 1 q 366 -12 302 -12 l 302 -12 q 216 -12 156 23 q 96 58 65 121 q 34 184 34 266 l 34 266 q 34 329 49 382 q 63 435 92 483 q 120 531 158 581 l 158 581 l 295 507 q 268 464 250 427 q 231 389 222 351 q 213 313 213 269 l 213 269 q 213 211 226 177 q 239 143 261 129 q 282 115 306 115 l 306 115 q 323 115 335 119 q 347 123 355 132 l 355 132 q 371 147 376 174 q 381 201 381 243 l 381 243 l 381 315 q 381 392 400 444 q 418 495 456 527 l 456 527 q 489 554 532 568 q 575 581 640 581 z"},"ഘ":{"ha":1405,"x_min":27,"x_max":1353,"o":"m 264 581 l 264 581 q 348 581 399 552 q 449 523 473 479 q 496 434 496 387 l 496 387 q 496 363 490 336 q 483 308 471 286 l 471 286 l 471 334 l 676 334 l 697 209 l 357 209 l 300 280 q 310 297 319 321 q 328 345 328 376 l 328 376 q 328 408 314 432 q 300 456 266 456 l 266 456 q 244 456 230 446 q 215 435 209 417 q 202 398 202 375 l 202 375 q 202 340 213 312 q 224 283 241 253 l 241 253 l 104 196 q 70 235 49 281 q 27 326 27 383 l 27 383 q 27 444 57 489 q 86 533 140 557 q 193 581 264 581 z m 1176 569 l 1353 569 l 1353 0 l 557 0 l 557 300 q 557 382 578 433 q 598 484 634 518 l 634 518 q 668 549 716 565 q 764 581 826 581 l 826 581 q 893 581 941 565 q 988 548 1021 516 l 1021 516 q 1057 482 1075 432 q 1093 381 1093 300 l 1093 300 l 1093 209 l 733 209 l 733 126 l 1176 126 l 1176 569 z m 825 455 l 825 455 q 777 455 755 425 q 733 395 733 343 l 733 343 l 733 334 l 917 334 l 917 343 q 917 396 894 426 q 870 455 825 455 z"},"ങ":{"ha":1139,"x_min":33,"x_max":1109,"o":"m 390 581 l 390 581 q 475 581 535 559 q 594 536 645 481 l 645 481 l 671 384 l 701 239 l 701 0 l 525 0 l 525 283 q 525 346 516 378 q 507 409 484 428 l 484 428 q 468 441 444 448 q 420 455 387 455 l 387 455 q 335 455 290 432 q 245 408 218 361 q 191 314 191 243 l 191 243 l 191 238 q 191 184 200 156 q 208 127 222 117 q 236 107 252 107 l 252 107 q 267 107 277 114 q 286 120 292 135 q 297 149 297 173 l 297 173 q 297 208 284 225 q 270 241 247 241 l 247 241 q 218 241 195 222 q 171 203 134 159 l 134 159 l 111 277 q 148 311 192 335 q 236 358 294 358 l 294 358 q 353 358 391 336 q 429 313 448 273 q 467 233 467 181 l 467 181 q 467 121 444 78 q 420 34 374 11 q 327 -12 257 -12 l 257 -12 q 193 -12 143 14 q 92 40 63 97 q 33 153 33 245 l 33 245 q 33 354 80 429 q 126 504 207 543 q 288 581 390 581 z m 865 581 l 865 581 q 945 581 997 559 q 1049 537 1074 500 q 1099 463 1099 417 l 1099 417 q 1099 386 1091 361 q 1082 335 1063 316 q 1043 296 1010 281 l 1010 281 l 1011 287 q 1061 269 1085 233 q 1109 196 1109 148 l 1109 148 q 1109 73 1056 31 q 1003 -12 899 -12 l 899 -12 q 869 -12 840 -8 q 810 -4 788 1 l 788 1 l 811 122 q 826 119 841 117 q 855 114 870 114 l 870 114 q 902 114 918 126 q 933 137 933 163 l 933 163 q 933 178 928 188 q 922 198 911 205 l 911 205 q 899 213 882 216 q 865 219 835 219 l 835 219 l 807 219 l 807 342 l 831 342 q 861 342 878 346 q 895 350 905 358 l 905 358 q 915 365 920 375 q 924 385 924 398 l 924 398 q 924 424 905 440 q 886 455 848 455 l 848 455 q 812 455 787 443 q 761 431 742 408 l 742 408 q 724 388 716 361 q 707 333 704 299 q 701 265 701 223 l 701 223 l 701 123 l 540 131 l 537 270 l 542 356 q 562 425 605 476 q 647 526 712 554 q 777 581 865 581 z"},"ച":{"ha":962,"x_min":20,"x_max":909,"o":"m 733 569 l 909 569 l 909 0 l 20 0 l 20 126 l 446 126 l 365 100 q 390 121 404 149 q 417 176 417 208 l 417 208 q 417 237 405 256 q 393 275 363 275 l 363 275 q 338 275 325 257 q 312 238 312 207 l 312 207 q 312 197 313 190 q 314 182 315 175 l 315 175 l 142 160 q 140 173 139 189 q 138 205 138 217 l 138 217 q 138 302 194 351 q 250 400 364 400 l 364 400 q 431 400 474 383 q 516 366 541 340 q 565 313 575 283 q 585 253 585 226 l 585 226 q 585 203 580 181 q 574 159 564 139 q 554 119 539 101 l 539 101 l 516 126 l 733 126 l 733 569 z"},"ഛ":{"ha":1401,"x_min":20,"x_max":1371,"o":"m 364 400 l 364 400 q 431 400 474 383 q 516 366 541 340 q 565 313 575 283 q 585 253 585 226 l 585 226 q 585 203 580 181 q 574 159 564 139 q 554 119 539 101 l 539 101 l 516 126 l 742 126 l 819 0 l 20 0 l 20 126 l 446 126 l 365 100 q 390 121 404 149 q 417 176 417 208 l 417 208 q 417 237 405 256 q 393 275 363 275 l 363 275 q 338 275 325 257 q 312 238 312 207 l 312 207 q 312 197 313 190 q 314 182 315 175 l 315 175 l 142 160 q 140 173 139 189 q 138 205 138 217 l 138 217 q 138 302 194 351 q 250 400 364 400 z m 996 581 l 996 581 q 1093 581 1164 553 q 1234 525 1280 478 q 1326 430 1349 368 q 1371 306 1371 237 l 1371 237 q 1371 155 1344 100 q 1316 44 1263 16 q 1210 -12 1131 -12 l 1131 -12 q 1052 -12 1004 18 q 955 47 933 97 q 911 146 911 204 l 911 204 q 911 301 961 355 q 1010 409 1101 409 l 1101 409 q 1157 409 1198 380 q 1239 350 1264 305 q 1289 259 1295 211 l 1295 211 l 1226 208 q 1222 232 1211 252 q 1200 272 1184 284 q 1167 296 1144 296 l 1144 296 q 1113 296 1097 275 q 1081 253 1081 204 l 1081 204 q 1081 171 1088 151 q 1095 131 1107 122 q 1119 113 1134 113 l 1134 113 q 1156 113 1170 125 q 1184 137 1191 165 q 1198 192 1198 238 l 1198 238 q 1198 256 1197 273 q 1195 290 1193 305 l 1193 305 q 1193 309 1194 318 q 1195 326 1193 330 l 1193 330 q 1189 363 1165 391 q 1141 419 1101 436 q 1061 453 1006 453 l 1006 453 q 947 453 906 434 q 865 414 845 376 q 824 338 824 284 l 824 284 q 824 243 834 209 q 843 175 860 143 q 877 111 898 80 l 898 80 l 834 0 l 767 0 l 738 65 q 708 98 688 133 q 667 167 656 207 q 645 246 645 292 l 645 292 q 645 345 664 397 q 683 448 725 490 q 766 532 833 557 q 900 581 996 581 z"},"ജ":{"ha":981,"x_min":26,"x_max":947,"o":"m 303 581 l 303 581 q 366 581 408 572 q 449 562 478 547 q 506 532 528 515 l 528 515 l 503 508 q 543 548 592 565 q 640 581 701 581 l 701 581 q 788 581 843 550 q 897 519 922 470 q 947 421 947 367 l 947 367 q 947 323 935 288 q 922 252 899 226 q 875 200 840 182 l 840 182 l 636 153 l 497 143 q 461 140 427 139 q 393 138 365 138 l 365 138 l 227 138 q 210 138 201 137 q 192 135 187 132 l 187 132 q 183 130 181 126 q 179 122 179 117 l 179 117 q 179 110 184 106 q 188 101 197 99 q 206 96 221 96 l 221 96 q 239 96 261 98 q 283 100 312 106 q 341 111 378 120 l 378 120 q 404 126 430 132 q 455 138 480 143 q 505 147 529 151 q 552 155 574 157 l 574 157 q 589 164 615 177 q 640 190 669 204 q 698 217 725 227 q 751 236 767 236 l 767 236 q 804 236 840 225 q 875 214 899 188 q 922 161 922 112 l 922 112 q 922 52 879 20 q 836 -12 753 -12 l 753 -12 q 684 -12 645 7 q 606 26 590 57 q 574 87 574 121 l 574 121 q 574 162 595 189 q 615 216 638 231 l 638 231 l 775 218 q 760 211 745 197 q 729 183 718 166 q 707 149 707 129 l 707 129 q 707 112 716 100 q 725 87 747 87 l 747 87 q 766 87 775 95 q 784 103 784 117 l 784 117 q 784 126 781 134 q 778 141 770 146 q 762 150 747 150 l 747 150 q 729 150 713 140 q 696 130 673 109 l 673 109 l 668 128 q 653 115 630 101 q 607 86 576 71 q 544 55 502 40 l 502 40 q 444 21 394 10 q 343 -2 298 -7 q 252 -12 208 -12 l 208 -12 q 156 -12 115 0 q 74 12 50 40 q 26 68 26 115 l 26 115 q 26 152 41 176 q 55 199 79 213 l 79 213 q 109 232 149 238 q 189 243 254 243 l 254 243 l 570 243 q 614 243 642 245 q 670 247 690 253 q 710 258 728 267 l 728 267 q 754 281 766 303 q 777 325 777 359 l 777 359 q 777 389 766 411 q 754 433 734 445 q 713 457 683 457 l 683 457 q 664 457 650 453 q 635 448 626 439 l 626 439 q 613 426 607 403 q 600 380 600 338 l 600 338 l 600 268 l 443 268 l 443 302 q 443 351 436 386 q 429 420 405 442 l 405 442 q 389 457 365 466 q 340 474 304 474 l 304 474 q 267 474 235 468 q 203 462 185 451 l 185 451 q 183 449 181 443 q 178 436 176 433 l 176 433 q 171 425 169 415 q 166 404 166 392 l 166 392 q 166 364 177 353 q 187 342 201 342 l 201 342 q 214 342 221 347 q 228 351 232 360 q 235 368 235 380 l 235 380 q 235 399 225 410 q 215 420 198 420 l 198 420 q 184 420 171 417 q 157 414 142 405 l 142 405 l 92 438 q 125 460 160 470 q 195 479 235 479 l 235 479 q 273 479 304 468 q 335 457 353 433 q 371 409 371 369 l 371 369 q 371 338 356 310 q 341 282 305 265 q 269 247 204 247 l 204 247 q 127 247 80 283 q 32 319 32 396 l 32 396 q 32 452 63 494 q 94 535 155 558 q 215 581 303 581 z"},"ഝ":{"ha":1740,"x_min":34,"x_max":1706,"o":"m 716 581 l 716 581 q 782 581 832 569 q 881 556 921 530 l 921 530 q 975 495 1002 438 q 1028 380 1028 293 l 1028 293 l 1028 250 q 1028 203 1033 176 q 1038 149 1054 133 l 1054 133 q 1063 125 1075 120 q 1086 115 1102 115 l 1102 115 q 1120 115 1132 120 q 1144 125 1154 135 l 1154 135 q 1168 149 1173 174 q 1177 198 1177 241 l 1177 241 l 1177 569 l 1353 569 l 1353 234 q 1353 194 1359 171 q 1364 148 1377 134 l 1377 134 q 1384 127 1396 121 q 1408 115 1424 115 l 1424 115 q 1449 115 1473 130 q 1496 144 1512 178 q 1527 212 1527 270 l 1527 270 q 1527 312 1518 350 q 1509 387 1491 426 q 1473 464 1446 506 l 1446 506 l 1582 581 q 1622 531 1650 483 q 1677 435 1692 383 q 1706 330 1706 267 l 1706 267 q 1706 186 1675 124 q 1644 61 1586 25 q 1527 -12 1444 -12 l 1444 -12 q 1383 -12 1340 6 q 1297 23 1255 62 l 1255 62 l 1276 69 q 1251 41 1223 23 q 1194 5 1161 -3 q 1127 -12 1085 -12 l 1085 -12 q 1036 -12 995 2 q 954 15 922 42 l 922 42 q 896 63 881 93 q 865 123 858 162 q 850 201 850 249 l 850 249 l 850 270 q 850 309 845 340 q 839 371 829 393 q 818 415 800 429 l 800 429 q 783 444 760 452 q 737 459 707 459 l 707 459 q 685 459 665 456 q 644 453 625 446 l 625 446 l 597 436 q 563 419 538 388 q 512 356 498 314 q 483 272 483 225 l 483 225 q 483 183 492 159 q 500 134 513 124 q 526 114 542 114 l 542 114 q 559 114 572 124 q 585 133 593 158 q 601 182 601 226 l 601 226 q 601 275 587 317 q 573 358 549 390 q 524 422 493 438 l 493 438 l 466 447 q 450 453 431 456 q 412 459 394 459 l 394 459 q 327 459 288 437 q 248 414 231 375 q 213 335 213 285 l 213 285 q 213 244 223 208 q 233 171 253 136 q 272 100 298 63 l 298 63 l 166 -12 q 127 27 98 72 q 68 116 51 170 q 34 223 34 289 l 34 289 q 34 337 51 388 q 67 439 106 483 q 145 527 212 554 q 279 581 381 581 l 381 581 q 443 581 495 569 q 547 557 595 531 l 595 531 l 622 496 q 695 453 736 390 q 777 327 777 223 l 777 223 q 777 144 750 92 q 723 39 671 14 q 619 -12 542 -12 l 542 -12 q 467 -12 415 16 q 362 43 335 97 q 307 150 307 226 l 307 226 q 307 289 326 339 q 345 388 382 427 q 418 465 469 496 l 469 496 l 495 526 q 546 554 599 568 q 652 581 716 581 z"},"ഞ":{"ha":1558,"x_min":33,"x_max":1524,"o":"m 390 581 l 390 581 q 475 581 535 558 q 595 535 646 481 l 646 481 l 672 389 l 701 231 l 701 0 l 525 0 l 525 283 q 525 346 516 378 q 507 409 484 428 l 484 428 q 468 441 444 448 q 420 455 387 455 l 387 455 q 335 455 290 432 q 245 408 218 361 q 191 314 191 243 l 191 243 l 191 238 q 191 184 200 156 q 208 127 222 117 q 236 107 252 107 l 252 107 q 267 107 277 114 q 286 120 292 135 q 297 149 297 173 l 297 173 q 297 208 284 225 q 270 241 247 241 l 247 241 q 218 241 195 222 q 171 203 134 159 l 134 159 l 111 277 q 148 311 192 335 q 236 358 294 358 l 294 358 q 353 358 391 336 q 429 313 448 273 q 467 233 467 181 l 467 181 q 467 121 444 78 q 420 34 374 11 q 327 -12 257 -12 l 257 -12 q 193 -12 143 14 q 92 40 63 97 q 33 153 33 245 l 33 245 q 33 354 80 429 q 126 504 207 543 q 288 581 390 581 z m 856 581 l 856 581 q 916 581 967 569 q 1017 557 1065 531 l 1065 531 l 1090 496 q 1163 453 1204 390 q 1245 327 1245 223 l 1245 223 q 1245 144 1218 92 q 1191 39 1139 14 q 1087 -12 1010 -12 l 1010 -12 q 935 -12 883 16 q 830 43 803 97 q 775 150 775 226 l 775 226 q 775 289 794 339 q 813 388 850 427 q 887 465 938 496 l 938 496 l 964 527 q 1016 554 1072 568 q 1128 581 1191 581 l 1191 581 q 1288 581 1353 555 q 1417 529 1455 487 q 1493 444 1509 392 q 1524 340 1524 288 l 1524 288 q 1524 224 1507 170 q 1490 116 1460 72 q 1430 27 1391 -12 l 1391 -12 l 1259 62 q 1285 98 1305 133 q 1324 167 1335 205 q 1345 242 1345 282 l 1345 282 q 1345 337 1328 377 q 1311 416 1275 438 q 1238 459 1180 459 l 1180 459 q 1156 459 1135 456 q 1114 453 1095 446 l 1095 446 l 1066 437 q 1032 420 1006 388 q 980 356 966 314 q 951 272 951 225 l 951 225 q 951 183 959 159 q 967 134 980 124 q 993 114 1009 114 l 1009 114 q 1026 114 1039 124 q 1052 133 1061 158 q 1069 182 1069 226 l 1069 226 q 1069 275 1055 317 q 1041 358 1017 390 q 992 422 960 438 l 960 438 l 934 447 q 923 452 907 455 q 891 457 876 458 q 861 459 850 459 l 850 459 q 814 459 790 452 q 765 444 748 430 l 748 430 q 723 410 712 374 q 701 338 701 273 l 701 273 l 701 20 l 544 20 l 544 232 l 577 466 q 605 498 641 524 q 676 550 728 566 q 780 581 856 581 z"},"ട":{"ha":597,"x_min":12,"x_max":578,"o":"m 294 581 l 294 581 q 386 581 457 562 q 527 543 578 517 l 578 517 l 507 406 q 455 428 408 441 q 360 454 301 454 l 301 454 q 266 454 246 447 q 225 439 216 428 q 206 416 206 400 l 206 400 q 206 388 211 380 q 216 371 223 366 l 223 366 q 233 358 254 355 q 274 352 306 352 l 306 352 l 319 352 q 391 352 436 340 q 480 328 512 304 l 512 304 q 540 282 556 250 q 571 218 571 174 l 571 174 q 571 120 543 78 q 514 36 454 12 q 393 -12 296 -12 l 296 -12 q 213 -12 143 5 q 72 21 12 51 l 12 51 l 82 167 q 121 147 154 136 q 186 125 218 120 q 249 115 284 115 l 284 115 q 324 115 347 122 q 370 129 380 143 q 390 156 390 173 l 390 173 q 390 185 386 194 q 382 202 375 208 l 375 208 q 364 217 346 221 q 328 224 294 224 l 294 224 l 279 224 q 211 224 160 236 q 109 247 75 277 l 75 277 q 51 297 39 327 q 26 356 26 397 l 26 397 q 26 451 55 492 q 84 533 144 557 q 203 581 294 581 z"},"ഠ":{"ha":693,"x_min":34,"x_max":659,"o":"m 345 581 l 345 581 q 446 581 517 545 q 587 508 623 442 q 659 375 659 284 l 659 284 q 659 193 623 127 q 586 60 517 24 q 447 -12 346 -12 l 346 -12 q 241 -12 172 27 q 102 65 68 133 q 34 200 34 286 l 34 286 q 34 377 71 443 q 107 509 177 545 q 246 581 345 581 z m 346 116 l 346 116 q 391 116 421 136 q 450 156 465 194 q 480 232 480 285 l 480 285 q 480 338 465 376 q 450 413 421 433 q 392 453 346 453 l 346 453 q 283 453 248 411 q 213 369 213 285 l 213 285 q 213 205 247 161 q 281 116 346 116 z"},"ഡ":{"ha":1275,"x_min":34,"x_max":1242,"o":"m 619 -12 l 619 -12 q 569 -12 528 2 q 486 15 454 41 l 454 41 q 429 63 413 93 q 396 122 389 162 q 381 202 381 255 l 381 255 l 381 326 q 381 368 376 395 q 371 422 355 437 l 355 437 q 347 446 335 450 q 323 454 306 454 l 306 454 q 282 454 261 440 q 239 426 226 393 q 213 359 213 300 l 213 300 q 213 256 222 218 q 231 180 250 143 q 268 105 295 62 l 295 62 l 158 -12 q 120 38 92 86 q 63 134 49 187 q 34 240 34 303 l 34 303 q 34 385 65 448 q 96 511 156 546 q 216 581 302 581 l 302 581 q 366 581 410 568 q 454 555 486 528 l 486 528 q 511 507 528 477 q 544 446 552 405 q 560 364 560 307 l 560 307 l 560 254 q 560 204 565 176 q 570 148 587 133 l 587 133 q 596 125 608 120 q 619 115 636 115 l 636 115 q 654 115 666 120 q 678 124 688 134 l 688 134 q 703 148 708 173 q 712 198 712 240 l 712 240 l 712 569 l 888 569 l 888 234 q 888 194 894 171 q 899 148 912 134 l 912 134 q 919 126 931 121 q 943 115 959 115 l 959 115 q 984 115 1008 130 q 1031 144 1047 178 q 1063 212 1063 270 l 1063 270 q 1063 312 1054 350 q 1045 387 1027 425 q 1008 463 981 506 l 981 506 l 1118 581 q 1157 531 1185 483 q 1213 434 1228 382 q 1242 330 1242 267 l 1242 267 q 1242 186 1211 123 q 1179 60 1121 24 q 1062 -12 979 -12 l 979 -12 q 918 -12 875 6 q 832 23 791 62 l 791 62 l 811 68 q 773 26 728 7 q 683 -12 619 -12 z"},"ഢ":{"ha":1413,"x_min":34,"x_max":1380,"o":"m 619 -12 l 619 -12 q 569 -12 528 2 q 486 15 454 42 l 454 42 q 429 63 413 93 q 396 122 389 162 q 381 202 381 256 l 381 256 l 381 327 q 381 369 376 396 q 371 422 355 437 l 355 437 q 347 446 335 451 q 323 455 306 455 l 306 455 q 282 455 261 441 q 239 427 226 394 q 213 360 213 300 l 213 300 q 213 257 222 219 q 231 181 250 143 q 268 105 295 63 l 295 63 l 158 -12 q 120 38 92 87 q 63 135 49 188 q 34 240 34 303 l 34 303 q 34 386 65 449 q 96 511 156 546 q 216 581 302 581 l 302 581 q 366 581 410 568 q 454 555 486 528 l 486 528 q 511 507 528 477 q 544 447 552 406 q 560 364 560 308 l 560 308 l 560 254 q 560 204 565 177 q 570 149 587 133 l 587 133 q 596 125 608 120 q 619 115 636 115 l 636 115 q 654 115 666 120 q 678 125 688 135 l 688 135 q 703 149 708 174 q 712 198 712 241 l 712 241 l 712 569 l 888 569 l 888 252 l 811 69 q 773 27 728 8 q 683 -12 619 -12 z m 1156 581 l 1156 581 q 1221 581 1271 555 q 1321 529 1351 473 q 1380 417 1380 324 l 1380 324 q 1380 216 1333 141 q 1286 66 1206 27 q 1125 -12 1023 -12 l 1023 -12 q 938 -12 878 11 q 818 33 768 88 l 768 88 l 728 281 l 728 542 l 888 542 l 888 286 q 888 224 897 192 q 906 160 929 141 l 929 141 q 945 128 969 121 q 993 114 1026 114 l 1026 114 q 1079 114 1124 138 q 1168 161 1195 209 q 1222 256 1222 326 l 1222 326 l 1222 331 q 1222 386 1214 414 q 1205 442 1191 452 q 1177 462 1161 462 l 1161 462 q 1147 462 1137 456 q 1127 449 1122 435 q 1116 420 1116 396 l 1116 396 q 1116 361 1130 345 q 1143 328 1166 328 l 1166 328 q 1195 328 1219 347 q 1242 366 1279 410 l 1279 410 l 1301 292 q 1265 258 1221 235 q 1177 211 1119 211 l 1119 211 q 1061 211 1023 234 q 984 256 965 296 q 946 336 946 388 l 946 388 q 946 449 969 492 q 992 535 1039 558 q 1086 581 1156 581 z"},"ണ":{"ha":1423,"x_min":33,"x_max":1389,"o":"m 390 581 l 390 581 q 475 581 535 558 q 594 535 645 480 l 645 480 l 597 500 q 631 539 675 560 q 718 581 780 581 l 780 581 q 833 581 876 564 q 918 546 958 500 l 958 500 l 938 507 q 980 546 1023 564 q 1066 581 1127 581 l 1127 581 q 1210 581 1269 545 q 1327 509 1358 446 q 1389 383 1389 302 l 1389 302 q 1389 239 1375 187 q 1360 134 1333 86 q 1305 38 1265 -13 l 1265 -13 l 1128 62 q 1156 105 1174 144 q 1192 182 1201 220 q 1210 258 1210 299 l 1210 299 q 1210 358 1195 392 q 1179 426 1155 440 q 1131 454 1106 454 l 1106 454 q 1090 454 1079 449 q 1067 443 1059 434 l 1059 434 q 1046 420 1041 398 q 1036 375 1036 335 l 1036 335 l 1036 0 l 860 0 l 860 327 q 860 370 854 395 q 848 420 834 435 l 834 435 q 825 444 812 449 q 798 454 780 454 l 780 454 q 763 454 750 449 q 736 443 727 434 l 727 434 q 713 419 707 394 q 701 368 701 321 l 701 321 l 701 0 l 525 0 l 525 283 q 525 346 516 378 q 507 409 484 428 l 484 428 q 468 441 444 448 q 420 455 387 455 l 387 455 q 335 455 290 432 q 245 408 218 361 q 191 314 191 243 l 191 243 l 191 238 q 191 184 200 156 q 208 127 222 117 q 236 107 252 107 l 252 107 q 267 107 277 114 q 286 120 292 135 q 297 149 297 173 l 297 173 q 297 208 284 225 q 270 241 247 241 l 247 241 q 218 241 195 222 q 171 203 134 159 l 134 159 l 111 277 q 148 311 192 335 q 236 358 294 358 l 294 358 q 353 358 391 336 q 429 313 448 273 q 467 233 467 181 l 467 181 q 467 120 444 77 q 420 34 374 11 q 327 -12 257 -12 l 257 -12 q 193 -12 143 14 q 92 40 63 97 q 33 153 33 245 l 33 245 q 33 354 80 429 q 126 504 207 543 q 288 581 390 581 z"},"ത":{"ha":1091,"x_min":34,"x_max":1057,"o":"m 542 -12 l 542 -12 q 467 -12 415 16 q 362 43 335 97 q 307 150 307 226 l 307 226 q 307 289 327 339 q 346 388 383 427 q 420 465 471 496 l 471 496 l 497 527 q 548 554 604 568 q 660 581 723 581 l 723 581 q 821 581 886 555 q 950 529 988 487 q 1025 444 1041 392 q 1057 340 1057 288 l 1057 288 q 1057 224 1040 170 q 1022 116 992 72 q 962 27 924 -12 l 924 -12 l 791 62 q 818 98 837 133 q 856 167 867 205 q 878 242 878 282 l 878 282 q 878 337 861 377 q 843 416 807 438 q 771 459 713 459 l 713 459 q 688 459 667 456 q 646 453 628 446 l 628 446 l 599 437 q 565 420 539 388 q 512 356 498 314 q 483 272 483 225 l 483 225 q 483 183 492 159 q 500 134 513 124 q 526 114 542 114 l 542 114 q 559 114 572 124 q 585 133 593 158 q 601 182 601 226 l 601 226 q 601 275 588 317 q 574 358 550 390 q 525 422 493 438 l 493 438 l 466 447 q 450 453 431 456 q 412 459 394 459 l 394 459 q 327 459 288 437 q 248 414 231 375 q 213 335 213 285 l 213 285 q 213 244 223 208 q 233 171 253 136 q 272 100 298 63 l 298 63 l 166 -12 q 127 27 98 72 q 68 116 51 170 q 34 223 34 289 l 34 289 q 34 337 51 388 q 67 439 106 483 q 145 527 212 554 q 279 581 381 581 l 381 581 q 443 581 495 569 q 547 557 595 531 l 595 531 l 622 496 q 695 453 736 390 q 777 327 777 223 l 777 223 q 777 144 751 92 q 724 39 672 14 q 619 -12 542 -12 z"},"ഥ":{"ha":933,"x_min":52,"x_max":883,"o":"m 52 569 l 228 569 l 228 126 l 388 126 l 388 0 l 52 0 l 52 569 z m 610 581 l 610 581 q 675 581 726 564 q 777 547 812 513 l 812 513 q 850 476 867 427 q 883 377 883 299 l 883 299 l 883 0 l 335 0 l 335 299 q 335 352 343 391 q 351 430 368 460 q 384 490 409 514 l 409 514 q 445 548 496 565 q 546 581 610 581 z m 611 453 l 611 453 q 587 453 570 447 q 553 440 540 426 l 540 426 q 524 407 518 377 q 511 347 511 295 l 511 295 l 511 126 l 707 126 l 707 294 q 707 346 702 377 q 696 408 680 426 l 680 426 q 668 440 653 447 q 637 453 611 453 z"},"ദ":{"ha":688,"x_min":37,"x_max":658,"o":"m 403 581 l 403 581 q 490 581 544 559 q 598 537 623 500 q 648 463 648 418 l 648 418 q 648 370 629 337 q 609 304 561 281 l 561 281 l 563 287 q 611 269 635 232 q 658 195 658 148 l 658 148 q 658 70 605 29 q 551 -12 445 -12 l 445 -12 q 412 -12 381 -8 q 349 -4 321 2 l 321 2 l 344 123 q 364 118 381 116 q 398 114 417 114 l 417 114 q 451 114 467 126 q 482 137 482 163 l 482 163 q 482 178 477 188 q 471 198 460 205 l 460 205 q 448 213 431 216 q 414 219 384 219 l 384 219 l 344 219 l 344 342 l 381 342 q 410 342 427 346 q 444 350 454 358 l 454 358 q 464 365 468 375 q 472 384 472 398 l 472 398 q 472 424 453 440 q 434 455 396 455 l 396 455 q 338 455 298 425 q 257 395 237 342 q 216 288 216 217 l 216 217 q 216 167 223 119 q 229 71 241 29 l 241 29 l 74 -4 q 57 46 47 108 q 37 170 37 225 l 37 225 q 37 334 78 414 q 118 493 199 537 q 280 581 403 581 z"},"ധ":{"ha":956,"x_min":34,"x_max":922,"o":"m 653 -12 l 653 -12 q 615 -12 584 -4 q 553 3 526 18 q 499 33 472 58 l 472 58 l 488 62 q 446 23 403 6 q 359 -12 298 -12 l 298 -12 q 215 -12 156 24 q 96 60 65 123 q 34 186 34 267 l 34 267 q 34 330 49 383 q 63 435 92 483 q 120 531 158 582 l 158 582 l 295 507 q 268 464 250 427 q 231 389 222 351 q 213 313 213 270 l 213 270 q 213 212 229 178 q 244 144 269 130 q 293 115 319 115 l 319 115 q 336 115 348 121 q 359 126 367 134 l 367 134 q 380 147 386 170 q 391 192 391 234 l 391 234 l 391 569 l 567 569 l 567 239 q 567 198 572 173 q 576 148 589 134 l 589 134 q 596 126 608 121 q 620 115 638 115 l 638 115 q 664 115 688 130 q 712 145 728 179 q 743 213 743 268 l 743 268 q 743 310 734 349 q 725 387 707 426 q 689 464 661 507 l 661 507 l 799 582 q 840 531 868 482 q 895 433 909 382 q 922 330 922 268 l 922 268 q 922 190 892 127 q 862 63 802 26 q 742 -12 653 -12 z"},"ന":{"ha":956,"x_min":34,"x_max":922,"o":"m 303 581 l 303 581 q 342 581 373 574 q 403 566 431 551 q 458 536 485 511 l 485 511 l 468 507 q 510 546 554 564 q 597 581 658 581 l 658 581 q 742 581 801 545 q 860 509 891 446 q 922 383 922 302 l 922 302 q 922 239 908 187 q 893 134 866 86 q 838 38 798 -13 l 798 -13 l 661 62 q 689 105 707 143 q 725 180 734 218 q 743 256 743 299 l 743 299 q 743 357 728 391 q 713 425 689 440 q 664 454 638 454 l 638 454 q 621 454 609 449 q 597 444 589 435 l 589 435 q 577 422 572 400 q 566 377 566 335 l 566 335 l 566 0 l 390 0 l 390 330 q 390 372 386 397 q 381 421 368 435 l 368 435 q 360 443 348 449 q 336 454 318 454 l 318 454 q 293 454 269 439 q 245 424 229 391 q 213 357 213 301 l 213 301 q 213 259 222 221 q 231 182 249 144 q 267 106 295 62 l 295 62 l 157 -13 q 116 38 89 87 q 62 136 48 188 q 34 240 34 301 l 34 301 q 34 380 65 443 q 95 506 155 544 q 215 581 303 581 z"},"ഩ":{"ha":1091,"x_min":33,"x_max":1057,"o":"m 390 581 l 390 581 q 475 581 535 558 q 594 535 645 480 l 645 480 l 596 503 q 640 546 686 564 q 732 581 793 581 l 793 581 q 877 581 936 545 q 995 509 1026 446 q 1057 383 1057 302 l 1057 302 q 1057 239 1043 187 q 1028 134 1001 86 q 973 38 933 -13 l 933 -13 l 796 62 q 824 105 842 143 q 860 180 869 218 q 878 256 878 299 l 878 299 q 878 357 863 391 q 848 425 824 440 q 799 454 773 454 l 773 454 q 756 454 744 449 q 732 444 724 435 l 724 435 q 712 422 707 400 q 701 377 701 335 l 701 335 l 701 0 l 525 0 l 525 283 q 525 346 516 378 q 507 409 484 428 l 484 428 q 468 441 444 448 q 420 455 387 455 l 387 455 q 335 455 290 432 q 245 408 218 361 q 191 314 191 243 l 191 243 l 191 238 q 191 184 200 156 q 208 127 222 117 q 236 107 252 107 l 252 107 q 267 107 277 114 q 286 120 292 135 q 297 149 297 173 l 297 173 q 297 208 284 225 q 270 241 247 241 l 247 241 q 218 241 195 222 q 171 203 134 159 l 134 159 l 111 277 q 148 311 192 335 q 236 358 294 358 l 294 358 q 353 358 391 336 q 429 313 448 273 q 467 233 467 181 l 467 181 q 467 121 444 78 q 420 34 374 11 q 327 -12 257 -12 l 257 -12 q 193 -12 143 14 q 92 40 63 97 q 33 153 33 245 l 33 245 q 33 354 80 429 q 126 504 207 543 q 288 581 390 581 z"},"പ":{"ha":931,"x_min":27,"x_max":878,"o":"m 264 372 l 264 372 q 348 372 399 343 q 449 314 473 270 q 496 225 496 178 l 496 178 q 496 154 490 127 q 483 99 471 77 l 471 77 l 471 126 l 702 126 l 702 569 l 878 569 l 878 0 l 357 0 l 300 71 q 310 88 319 112 q 328 136 328 167 l 328 167 q 328 199 314 223 q 300 247 266 247 l 266 247 q 244 247 230 237 q 215 226 209 208 q 202 189 202 166 l 202 166 q 202 131 213 103 q 224 74 241 44 l 241 44 l 104 -13 q 70 26 49 72 q 27 117 27 174 l 27 174 q 27 235 57 280 q 86 324 140 348 q 193 372 264 372 z"},"ഫ":{"ha":1176,"x_min":27,"x_max":1127,"o":"m 264 372 l 264 372 q 348 372 399 343 q 449 314 473 270 q 496 225 496 178 l 496 178 q 496 154 490 127 q 483 99 471 77 l 471 77 l 471 126 l 685 126 l 685 0 l 357 0 l 300 71 q 310 88 319 112 q 328 136 328 167 l 328 167 q 328 199 314 223 q 300 247 266 247 l 266 247 q 244 247 230 237 q 215 226 209 208 q 202 189 202 166 l 202 166 q 202 131 213 103 q 224 74 241 44 l 241 44 l 104 -13 q 70 26 49 72 q 27 117 27 174 l 27 174 q 27 235 57 280 q 86 324 140 348 q 193 372 264 372 z m 854 581 l 854 581 q 919 581 970 564 q 1020 547 1056 513 l 1056 513 q 1094 476 1111 427 q 1127 377 1127 299 l 1127 299 l 1127 0 l 579 0 l 579 299 q 579 352 587 391 q 594 430 611 460 q 628 490 653 514 l 653 514 q 689 548 740 565 q 790 581 854 581 z m 855 453 l 855 453 q 831 453 814 447 q 797 440 784 426 l 784 426 q 767 407 761 377 q 755 347 755 295 l 755 295 l 755 126 l 951 126 l 951 294 q 951 346 946 377 q 940 408 924 426 l 924 426 q 912 440 897 447 q 881 453 855 453 z"},"ബ":{"ha":1391,"x_min":33,"x_max":1339,"o":"m 390 581 l 390 581 q 475 581 535 558 q 594 535 645 480 l 645 480 l 676 404 l 701 317 l 701 0 l 525 0 l 525 283 q 525 346 516 378 q 507 409 484 428 l 484 428 q 468 441 444 448 q 420 455 387 455 l 387 455 q 335 455 290 432 q 245 408 218 361 q 191 314 191 243 l 191 243 l 191 238 q 191 184 200 156 q 208 127 222 117 q 236 107 252 107 l 252 107 q 267 107 277 114 q 286 120 292 135 q 297 149 297 173 l 297 173 q 297 208 284 225 q 270 241 247 241 l 247 241 q 218 241 195 222 q 171 203 134 159 l 134 159 l 111 277 q 148 311 192 335 q 236 358 294 358 l 294 358 q 353 358 391 336 q 429 313 448 273 q 467 233 467 181 l 467 181 q 467 121 444 78 q 420 34 374 11 q 327 -12 257 -12 l 257 -12 q 193 -12 143 14 q 92 40 63 97 q 33 153 33 245 l 33 245 q 33 354 80 429 q 126 504 207 543 q 288 581 390 581 z m 1163 569 l 1339 569 l 1339 0 l 861 0 l 803 68 q 830 114 847 152 q 863 190 871 225 q 878 260 878 299 l 878 299 q 878 357 863 391 q 848 425 824 440 q 799 454 773 454 l 773 454 q 756 454 744 449 q 732 444 724 435 l 724 435 q 712 422 707 400 q 701 377 701 335 l 701 335 l 701 10 l 545 10 l 545 232 l 580 424 l 596 503 q 640 546 686 564 q 732 581 793 581 l 793 581 q 877 581 936 545 q 995 509 1026 446 q 1057 383 1057 302 l 1057 302 q 1057 262 1051 229 q 1045 195 1032 165 q 1019 134 998 104 l 998 104 l 964 126 l 1163 126 l 1163 569 z"},"ഭ":{"ha":727,"x_min":37,"x_max":700,"o":"m 435 581 l 435 581 q 518 581 577 563 q 636 545 668 510 q 700 474 700 421 l 700 421 q 700 390 690 366 q 680 342 660 327 l 660 327 q 636 309 603 304 q 570 299 522 299 l 522 299 l 495 299 q 479 299 471 298 q 463 296 458 293 l 458 293 q 454 290 452 287 q 449 283 449 277 l 449 277 q 449 263 463 260 q 476 256 494 256 l 494 256 l 514 256 q 560 256 593 250 q 625 244 650 226 l 650 226 q 672 212 685 188 q 698 164 698 129 l 698 129 q 698 90 677 58 q 656 26 609 7 q 562 -12 484 -12 l 484 -12 q 441 -12 406 -8 q 371 -5 341 2 q 310 9 278 20 l 278 20 l 329 131 q 368 118 400 113 q 432 108 470 108 l 470 108 q 508 108 523 113 q 537 118 537 131 l 537 131 q 537 141 529 146 q 521 150 503 150 l 503 150 l 487 150 q 421 150 384 159 q 347 167 322 189 l 322 189 q 306 205 297 227 q 288 248 288 276 l 288 276 q 288 308 300 331 q 312 353 332 368 l 332 368 q 359 388 396 396 q 432 404 483 404 l 483 404 l 499 404 q 522 404 529 410 q 535 416 535 424 l 535 424 q 535 441 509 449 q 483 457 437 457 l 437 457 q 359 457 310 429 q 261 400 239 347 q 216 293 216 217 l 216 217 q 216 167 223 119 q 229 71 241 29 l 241 29 l 74 -4 q 57 46 47 108 q 37 170 37 225 l 37 225 q 37 335 78 415 q 118 495 206 538 q 294 581 435 581 z"},"മ":{"ha":792,"x_min":48,"x_max":744,"o":"m 386 581 l 386 581 q 475 581 541 563 q 606 544 651 507 l 651 507 q 681 481 702 448 q 723 415 734 368 q 744 320 744 248 l 744 248 l 744 0 l 48 0 l 48 246 q 48 318 60 367 q 71 416 93 451 q 115 485 146 510 l 146 510 q 189 546 250 564 q 310 581 386 581 z m 304 449 l 304 449 q 286 449 273 440 q 260 431 250 416 l 250 416 q 237 395 230 361 q 223 327 223 261 l 223 261 l 223 68 l 175 68 q 222 117 261 169 q 299 221 323 276 q 346 331 346 387 l 346 387 q 346 407 342 421 q 337 434 328 442 q 319 449 304 449 z m 519 359 l 519 359 q 519 314 506 274 q 492 233 468 195 q 443 156 410 117 l 410 117 l 397 121 q 417 124 439 125 q 461 125 484 125 l 484 125 l 570 125 l 570 255 q 570 319 560 360 q 549 400 528 425 q 507 449 473 463 l 473 463 l 473 472 q 496 451 508 424 q 519 396 519 359 z"},"യ":{"ha":1097,"x_min":31,"x_max":1061,"o":"m 699 -12 l 699 -12 q 647 -12 597 0 q 546 11 502 34 l 502 34 q 494 39 486 48 q 478 56 469 61 l 469 61 q 421 91 385 133 q 349 174 330 227 q 310 279 310 342 l 310 342 q 310 383 321 417 q 331 451 348 478 l 348 478 l 371 509 q 390 533 417 549 q 444 565 478 573 q 512 581 551 581 l 551 581 q 667 581 730 518 q 793 454 793 340 l 793 340 q 793 243 749 173 q 704 102 633 59 l 633 59 q 625 54 617 47 q 608 40 599 35 l 599 35 q 551 12 501 0 q 450 -12 396 -12 l 396 -12 q 302 -12 234 14 q 165 40 120 87 q 75 133 53 195 q 31 257 31 330 l 31 330 q 31 403 60 460 q 88 516 145 549 q 201 581 285 581 l 285 581 q 350 581 403 554 q 456 527 490 466 l 490 466 l 364 403 q 345 432 327 444 q 309 456 287 456 l 287 456 q 263 456 245 442 q 227 428 217 401 q 207 374 207 334 l 207 334 q 207 268 230 218 q 253 167 297 138 q 341 109 401 109 l 401 109 q 423 109 443 113 q 463 116 481 123 l 481 123 q 489 126 498 128 q 507 129 515 133 l 515 133 q 547 153 570 186 q 592 218 605 259 q 617 299 617 343 l 617 343 q 617 384 608 409 q 599 434 584 445 q 569 455 552 455 l 552 455 q 534 455 519 445 q 504 435 495 411 q 486 386 486 342 l 486 342 q 486 302 498 262 q 509 222 530 189 q 551 156 580 135 l 580 135 q 590 130 601 128 q 612 125 624 121 l 624 121 q 640 116 659 113 q 677 109 697 109 l 697 109 q 755 109 796 133 q 837 156 859 202 q 881 248 881 316 l 881 316 q 881 360 869 408 q 856 455 824 508 l 824 508 l 968 580 q 1017 515 1039 450 q 1061 384 1061 315 l 1061 315 q 1061 256 1045 198 q 1028 140 988 93 q 948 45 878 17 q 807 -12 699 -12 z"},"ര":{"ha":793,"x_min":34,"x_max":762,"o":"m 388 581 l 388 581 q 484 581 555 553 q 626 525 672 478 q 718 430 740 368 q 762 306 762 237 l 762 237 q 762 155 735 100 q 708 44 655 16 q 601 -12 522 -12 l 522 -12 q 444 -12 396 18 q 347 47 325 97 q 302 146 302 204 l 302 204 q 302 301 352 355 q 402 409 492 409 l 492 409 q 549 409 590 380 q 631 350 656 305 q 681 259 686 211 l 686 211 l 618 208 q 613 232 603 252 q 592 272 576 284 q 559 296 535 296 l 535 296 q 505 296 489 275 q 472 253 472 204 l 472 204 q 472 171 479 151 q 486 131 499 122 q 511 113 526 113 l 526 113 q 547 113 561 125 q 575 137 583 165 q 590 192 590 238 l 590 238 q 590 256 589 273 q 587 290 585 305 l 585 305 q 584 309 585 318 q 586 326 585 330 l 585 330 q 580 363 556 391 q 532 419 492 436 q 452 453 398 453 l 398 453 q 338 453 297 434 q 256 414 236 376 q 215 338 215 284 l 215 284 q 215 242 226 205 q 236 168 255 133 q 274 98 302 62 l 302 62 l 167 -13 q 128 26 98 71 q 68 115 51 169 q 34 223 34 289 l 34 289 q 34 343 53 395 q 72 447 114 489 q 156 531 224 556 q 291 581 388 581 z"},"റ":{"ha":715,"x_min":34,"x_max":681,"o":"m 357 581 l 357 581 q 448 581 511 556 q 573 530 611 488 q 648 446 665 394 q 681 342 681 288 l 681 288 q 681 223 664 170 q 647 116 617 71 q 586 26 547 -13 l 547 -13 l 412 62 q 440 98 460 134 q 479 169 490 207 q 500 244 500 286 l 500 286 q 500 337 484 375 q 467 412 436 433 q 405 453 359 453 l 359 453 q 317 453 284 434 q 251 415 233 378 q 215 340 215 286 l 215 286 q 215 243 226 206 q 236 169 255 134 q 274 99 302 62 l 302 62 l 166 -13 q 127 26 97 71 q 67 115 51 169 q 34 223 34 289 l 34 289 q 34 339 51 390 q 67 441 105 485 q 142 528 204 555 q 266 581 357 581 z"},"ല":{"ha":896,"x_min":49,"x_max":844,"o":"m 668 569 l 844 569 l 844 0 l 49 0 l 49 300 q 49 382 69 433 q 89 484 126 518 l 126 518 q 160 549 208 565 q 255 581 318 581 l 318 581 q 384 581 432 565 q 480 548 512 516 l 512 516 q 548 482 566 432 q 584 381 584 300 l 584 300 l 584 209 l 224 209 l 224 126 l 668 126 l 668 569 z m 317 455 l 317 455 q 268 455 246 425 q 224 395 224 343 l 224 343 l 224 334 l 409 334 l 409 343 q 409 396 386 426 q 362 455 317 455 z"},"ള":{"ha":760,"x_min":31,"x_max":731,"o":"m 396 458 l 396 458 q 353 458 319 454 q 284 449 258 440 q 232 431 214 419 q 195 407 184 393 l 184 393 q 177 383 178 376 q 178 368 176 357 l 176 357 q 175 350 174 338 q 173 325 173 313 l 173 313 q 173 278 186 262 q 198 245 219 245 l 219 245 q 241 245 251 259 q 261 272 261 292 l 261 292 q 261 308 256 318 q 250 328 240 333 q 230 337 217 337 l 217 337 q 198 337 180 330 q 162 323 139 307 l 139 307 l 86 353 q 104 371 132 389 q 159 406 193 418 q 226 430 262 430 l 262 430 q 313 430 348 412 q 383 394 401 363 q 419 331 419 289 l 419 289 q 419 248 402 213 q 384 178 342 157 q 299 135 224 135 l 224 135 q 168 135 125 157 q 81 178 56 221 q 31 264 31 327 l 31 327 q 31 376 52 422 q 72 467 117 503 q 162 539 234 560 q 306 581 409 581 l 409 581 q 513 581 582 561 q 651 540 686 502 q 721 463 721 409 l 721 409 q 721 362 695 329 q 669 296 620 277 q 570 258 497 253 l 497 253 l 462 323 l 462 345 l 469 345 q 489 345 505 348 q 520 351 529 358 l 529 358 q 537 364 541 373 q 545 381 545 393 l 545 393 q 545 413 529 428 q 512 443 479 451 q 446 458 396 458 z m 731 161 l 731 161 q 731 119 715 90 q 699 60 675 41 l 675 41 q 654 24 626 16 q 598 7 562 4 q 525 0 476 0 l 476 0 l 306 0 q 271 0 256 -1 q 241 -3 232 -8 l 232 -8 q 222 -13 217 -20 q 212 -27 212 -37 l 212 -37 q 212 -47 216 -54 q 220 -62 227 -67 l 227 -67 q 237 -73 254 -76 q 271 -79 307 -79 l 307 -79 l 717 -79 l 717 -206 l 303 -206 q 233 -206 190 -199 q 147 -193 113 -176 l 113 -176 q 78 -158 57 -125 q 35 -92 35 -43 l 35 -43 q 35 1 51 32 q 67 63 95 82 l 95 82 q 119 99 147 108 q 175 117 213 121 q 250 125 302 125 l 302 125 l 459 125 q 492 125 510 128 q 528 130 539 138 l 539 138 q 547 144 551 153 q 555 162 555 175 l 555 175 q 555 189 549 199 q 543 208 532 214 l 532 214 q 522 220 508 222 q 494 224 472 224 l 472 224 l 462 224 l 462 337 l 596 305 q 668 288 700 250 q 731 211 731 161 z"},"ഴ":{"ha":719,"x_min":29,"x_max":690,"o":"m 261 415 l 261 415 q 261 488 312 535 q 363 581 465 581 l 465 581 q 548 581 597 554 q 646 526 668 483 q 690 440 690 392 l 690 392 q 690 322 659 270 q 627 217 563 188 q 499 158 401 158 l 401 158 l 342 158 q 247 158 177 187 q 106 216 68 272 q 29 327 29 404 l 29 404 q 29 448 45 493 q 60 538 88 581 l 88 581 l 234 516 q 221 489 214 464 q 207 438 207 411 l 207 411 q 207 365 225 333 q 243 301 278 285 q 312 269 359 269 l 359 269 l 382 269 q 429 269 459 286 q 488 302 503 333 q 517 363 517 403 l 517 403 q 517 432 506 448 q 494 464 472 464 l 472 464 q 459 464 450 458 q 440 451 435 440 q 430 428 430 413 l 430 413 q 430 382 443 351 q 455 320 471 288 q 487 255 500 219 q 512 183 512 140 l 512 140 q 512 101 496 67 q 479 32 438 10 q 397 -12 322 -12 l 322 -12 q 273 -12 229 -5 q 184 2 138 20 l 138 20 l 189 136 q 217 123 241 119 q 264 115 290 115 l 290 115 q 319 115 332 129 q 344 142 344 159 l 344 159 q 344 187 332 216 q 319 244 303 276 q 286 308 274 342 q 261 376 261 415 z"},"വ":{"ha":1007,"x_min":34,"x_max":954,"o":"m 357 581 l 357 581 q 448 581 510 556 q 571 530 609 489 q 646 447 663 395 q 679 343 679 291 l 679 291 q 679 235 665 193 q 651 151 624 114 q 597 76 559 35 l 559 35 l 606 126 l 778 126 l 778 569 l 954 569 l 954 0 l 490 0 l 425 80 q 446 108 463 140 q 480 171 490 208 q 500 244 500 286 l 500 286 q 500 337 484 375 q 467 412 436 433 q 405 454 359 454 l 359 454 q 317 454 284 435 q 251 415 233 378 q 215 340 215 286 l 215 286 q 215 243 226 206 q 236 168 255 133 q 274 98 302 62 l 302 62 l 166 -13 q 127 26 97 71 q 67 115 51 169 q 34 223 34 289 l 34 289 q 34 339 51 390 q 67 441 105 485 q 142 528 204 555 q 266 581 357 581 z"},"ശ":{"ha":1105,"x_min":34,"x_max":1074,"o":"m 704 581 l 704 581 q 798 581 868 553 q 938 525 984 478 q 1029 430 1052 368 q 1074 306 1074 237 l 1074 237 q 1074 155 1047 100 q 1020 44 967 16 q 913 -12 834 -12 l 834 -12 q 756 -12 707 18 q 658 47 636 97 q 614 146 614 204 l 614 204 q 614 301 664 355 q 713 409 804 409 l 804 409 q 860 409 902 380 q 943 350 968 305 q 992 259 998 211 l 998 211 l 929 208 q 925 232 914 252 q 903 272 887 284 q 870 296 847 296 l 847 296 q 816 296 800 275 q 784 253 784 204 l 784 204 q 784 171 791 151 q 798 131 810 122 q 822 113 837 113 l 837 113 q 859 113 873 125 q 887 137 894 165 q 901 192 901 238 l 901 238 q 901 256 900 273 q 899 290 897 305 l 897 305 q 896 309 897 318 q 898 326 897 330 l 897 330 q 892 363 868 391 q 844 419 805 436 q 766 453 714 453 l 714 453 q 676 453 650 446 q 623 439 605 424 l 605 424 q 576 402 566 365 q 555 327 555 267 l 555 267 l 555 244 q 555 170 537 121 q 519 72 483 41 l 483 41 q 451 14 406 1 q 360 -12 300 -12 l 300 -12 q 214 -12 155 23 q 96 58 65 121 q 34 184 34 266 l 34 266 q 34 329 49 382 q 63 435 92 483 q 120 531 158 581 l 158 581 l 295 507 q 268 464 250 427 q 231 389 222 351 q 213 313 213 269 l 213 269 q 213 211 226 177 q 238 143 260 129 q 281 115 305 115 l 305 115 q 321 115 333 119 q 344 123 353 132 l 353 132 q 365 145 370 167 q 375 189 375 233 l 375 233 l 375 281 q 375 369 401 427 q 427 485 475 519 l 475 519 q 519 551 576 566 q 633 581 704 581 z"},"ഷ":{"ha":1243,"x_min":27,"x_max":1191,"o":"m 264 372 l 264 372 q 348 372 399 343 q 449 314 473 270 q 496 225 496 178 l 496 178 q 496 154 490 127 q 483 99 471 77 l 471 77 l 471 126 l 726 126 l 728 0 l 357 0 l 300 71 q 310 88 319 112 q 328 136 328 167 l 328 167 q 328 199 314 223 q 300 247 266 247 l 266 247 q 244 247 230 237 q 215 226 209 208 q 202 189 202 166 l 202 166 q 202 131 213 103 q 224 74 241 44 l 241 44 l 104 -13 q 70 26 49 72 q 27 117 27 174 l 27 174 q 27 235 57 280 q 86 324 140 348 q 193 372 264 372 z m 1191 0 l 695 0 l 695 397 q 695 415 694 427 q 692 439 687 445 l 687 445 q 683 451 678 454 q 672 457 663 457 l 663 457 q 648 457 638 446 q 628 434 628 411 l 628 411 q 628 392 635 377 q 641 361 660 352 q 679 342 714 342 l 714 342 l 776 342 q 825 342 864 364 q 902 386 931 421 q 960 455 982 495 q 1003 535 1019 569 l 1019 569 l 1191 569 l 1191 0 z m 668 581 l 668 581 q 715 581 750 571 q 784 560 808 540 l 808 540 q 838 516 853 477 q 867 437 867 379 l 867 379 l 867 126 l 1019 126 l 1019 258 q 1019 282 1020 306 q 1021 330 1023 349 q 1025 368 1027 379 l 1027 379 l 1029 365 q 1005 318 966 286 q 927 254 883 238 q 838 222 795 222 l 795 222 l 722 222 q 626 222 571 249 q 516 275 493 318 q 469 361 469 411 l 469 411 q 469 456 492 495 q 514 533 559 557 q 603 581 668 581 z"},"സ":{"ha":1275,"x_min":34,"x_max":1242,"o":"m 656 581 l 656 581 q 707 581 749 568 q 790 554 821 528 l 821 528 q 847 506 864 477 q 880 447 887 407 q 894 367 894 314 l 894 314 l 894 243 q 894 201 900 174 q 905 147 920 132 l 920 132 q 929 123 942 119 q 954 115 970 115 l 970 115 q 995 115 1016 129 q 1037 143 1050 177 q 1063 211 1063 269 l 1063 269 q 1063 313 1054 351 q 1045 389 1027 427 q 1008 464 980 507 l 980 507 l 1117 581 q 1157 531 1185 483 q 1212 435 1227 382 q 1242 329 1242 266 l 1242 266 q 1242 184 1211 121 q 1179 58 1120 23 q 1060 -12 973 -12 l 973 -12 q 910 -12 867 1 q 823 14 790 41 l 790 41 q 764 63 748 93 q 731 123 724 165 q 716 206 716 262 l 716 262 l 716 315 q 716 365 711 393 q 705 421 689 436 l 689 436 q 680 444 669 449 q 657 454 639 454 l 639 454 q 622 454 610 450 q 597 445 587 435 l 587 435 q 573 421 569 397 q 564 372 564 329 l 564 329 l 564 0 l 387 0 l 387 335 q 387 375 383 398 q 378 421 364 435 l 364 435 q 356 444 345 449 q 333 454 317 454 l 317 454 q 292 454 268 440 q 244 425 229 391 q 213 357 213 299 l 213 299 q 213 258 222 220 q 231 182 249 144 q 267 106 295 63 l 295 63 l 158 -12 q 119 39 91 87 q 63 135 49 187 q 34 239 34 302 l 34 302 q 34 383 65 446 q 96 509 155 545 q 214 581 297 581 l 297 581 q 357 581 400 564 q 443 546 485 507 l 485 507 l 464 501 q 503 543 548 562 q 593 581 656 581 z"},"ഹ":{"ha":1251,"x_min":27,"x_max":1218,"o":"m 264 372 l 264 372 q 348 372 399 343 q 449 314 473 270 q 496 225 496 178 l 496 178 q 496 154 490 127 q 483 99 471 77 l 471 77 l 471 126 l 713 126 l 728 0 l 357 0 l 300 71 q 310 88 319 112 q 328 136 328 167 l 328 167 q 328 199 314 223 q 300 247 266 247 l 266 247 q 244 247 230 237 q 215 226 209 208 q 202 189 202 166 l 202 166 q 202 131 213 103 q 224 74 241 44 l 241 44 l 104 -13 q 70 26 49 72 q 27 117 27 174 l 27 174 q 27 235 57 280 q 86 324 140 348 q 193 372 264 372 z m 894 581 l 894 581 q 985 581 1048 556 q 1110 530 1147 488 q 1184 446 1201 394 q 1218 342 1218 288 l 1218 288 q 1218 224 1201 171 q 1184 118 1154 73 q 1124 28 1083 -13 l 1083 -13 l 949 62 q 976 98 996 134 q 1015 169 1026 207 q 1036 244 1036 286 l 1036 286 q 1036 337 1020 375 q 1003 412 972 433 q 941 453 895 453 l 895 453 q 853 453 821 434 q 788 415 770 378 q 751 340 751 286 l 751 286 q 751 245 761 210 q 770 175 787 143 q 804 111 825 80 l 825 80 l 761 0 l 692 0 l 664 65 q 635 98 614 132 q 593 166 582 205 q 571 244 571 292 l 571 292 q 571 340 587 391 q 603 442 640 485 q 677 528 740 555 q 802 581 894 581 z"},"ഺ":{"ha":725,"x_min":14,"x_max":706,"o":"m 212 126 l 706 126 l 706 0 l 485 0 l 485 -202 l 309 -202 l 309 0 l 98 0 l 14 105 l 193 576 l 364 520 l 212 126 z"},"഻":{"ha":0,"x_min":-335,"x_max":-222,"o":"m -335 603 l -335 864 l -222 864 l -222 603 l -335 603 z"},"഼":{"ha":0,"x_min":-291,"x_max":17,"o":"m -291 728 l -291 728 q -291 787 -251 826 q -211 864 -138 864 l -138 864 q -64 864 -23 826 q 17 787 17 729 l 17 729 q 17 670 -23 632 q -63 593 -138 593 l -138 593 q -213 593 -252 632 q -291 670 -291 728 z m -178 728 l -178 728 q -178 708 -168 696 q -158 684 -138 684 l -138 684 q -117 684 -106 697 q -96 709 -96 729 l -96 729 q -96 750 -107 762 q -118 773 -138 773 l -138 773 q -158 773 -168 761 q -178 749 -178 728 z"},"ഽ":{"ha":510,"x_min":-73,"x_max":583,"o":"m 385 805 l 385 805 q 449 805 488 782 q 526 759 548 723 q 570 686 583 644 l 583 644 l 433 613 q 427 638 421 653 q 415 667 407 673 q 398 679 386 679 l 386 679 q 378 679 371 677 q 364 674 360 669 l 360 669 q 350 658 347 639 q 344 619 344 576 l 344 576 l 344 44 q 344 -38 332 -94 q 319 -151 280 -190 l 280 -190 q 254 -215 216 -229 q 178 -244 125 -244 l 125 -244 q 62 -244 23 -221 q -16 -198 -37 -161 q -59 -125 -73 -83 l -73 -83 l 77 -52 q 83 -77 90 -91 q 96 -106 105 -112 q 113 -118 124 -118 l 124 -118 q 132 -118 139 -115 q 146 -113 151 -108 l 151 -108 q 160 -97 163 -77 q 166 -58 166 -15 l 166 -15 l 166 517 q 166 599 179 656 q 191 712 230 751 l 230 751 q 257 777 295 791 q 332 805 385 805 z"},"ാ":{"ha":562,"x_min":14,"x_max":528,"o":"m 528 287 l 528 287 q 528 223 516 168 q 503 113 474 73 q 444 33 394 11 q 343 -12 267 -12 l 267 -12 q 196 -12 151 5 q 105 22 78 51 q 51 80 37 115 q 22 150 14 186 l 14 186 l 194 217 q 201 185 210 162 q 219 139 234 127 q 248 114 271 114 l 271 114 q 298 114 315 134 q 332 153 340 192 q 347 230 347 286 l 347 286 q 347 341 340 378 q 332 415 316 435 q 299 455 272 455 l 272 455 q 251 455 236 443 q 221 430 212 407 q 203 384 196 352 l 196 352 l 16 384 q 27 421 45 456 q 63 491 92 520 q 121 548 166 565 q 210 581 276 581 l 276 581 q 349 581 398 558 q 447 534 476 493 q 504 452 516 399 q 528 346 528 287 z"},"ി":{"ha":281,"x_min":-247,"x_max":229,"o":"m -17 853 l -17 853 q 30 853 68 842 q 106 831 134 811 l 134 811 q 169 787 190 752 q 210 716 220 667 q 229 618 229 554 l 229 554 l 229 0 l 52 0 l 52 536 q 52 587 50 621 q 48 654 42 675 q 35 696 24 709 l 24 709 q 16 718 6 723 q -5 727 -20 727 l -20 727 q -35 727 -47 721 q -59 714 -65 702 q -71 690 -71 673 l -71 673 q -71 664 -69 655 q -68 645 -66 638 l -66 638 l -239 618 q -242 630 -244 645 q -247 660 -247 677 l -247 677 q -247 736 -218 775 q -190 814 -138 834 q -87 853 -17 853 z"},"ീ":{"ha":281,"x_min":-295,"x_max":229,"o":"m -89 853 l -89 853 q -27 853 22 840 q 71 827 110 802 l 110 802 q 176 758 203 689 q 229 620 229 513 l 229 513 l 229 0 l 52 0 l 52 512 q 52 580 47 625 q 41 670 27 698 q 13 725 -12 738 l -12 738 q -30 746 -54 751 q -79 755 -108 755 l -108 755 q -123 755 -136 751 q -149 747 -157 738 q -165 728 -165 712 l -165 712 q -165 700 -157 691 q -149 681 -134 681 l -134 681 q -115 681 -108 693 q -101 704 -101 720 l -101 720 q -101 745 -115 764 q -130 782 -152 796 l -152 796 l -8 779 q 1 770 8 748 q 15 726 15 704 l 15 704 q 15 672 -1 643 q -17 614 -50 597 q -84 579 -137 579 l -137 579 q -188 579 -223 594 q -259 609 -277 639 q -295 668 -295 711 l -295 711 q -295 752 -273 784 q -252 816 -206 835 q -161 853 -89 853 z"},"ു":{"ha":385,"x_min":-29,"x_max":392,"o":"m 181 -241 l 181 -241 q 78 -241 25 -188 q -29 -135 -29 -53 l -29 -53 q -29 3 -5 45 q 19 87 66 111 q 112 135 180 135 l 180 135 q 248 135 296 112 q 343 88 368 46 q 392 3 392 -55 l 392 -55 q 392 -111 368 -153 q 344 -195 297 -218 q 250 -241 181 -241 z m 182 -122 l 182 -122 q 208 -122 223 -105 q 238 -88 238 -52 l 238 -52 q 238 -18 224 0 q 209 18 181 18 l 181 18 q 156 18 141 0 q 125 -18 125 -52 l 125 -52 q 125 -86 140 -104 q 155 -122 182 -122 z m 149 581 l 149 581 q 215 581 256 556 q 296 531 314 491 q 332 450 332 402 l 332 402 q 332 325 316 256 q 299 186 271 104 l 271 104 l 109 119 q 130 191 142 255 q 154 318 154 376 l 154 376 q 154 407 143 430 q 131 453 97 453 l 97 453 q 87 453 76 452 q 64 451 51 448 l 51 448 l 26 567 q 53 573 82 577 q 110 581 149 581 z"},"ൂ":{"ha":385,"x_min":-29,"x_max":392,"o":"m 182 -241 l 182 -241 q 78 -241 25 -188 q -29 -135 -29 -53 l -29 -53 q -29 3 -5 45 q 19 87 66 111 q 112 135 180 135 l 180 135 q 248 135 296 112 q 343 88 368 46 q 392 3 392 -55 l 392 -55 q 392 -111 368 -153 q 344 -195 297 -218 q 250 -241 182 -241 z m 181 37 l 181 37 q 146 37 118 16 q 90 -6 90 -53 l 90 -53 q 90 -101 117 -122 q 144 -144 182 -144 l 182 -144 q 220 -144 247 -123 q 274 -102 274 -53 l 274 -53 q 274 -6 247 16 q 220 37 181 37 z m 183 -102 l 183 -102 q 130 -102 103 -70 q 76 -39 76 16 l 76 16 q 76 34 87 56 q 97 77 117 102 l 117 102 l 166 79 q 151 69 141 57 q 130 45 130 30 l 130 30 q 130 14 137 4 q 144 -6 157 -11 q 169 -16 184 -16 l 184 -16 q 201 -16 213 -10 q 225 -4 231 7 q 237 17 237 29 l 237 29 q 237 41 229 54 q 220 66 204 74 l 204 74 l 253 102 q 274 78 283 58 q 291 37 291 15 l 291 15 q 291 -15 281 -42 q 270 -69 247 -85 q 223 -102 183 -102 z m 149 581 l 149 581 q 215 581 256 556 q 296 531 314 491 q 332 450 332 402 l 332 402 q 332 325 316 256 q 299 186 271 104 l 271 104 l 109 119 q 130 191 142 255 q 154 318 154 376 l 154 376 q 154 407 143 430 q 131 453 97 453 l 97 453 q 87 453 76 452 q 64 451 51 448 l 51 448 l 26 567 q 53 573 82 577 q 110 581 149 581 z"},"ൃ":{"ha":308,"x_min":-150,"x_max":308,"o":"m 65 -337 l 65 -337 q -3 -337 -51 -319 q -99 -301 -124 -264 q -150 -228 -150 -172 l -150 -172 q -150 -105 -101 -62 q -52 -20 36 -20 l 36 -20 q 87 -20 125 -34 q 163 -49 202 -80 l 202 -80 l 157 -172 q 134 -155 112 -146 q 90 -137 63 -137 l 63 -137 q 38 -137 26 -147 q 14 -157 14 -175 l 14 -175 q 14 -194 28 -203 q 41 -213 64 -213 l 64 -213 q 89 -213 105 -203 q 121 -194 130 -174 q 138 -154 138 -121 l 138 -121 q 138 -105 135 -81 q 131 -58 121 -21 q 110 15 90 69 l 90 69 q 65 134 51 192 q 36 249 36 310 l 36 310 q 36 387 58 451 q 79 515 108 569 l 108 569 l 288 569 q 262 521 246 480 q 229 438 221 400 q 213 362 213 321 l 213 321 q 213 273 224 228 q 234 182 254 126 l 254 126 q 275 68 287 26 q 298 -16 303 -49 q 308 -83 308 -117 l 308 -117 q 308 -196 275 -244 q 242 -293 188 -315 q 133 -337 65 -337 z"},"ൄ":{"ha":308,"x_min":-282,"x_max":306,"o":"m -18 -337 l -18 -337 q -104 -337 -162 -315 q -221 -294 -251 -254 q -282 -214 -282 -157 l -282 -157 q -282 -97 -245 -59 q -209 -22 -150 -22 l -150 -22 q -117 -22 -95 -34 q -73 -46 -55 -69 l -55 -69 l -76 -67 q -60 -47 -39 -34 q -18 -22 10 -22 l 10 -22 q 45 -22 66 -34 q 87 -46 97 -65 q 107 -84 111 -105 q 114 -127 114 -145 l 114 -145 l 114 -176 l 23 -176 l 23 -160 q 23 -145 18 -136 q 12 -128 1 -128 l 1 -128 q -11 -128 -16 -137 q -21 -146 -21 -159 l -21 -159 l -21 -176 l -108 -176 l -108 -160 q -108 -141 -114 -134 q -121 -128 -131 -128 l -131 -128 q -145 -128 -150 -136 q -156 -144 -156 -156 l -156 -156 q -156 -186 -123 -201 q -90 -216 -18 -216 l -18 -216 q 59 -216 96 -193 q 132 -171 132 -113 l 132 -113 q 132 -93 130 -70 q 127 -47 118 -14 q 109 18 91 67 l 91 67 q 66 134 51 192 q 36 249 36 310 l 36 310 q 36 387 58 451 q 79 515 108 569 l 108 569 l 288 569 q 262 521 246 480 q 229 438 221 400 q 213 362 213 321 l 213 321 q 213 273 224 227 q 234 181 256 121 l 256 121 q 274 68 285 28 q 296 -13 301 -47 q 306 -81 306 -117 l 306 -117 q 306 -180 275 -229 q 244 -279 174 -308 q 103 -337 -18 -337 z"},"െ":{"ha":773,"x_min":33,"x_max":739,"o":"m 257 -12 l 257 -12 q 194 -12 143 14 q 92 39 63 95 q 33 151 33 242 l 33 242 q 33 314 57 376 q 81 438 128 484 q 175 530 245 556 q 315 581 405 581 l 405 581 q 501 581 566 555 q 630 529 668 486 q 706 443 723 391 q 739 339 739 287 l 739 287 q 739 223 722 169 q 704 115 674 71 q 644 26 605 -13 l 605 -13 l 470 62 q 498 98 518 133 q 537 168 547 205 q 557 242 557 284 l 557 284 q 557 336 540 374 q 522 412 486 433 q 450 454 392 454 l 392 454 q 333 454 288 428 q 242 401 217 353 q 191 305 191 240 l 191 240 q 191 186 200 157 q 208 128 222 118 q 236 107 252 107 l 252 107 q 267 107 277 114 q 286 120 292 135 q 297 149 297 173 l 297 173 q 297 208 284 225 q 270 241 247 241 l 247 241 q 218 241 195 222 q 171 203 134 159 l 134 159 l 111 277 q 148 311 191 335 q 234 358 294 358 l 294 358 q 353 358 391 336 q 429 313 448 273 q 467 233 467 181 l 467 181 q 467 121 444 78 q 420 35 374 12 q 328 -12 257 -12 z"},"േ":{"ha":642,"x_min":32,"x_max":612,"o":"m 377 -12 l 377 -12 q 299 -12 236 5 q 173 22 128 58 q 82 93 57 150 q 32 207 32 288 l 32 288 q 32 362 58 418 q 83 473 130 509 q 177 545 242 563 q 306 581 384 581 l 384 581 q 471 581 521 560 q 570 538 591 504 q 612 469 612 430 l 612 430 q 612 382 591 351 q 570 320 532 306 q 493 291 439 291 l 439 291 q 373 291 337 309 q 300 327 286 358 q 272 388 272 423 l 272 423 q 272 442 279 464 q 286 486 294 498 l 294 498 l 433 510 q 418 495 408 476 q 397 457 397 435 l 397 435 q 397 414 406 405 q 415 395 432 395 l 432 395 q 449 395 458 404 q 466 412 466 428 l 466 428 q 466 447 452 461 q 438 474 408 474 l 408 474 q 395 474 380 474 q 364 474 351 472 l 351 472 q 305 467 273 443 q 240 418 224 378 q 207 338 207 287 l 207 287 q 207 234 220 194 q 233 154 264 130 q 294 105 345 98 l 345 98 q 355 97 371 96 q 386 95 401 95 l 401 95 q 422 95 435 103 q 448 110 454 121 q 460 131 460 141 l 460 141 q 460 156 452 166 q 444 175 427 175 l 427 175 q 410 175 401 166 q 391 156 391 134 l 391 134 q 391 114 399 97 q 406 79 423 61 l 423 61 l 281 82 q 276 93 271 111 q 266 128 266 143 l 266 143 q 266 181 281 212 q 296 242 333 261 q 369 279 433 279 l 433 279 q 486 279 525 264 q 563 249 584 218 q 605 186 605 137 l 605 137 q 605 98 583 64 q 561 30 511 9 q 461 -12 377 -12 z"},"ൈ":{"ha":1545,"x_min":33,"x_max":1512,"o":"m 257 -12 l 257 -12 q 194 -12 143 14 q 92 39 63 95 q 33 151 33 242 l 33 242 q 33 314 57 376 q 81 438 128 484 q 175 530 245 556 q 315 581 405 581 l 405 581 q 501 581 566 555 q 630 529 668 486 q 706 443 723 391 q 739 339 739 287 l 739 287 q 739 223 722 169 q 704 115 674 71 q 644 26 605 -13 l 605 -13 l 470 62 q 498 98 518 133 q 537 168 547 205 q 557 242 557 284 l 557 284 q 557 336 540 374 q 522 412 486 433 q 450 454 392 454 l 392 454 q 333 454 288 428 q 242 401 217 353 q 191 305 191 240 l 191 240 q 191 186 200 157 q 208 128 222 118 q 236 107 252 107 l 252 107 q 267 107 277 114 q 286 120 292 135 q 297 149 297 173 l 297 173 q 297 208 284 225 q 270 241 247 241 l 247 241 q 218 241 195 222 q 171 203 134 159 l 134 159 l 111 277 q 148 311 191 335 q 234 358 294 358 l 294 358 q 353 358 391 336 q 429 313 448 273 q 467 233 467 181 l 467 181 q 467 121 444 78 q 420 35 374 12 q 328 -12 257 -12 z m 1030 -12 l 1030 -12 q 967 -12 916 14 q 865 39 836 95 q 806 151 806 242 l 806 242 q 806 314 830 376 q 854 438 901 484 q 948 530 1018 556 q 1088 581 1178 581 l 1178 581 q 1274 581 1339 555 q 1403 529 1441 486 q 1479 443 1496 391 q 1512 339 1512 287 l 1512 287 q 1512 223 1495 169 q 1477 115 1447 71 q 1417 26 1378 -13 l 1378 -13 l 1243 62 q 1271 98 1291 133 q 1310 168 1320 205 q 1330 242 1330 284 l 1330 284 q 1330 336 1313 374 q 1295 412 1259 433 q 1223 454 1165 454 l 1165 454 q 1106 454 1061 428 q 1015 401 990 353 q 964 305 964 240 l 964 240 q 964 186 973 157 q 981 128 995 118 q 1009 107 1025 107 l 1025 107 q 1040 107 1050 114 q 1059 120 1065 135 q 1070 149 1070 173 l 1070 173 q 1070 208 1057 225 q 1043 241 1020 241 l 1020 241 q 991 241 968 222 q 944 203 907 159 l 907 159 l 884 277 q 921 311 964 335 q 1007 358 1067 358 l 1067 358 q 1126 358 1164 336 q 1202 313 1221 273 q 1240 233 1240 181 l 1240 181 q 1240 121 1217 78 q 1193 35 1147 12 q 1101 -12 1030 -12 z"},"ൊ":{"ha":1545,"x_min":33,"x_max":1511,"o":"m 257 -12 l 257 -12 q 194 -12 143 14 q 92 39 63 95 q 33 151 33 242 l 33 242 q 33 314 57 376 q 81 438 128 484 q 175 530 245 556 q 315 581 405 581 l 405 581 q 501 581 566 555 q 630 529 668 486 q 706 443 723 391 q 739 339 739 287 l 739 287 q 739 223 722 169 q 704 115 674 71 q 644 26 605 -13 l 605 -13 l 470 62 q 498 98 518 133 q 537 168 547 205 q 557 242 557 284 l 557 284 q 557 336 540 374 q 522 412 486 433 q 450 454 392 454 l 392 454 q 333 454 288 428 q 242 401 217 353 q 191 305 191 240 l 191 240 q 191 186 200 157 q 208 128 222 118 q 236 107 252 107 l 252 107 q 267 107 277 114 q 286 120 292 135 q 297 149 297 173 l 297 173 q 297 208 284 225 q 270 241 247 241 l 247 241 q 218 241 195 222 q 171 203 134 159 l 134 159 l 111 277 q 148 311 191 335 q 234 358 294 358 l 294 358 q 353 358 391 336 q 429 313 448 273 q 467 233 467 181 l 467 181 q 467 121 444 78 q 420 35 374 12 q 328 -12 257 -12 z m 887 202 l 887 202 q 844 202 816 225 q 787 248 787 295 l 787 295 q 787 344 815 367 q 843 389 887 389 l 887 389 q 929 389 956 367 q 983 344 983 295 l 983 295 q 983 248 956 225 q 928 202 887 202 z m 1511 287 l 1511 287 q 1511 223 1499 168 q 1486 113 1457 73 q 1427 33 1377 11 q 1326 -12 1250 -12 l 1250 -12 q 1179 -12 1134 5 q 1088 22 1061 51 q 1034 80 1020 115 q 1005 150 997 186 l 997 186 l 1177 217 q 1184 185 1193 162 q 1202 139 1217 127 q 1231 114 1254 114 l 1254 114 q 1281 114 1298 134 q 1315 153 1323 192 q 1330 230 1330 286 l 1330 286 q 1330 341 1323 378 q 1315 415 1299 435 q 1282 455 1255 455 l 1255 455 q 1234 455 1219 443 q 1204 430 1195 407 q 1186 384 1179 352 l 1179 352 l 999 384 q 1010 421 1028 456 q 1046 491 1075 520 q 1104 548 1149 565 q 1193 581 1259 581 l 1259 581 q 1332 581 1381 558 q 1430 534 1459 493 q 1487 452 1499 399 q 1511 346 1511 287 z"},"ോ":{"ha":1391,"x_min":32,"x_max":1356,"o":"m 377 -12 l 377 -12 q 299 -12 236 5 q 173 22 128 58 q 82 93 57 150 q 32 207 32 288 l 32 288 q 32 362 58 418 q 83 473 130 509 q 177 545 242 563 q 306 581 384 581 l 384 581 q 471 581 521 560 q 570 538 591 504 q 612 469 612 430 l 612 430 q 612 382 591 351 q 570 320 532 306 q 493 291 439 291 l 439 291 q 373 291 337 309 q 300 327 286 358 q 272 388 272 423 l 272 423 q 272 442 279 464 q 286 486 294 498 l 294 498 l 433 510 q 418 495 408 476 q 397 457 397 435 l 397 435 q 397 414 406 405 q 415 395 432 395 l 432 395 q 449 395 458 404 q 466 412 466 428 l 466 428 q 466 447 452 461 q 438 474 408 474 l 408 474 q 395 474 380 474 q 364 474 351 472 l 351 472 q 305 467 273 443 q 240 418 224 378 q 207 338 207 287 l 207 287 q 207 234 220 194 q 233 154 264 130 q 294 105 345 98 l 345 98 q 355 97 371 96 q 386 95 401 95 l 401 95 q 422 95 435 103 q 448 110 454 121 q 460 131 460 141 l 460 141 q 460 156 452 166 q 444 175 427 175 l 427 175 q 410 175 401 166 q 391 156 391 134 l 391 134 q 391 114 399 97 q 406 79 423 61 l 423 61 l 281 82 q 276 93 271 111 q 266 128 266 143 l 266 143 q 266 181 281 212 q 296 242 333 261 q 369 279 433 279 l 433 279 q 486 279 525 264 q 563 249 584 218 q 605 186 605 137 l 605 137 q 605 98 583 64 q 561 30 511 9 q 461 -12 377 -12 z m 733 202 l 733 202 q 690 202 662 225 q 633 248 633 295 l 633 295 q 633 344 661 367 q 689 389 733 389 l 733 389 q 775 389 802 367 q 829 344 829 295 l 829 295 q 829 248 802 225 q 774 202 733 202 z m 1356 287 l 1356 287 q 1356 223 1344 168 q 1331 113 1302 73 q 1272 33 1222 11 q 1171 -12 1095 -12 l 1095 -12 q 1024 -12 979 5 q 933 22 906 51 q 879 80 865 115 q 850 150 842 186 l 842 186 l 1022 217 q 1029 185 1038 162 q 1047 139 1062 127 q 1076 114 1099 114 l 1099 114 q 1126 114 1143 134 q 1160 153 1168 192 q 1175 230 1175 286 l 1175 286 q 1175 341 1168 378 q 1160 415 1144 435 q 1127 455 1100 455 l 1100 455 q 1079 455 1064 443 q 1049 430 1040 407 q 1031 384 1024 352 l 1024 352 l 844 384 q 855 421 873 456 q 891 491 920 520 q 949 548 994 565 q 1038 581 1104 581 l 1104 581 q 1177 581 1226 558 q 1275 534 1304 493 q 1332 452 1344 399 q 1356 346 1356 287 z"},"ൌ":{"ha":1805,"x_min":33,"x_max":1772,"o":"m 257 -12 l 257 -12 q 194 -12 143 14 q 92 39 63 95 q 33 151 33 242 l 33 242 q 33 314 57 376 q 81 438 128 484 q 175 530 245 556 q 315 581 405 581 l 405 581 q 501 581 566 555 q 630 529 668 486 q 706 443 723 391 q 739 339 739 287 l 739 287 q 739 223 722 169 q 704 115 674 71 q 644 26 605 -13 l 605 -13 l 470 62 q 498 98 518 133 q 537 168 547 205 q 557 242 557 284 l 557 284 q 557 336 540 374 q 522 412 486 433 q 450 454 392 454 l 392 454 q 333 454 288 428 q 242 401 217 353 q 191 305 191 240 l 191 240 q 191 186 200 157 q 208 128 222 118 q 236 107 252 107 l 252 107 q 267 107 277 114 q 286 120 292 135 q 297 149 297 173 l 297 173 q 297 208 284 225 q 270 241 247 241 l 247 241 q 218 241 195 222 q 171 203 134 159 l 134 159 l 111 277 q 148 311 191 335 q 234 358 294 358 l 294 358 q 353 358 391 336 q 429 313 448 273 q 467 233 467 181 l 467 181 q 467 121 444 78 q 420 35 374 12 q 328 -12 257 -12 z m 888 202 l 888 202 q 845 202 817 225 q 788 248 788 295 l 788 295 q 788 344 816 367 q 844 389 888 389 l 888 389 q 930 389 957 367 q 984 344 984 295 l 984 295 q 984 248 957 225 q 929 202 888 202 z m 1539 581 l 1539 581 q 1612 581 1664 549 q 1715 517 1743 457 q 1771 396 1771 309 l 1771 309 q 1771 207 1738 136 q 1705 64 1638 26 q 1570 -12 1465 -12 l 1465 -12 q 1385 -12 1328 2 q 1271 15 1216 41 l 1216 41 l 1281 156 q 1325 134 1363 125 q 1401 116 1445 116 l 1445 116 q 1499 116 1532 137 q 1564 158 1578 201 q 1592 244 1592 310 l 1592 310 q 1592 386 1573 421 q 1553 455 1526 455 l 1526 455 q 1516 455 1509 452 q 1501 449 1496 443 l 1496 443 q 1487 432 1485 415 q 1482 398 1482 365 l 1482 365 l 1482 269 l 1307 269 l 1307 353 q 1307 385 1304 408 q 1301 430 1291 441 l 1291 441 q 1284 449 1277 452 q 1269 455 1259 455 l 1259 455 q 1236 455 1221 436 q 1205 417 1205 378 l 1205 378 q 1205 354 1209 332 q 1212 310 1218 291 l 1218 291 l 1048 255 q 1039 285 1034 319 q 1028 353 1028 384 l 1028 384 q 1028 436 1051 481 q 1074 525 1122 553 q 1169 581 1244 581 l 1244 581 q 1302 581 1340 563 q 1377 545 1406 514 l 1406 514 l 1381 514 q 1413 551 1452 566 q 1490 581 1539 581 z"},"്":{"ha":0,"x_min":-336,"x_max":86,"o":"m -126 599 l -126 599 q -202 599 -248 620 q -294 641 -315 679 q -336 717 -336 766 l -336 766 q -336 789 -331 808 q -326 827 -321 840 l -321 840 l -170 814 q -173 805 -174 794 q -176 783 -176 772 l -176 772 q -176 752 -170 740 q -164 728 -152 722 q -140 716 -123 716 l -123 716 q -107 716 -94 722 q -82 727 -75 740 q -68 752 -68 772 l -68 772 q -68 783 -69 794 q -71 805 -73 814 l -73 814 l 73 840 q 78 827 82 808 q 86 789 86 766 l 86 766 q 86 717 66 679 q 45 641 -1 620 q -47 599 -126 599 z"},"ൎ":{"ha":0,"x_min":-372,"x_max":-185,"o":"m -372 843 l -185 843 l -195 637 l -363 637 l -372 843 z"},"൏":{"ha":1324,"x_min":39,"x_max":1289,"o":"m 626 581 l 626 581 q 711 581 771 558 q 830 535 881 480 l 881 480 l 832 503 q 875 546 922 564 q 968 581 1029 581 l 1029 581 q 1118 581 1176 538 q 1233 494 1261 418 q 1289 342 1289 243 l 1289 243 q 1289 83 1224 -27 q 1159 -138 1021 -195 q 882 -252 660 -252 l 660 -252 q 518 -252 413 -227 q 308 -202 236 -156 q 164 -111 121 -49 q 78 12 59 85 q 39 157 39 237 l 39 237 q 39 314 61 400 q 82 486 119 564 l 119 564 l 263 506 q 232 440 217 371 q 202 302 202 237 l 202 237 q 202 174 215 120 q 227 65 256 21 q 285 -23 338 -54 q 390 -85 469 -101 q 548 -118 660 -118 l 660 -118 q 801 -118 890 -91 q 979 -64 1027 -15 q 1074 34 1092 101 q 1109 167 1109 245 l 1109 245 q 1109 320 1095 366 q 1081 412 1058 433 q 1035 454 1009 454 l 1009 454 q 992 454 980 449 q 968 444 960 435 l 960 435 q 948 422 943 400 q 937 377 937 335 l 937 335 l 937 0 l 760 0 l 760 283 q 760 346 752 378 q 743 409 720 428 l 720 428 q 704 441 680 448 q 656 455 623 455 l 623 455 q 571 455 526 432 q 481 408 454 361 q 427 314 427 243 l 427 243 l 427 238 q 427 184 436 156 q 444 127 458 117 q 472 107 488 107 l 488 107 q 503 107 513 114 q 522 120 528 135 q 533 149 533 173 l 533 173 q 533 208 520 225 q 506 241 483 241 l 483 241 q 454 241 431 222 q 407 203 370 159 l 370 159 l 347 277 q 384 311 428 335 q 472 358 530 358 l 530 358 q 588 358 627 336 q 665 313 684 273 q 703 233 703 181 l 703 181 q 703 121 680 78 q 656 34 610 11 q 563 -12 493 -12 l 493 -12 q 429 -12 379 14 q 328 40 299 97 q 269 153 269 245 l 269 245 q 269 354 316 429 q 362 504 443 543 q 524 581 626 581 z"},"ൔ":{"ha":699,"x_min":48,"x_max":692,"o":"m 223 803 l 223 803 q 261 803 287 796 q 313 788 331 776 l 331 776 q 364 754 377 717 q 390 679 390 623 l 390 623 l 390 476 q 390 448 396 418 q 402 388 420 357 q 437 326 469 296 l 469 296 l 505 273 q 540 239 588 196 q 635 153 692 108 l 692 108 l 640 0 l 48 0 l 48 246 q 48 317 60 367 q 71 416 93 451 q 115 485 146 510 l 146 510 q 187 544 245 562 q 302 580 369 580 l 369 580 q 438 580 494 558 q 549 536 582 493 q 615 450 615 385 l 615 385 q 615 327 589 286 q 562 244 523 211 l 523 211 l 490 198 q 472 181 446 160 q 420 139 391 119 q 362 99 333 82 l 333 82 l 346 112 q 367 117 393 118 q 419 119 433 119 l 433 119 l 447 119 q 469 119 494 119 q 519 118 541 117 q 563 115 576 113 l 576 113 l 553 59 q 503 98 471 125 q 439 152 411 183 l 411 183 l 370 210 q 320 249 288 295 q 255 341 240 396 q 225 450 225 514 l 225 514 l 225 613 q 225 638 221 651 q 217 663 208 669 l 208 669 q 203 673 195 676 q 187 678 175 678 l 175 678 q 162 678 148 676 q 134 674 121 670 l 121 670 l 93 785 q 120 794 155 799 q 189 803 223 803 z m 223 246 l 223 68 l 168 84 q 206 110 244 143 q 281 175 314 209 q 347 242 372 270 l 372 270 l 413 296 q 427 316 438 338 q 448 360 448 383 l 448 383 q 448 409 437 427 q 425 445 404 455 q 383 464 354 464 l 354 464 q 320 464 292 450 q 263 436 249 413 l 249 413 q 240 398 235 379 q 229 360 226 329 q 223 298 223 246 l 223 246 z"},"ൕ":{"ha":1094,"x_min":31,"x_max":1063,"o":"m 722 -12 l 722 -12 q 678 -12 640 -7 q 601 -2 568 9 q 535 19 505 34 l 505 34 q 497 39 489 48 q 481 56 471 61 l 471 61 q 422 91 386 133 q 350 174 331 227 q 311 279 311 342 l 311 342 q 311 383 322 417 q 332 451 348 478 l 348 478 l 371 509 q 390 533 417 549 q 444 565 479 573 q 513 581 552 581 l 552 581 q 668 581 731 518 q 793 454 793 340 l 793 340 q 793 275 771 221 q 749 167 713 126 q 676 85 634 59 l 634 59 q 625 54 617 47 q 608 40 600 35 l 600 35 q 552 12 502 0 q 451 -12 397 -12 l 397 -12 q 303 -12 234 14 q 165 40 121 87 q 76 133 54 195 q 31 257 31 330 l 31 330 q 31 403 60 460 q 88 516 145 549 q 202 581 286 581 l 286 581 q 351 581 404 554 q 456 527 491 466 l 491 466 l 364 403 q 346 432 328 444 q 309 456 287 456 l 287 456 q 264 456 246 442 q 228 428 218 401 q 208 374 208 334 l 208 334 q 208 268 231 218 q 254 167 298 138 q 341 109 402 109 l 402 109 q 424 109 444 113 q 464 116 481 123 l 481 123 q 490 126 499 128 q 508 129 515 133 l 515 133 q 548 153 571 186 q 593 218 605 259 q 617 299 617 343 l 617 343 q 617 384 609 409 q 600 434 585 445 q 570 455 553 455 l 553 455 q 535 455 520 445 q 505 435 496 411 q 487 386 487 342 l 487 342 q 487 302 498 262 q 509 222 531 190 q 553 157 583 136 l 583 136 q 593 130 605 128 q 616 125 627 121 l 627 121 q 643 116 663 113 q 683 109 717 109 l 717 109 q 772 109 809 128 q 846 147 865 181 q 884 215 884 259 l 884 259 q 884 288 878 316 q 871 344 855 377 q 839 410 810 453 l 810 453 q 777 505 758 540 q 738 574 730 603 q 722 631 722 662 l 722 662 q 722 704 743 736 q 763 767 803 785 q 842 803 897 803 l 897 803 q 939 803 972 798 q 1004 793 1028 786 l 1028 786 l 1000 668 q 988 672 972 676 q 955 679 938 679 l 938 679 q 919 679 909 670 q 898 660 898 643 l 898 643 q 898 630 903 617 q 908 603 922 582 q 935 560 960 523 l 960 523 q 997 468 1020 423 q 1043 378 1053 337 q 1063 296 1063 250 l 1063 250 q 1063 217 1054 181 q 1045 145 1023 111 q 1000 77 961 49 q 921 21 863 5 q 804 -12 722 -12 z"},"ൖ":{"ha":822,"x_min":29,"x_max":793,"o":"m 311 190 l 311 190 q 311 165 320 148 q 329 131 346 123 q 362 114 386 114 l 386 114 q 418 114 433 126 q 448 138 448 160 l 448 160 q 448 188 438 215 q 427 241 414 270 q 401 298 391 331 q 381 364 381 406 l 381 406 q 381 459 407 498 q 432 537 476 559 q 519 581 570 581 l 570 581 q 652 581 701 554 q 749 526 771 483 q 793 440 793 392 l 793 392 q 793 323 759 271 q 725 218 654 189 q 583 159 471 159 l 471 159 l 402 159 q 360 159 324 164 q 287 168 251 176 l 251 176 l 201 185 q 154 201 115 229 q 76 256 53 299 q 29 342 29 404 l 29 404 q 29 448 44 493 q 59 538 88 581 l 88 581 l 229 518 q 215 492 208 467 q 200 441 200 412 l 200 412 q 200 375 208 358 q 216 340 230 320 l 230 320 l 285 289 q 312 279 345 274 q 377 269 411 269 l 411 269 l 448 269 q 512 269 550 286 q 587 303 604 333 q 620 363 620 403 l 620 403 q 620 432 609 448 q 597 464 576 464 l 576 464 q 563 464 554 458 q 544 451 539 440 q 534 428 534 413 l 534 413 q 534 382 547 351 q 559 320 575 288 q 591 255 604 220 q 616 184 616 143 l 616 143 q 616 115 606 87 q 596 59 572 37 q 547 14 503 1 q 458 -12 388 -12 l 388 -12 q 322 -12 271 9 q 219 30 190 74 q 160 117 160 185 l 160 185 q 160 227 171 269 q 182 311 204 360 q 225 409 256 472 l 256 472 q 276 511 289 541 q 302 570 309 593 q 315 615 315 632 l 315 632 q 315 653 304 666 q 292 678 268 678 l 268 678 q 250 678 235 676 q 220 673 208 671 l 208 671 l 180 784 q 208 793 243 798 q 277 803 313 803 l 313 803 q 383 803 421 782 q 458 760 473 727 q 487 693 487 656 l 487 656 q 487 631 482 607 q 477 582 466 555 q 454 527 436 492 q 417 457 391 410 l 391 410 q 368 369 352 336 q 336 303 327 277 q 318 250 315 229 q 311 208 311 190 z"},"ൗ":{"ha":805,"x_min":28,"x_max":771,"o":"m 539 581 l 539 581 q 612 581 664 549 q 715 517 743 457 q 771 396 771 309 l 771 309 q 771 207 738 136 q 705 64 638 26 q 570 -12 465 -12 l 465 -12 q 385 -12 328 2 q 271 15 216 41 l 216 41 l 281 156 q 325 134 363 125 q 401 116 445 116 l 445 116 q 499 116 532 137 q 564 158 578 201 q 592 244 592 310 l 592 310 q 592 386 573 421 q 553 455 526 455 l 526 455 q 516 455 509 452 q 501 449 496 443 l 496 443 q 487 432 485 415 q 482 398 482 365 l 482 365 l 482 269 l 307 269 l 307 353 q 307 385 304 408 q 301 430 291 441 l 291 441 q 284 449 277 452 q 269 455 259 455 l 259 455 q 236 455 221 436 q 205 417 205 378 l 205 378 q 205 354 209 332 q 212 310 218 291 l 218 291 l 48 255 q 39 285 34 319 q 28 353 28 384 l 28 384 q 28 436 51 481 q 74 525 122 553 q 169 581 244 581 l 244 581 q 302 581 340 563 q 377 545 406 514 l 406 514 l 381 514 q 413 551 452 566 q 490 581 539 581 z"},"൘":{"ha":1274,"x_min":34,"x_max":1235,"o":"m 630 -12 l 630 -12 q 570 -12 527 9 q 484 30 451 69 l 451 69 l 477 58 q 437 21 396 5 q 354 -12 296 -12 l 296 -12 q 210 -12 152 26 q 93 63 64 127 q 34 190 34 268 l 34 268 q 34 330 48 382 q 61 433 89 482 q 116 530 157 581 l 157 581 l 295 506 q 267 464 249 426 q 231 387 222 349 q 213 310 213 268 l 213 268 q 213 212 228 179 q 243 145 266 130 q 289 115 311 115 l 311 115 q 328 115 340 121 q 351 126 358 134 l 358 134 q 370 149 374 175 q 378 200 378 239 l 378 239 l 378 569 l 554 569 l 554 248 q 554 199 560 175 q 566 150 579 135 l 579 135 q 588 126 601 121 q 614 115 630 115 l 630 115 q 647 115 660 120 q 673 125 681 134 l 681 134 q 694 149 700 173 q 705 197 705 242 l 705 242 l 705 569 l 882 569 l 882 267 l 805 69 q 766 24 724 6 q 682 -12 630 -12 z m 968 -12 l 968 -12 q 909 -12 868 6 q 826 24 784 63 l 784 63 l 715 260 l 715 559 l 882 559 l 882 235 q 882 195 886 172 q 890 149 904 134 l 904 134 q 912 126 924 121 q 935 115 952 115 l 952 115 q 987 115 1010 143 q 1033 171 1045 218 q 1056 265 1056 322 l 1056 322 q 1056 386 1045 445 q 1034 503 1008 553 q 982 603 937 640 q 892 677 826 698 q 759 718 666 718 l 666 718 q 601 718 534 710 q 467 702 418 690 l 418 690 l 396 820 q 437 829 481 836 q 525 842 575 846 q 624 849 680 849 l 680 849 q 798 849 890 824 q 981 799 1047 752 q 1112 705 1154 641 q 1196 577 1216 498 q 1235 419 1235 329 l 1235 329 q 1235 221 1206 145 q 1176 69 1117 29 q 1058 -12 968 -12 z"},"൙":{"ha":1211,"x_min":34,"x_max":1193,"o":"m 387 581 l 387 581 q 485 581 556 553 q 627 524 673 476 q 718 427 740 365 q 762 303 762 235 l 762 235 q 762 150 735 96 q 707 41 655 15 q 602 -12 525 -12 l 525 -12 q 445 -12 399 14 q 353 39 334 80 q 314 121 314 165 l 314 165 q 314 220 338 260 q 362 299 402 321 l 402 321 q 427 336 456 344 q 485 352 524 356 q 562 359 614 359 l 614 359 l 702 359 l 702 233 l 606 233 q 566 233 545 230 q 523 226 509 216 l 509 216 q 496 208 491 195 q 485 181 485 163 l 485 163 q 485 141 496 127 q 506 112 528 112 l 528 112 q 546 112 560 122 q 574 132 582 157 q 589 182 589 228 l 589 228 q 589 246 588 263 q 587 280 585 294 l 585 294 l 584 322 q 573 359 550 389 q 527 419 490 436 q 452 453 397 453 l 397 453 q 337 453 297 434 q 256 414 236 376 q 215 338 215 284 l 215 284 q 215 242 226 205 q 236 168 255 133 q 274 98 302 62 l 302 62 l 167 -13 q 128 26 98 71 q 68 115 51 169 q 34 223 34 289 l 34 289 q 34 343 53 395 q 72 447 114 489 q 156 531 224 556 q 291 581 387 581 z m 997 569 l 997 569 q 1069 569 1112 546 q 1155 523 1174 486 q 1193 449 1193 408 l 1193 408 q 1193 360 1176 326 q 1158 292 1129 272 l 1129 272 q 1104 256 1076 248 q 1048 239 1015 236 q 981 233 935 233 l 935 233 l 676 233 l 676 359 l 949 359 q 982 359 997 362 q 1012 364 1021 371 l 1021 371 q 1028 376 1032 385 q 1036 394 1036 406 l 1036 406 q 1036 425 1025 436 q 1014 446 997 446 l 997 446 q 974 446 964 432 q 953 417 953 396 l 953 396 q 953 367 965 347 q 976 326 991 309 l 991 309 l 837 302 q 823 322 813 352 q 802 381 802 409 l 802 409 q 802 462 828 498 q 853 533 897 551 q 941 569 997 569 z"},"൚":{"ha":1132,"x_min":34,"x_max":1084,"o":"m 725 581 l 725 581 q 814 581 880 563 q 946 544 990 507 l 990 507 q 1020 481 1041 448 q 1062 415 1073 367 q 1084 319 1084 248 l 1084 248 l 1084 0 l 560 0 l 560 118 q 594 156 623 200 q 651 243 668 290 q 685 337 685 387 l 685 387 q 685 407 681 421 q 677 434 668 442 q 659 449 644 449 l 644 449 q 626 449 613 440 q 600 431 590 415 l 590 415 q 578 398 572 366 q 565 333 565 280 l 565 280 l 565 230 l 390 230 l 390 330 q 390 372 386 397 q 381 421 368 435 l 368 435 q 360 443 348 449 q 336 454 318 454 l 318 454 q 293 454 269 439 q 245 424 229 391 q 213 357 213 301 l 213 301 q 213 259 222 221 q 231 183 249 145 q 267 106 295 62 l 295 62 l 157 -13 q 116 38 89 87 q 62 136 48 188 q 34 240 34 301 l 34 301 q 34 380 65 443 q 95 506 155 544 q 215 581 304 581 l 304 581 q 344 581 378 573 q 412 565 444 549 q 475 533 506 507 l 506 507 l 472 493 q 503 523 541 543 q 579 562 626 572 q 672 581 725 581 z m 859 359 l 859 359 q 859 314 846 274 q 832 233 808 195 q 783 156 750 117 l 750 117 l 736 121 q 756 124 778 125 q 800 125 824 125 l 824 125 l 909 125 l 909 255 q 909 319 899 360 q 889 400 868 425 q 846 449 812 463 l 812 463 l 813 472 q 836 451 848 424 q 859 396 859 359 z"},"൛":{"ha":1007,"x_min":52,"x_max":973,"o":"m 649 -12 l 649 -12 q 560 -12 498 14 q 435 39 398 81 q 361 123 345 175 q 328 226 328 278 l 328 278 q 328 335 342 377 q 356 418 383 456 q 410 493 448 534 l 448 534 l 401 443 l 229 443 l 229 0 l 52 0 l 52 569 l 517 569 l 582 489 q 562 462 545 430 q 527 398 517 362 q 507 325 507 283 l 507 283 q 507 233 524 195 q 540 157 572 136 q 603 115 648 115 l 648 115 q 690 115 723 135 q 755 155 774 193 q 792 230 792 283 l 792 283 q 792 326 782 364 q 772 401 753 436 q 733 471 705 507 l 705 507 l 840 582 q 880 544 910 499 q 940 454 957 401 q 973 347 973 280 l 973 280 q 973 230 957 179 q 940 128 903 85 q 865 41 803 15 q 741 -12 649 -12 z"},"൜":{"ha":1587,"x_min":34,"x_max":1553,"o":"m 956 581 l 956 581 q 1019 581 1066 566 q 1112 550 1143 521 l 1143 521 q 1164 501 1178 474 q 1192 446 1199 408 q 1206 369 1206 314 l 1206 314 l 1206 242 q 1206 201 1211 174 q 1216 147 1232 132 l 1232 132 q 1241 123 1254 119 q 1266 115 1281 115 l 1281 115 q 1306 115 1327 129 q 1348 143 1361 177 q 1374 211 1374 269 l 1374 269 q 1374 313 1365 351 q 1356 389 1338 427 q 1319 464 1292 507 l 1292 507 l 1429 581 q 1468 531 1496 483 q 1524 435 1539 382 q 1553 329 1553 266 l 1553 266 q 1553 184 1522 121 q 1491 58 1431 23 q 1371 -12 1285 -12 l 1285 -12 q 1221 -12 1178 1 q 1134 14 1102 41 l 1102 41 q 1076 63 1060 93 q 1043 123 1035 165 q 1027 206 1027 262 l 1027 262 l 1027 319 q 1027 370 1023 396 q 1018 422 1003 437 l 1003 437 q 995 445 984 450 q 972 454 955 454 l 955 454 q 937 454 925 449 q 913 443 904 432 l 904 432 q 891 417 887 390 q 883 362 883 319 l 883 319 l 883 255 q 883 201 876 163 q 869 124 855 97 q 841 69 820 48 l 820 48 q 788 18 742 3 q 696 -12 632 -12 l 632 -12 q 566 -12 521 3 q 475 18 444 48 l 444 48 q 423 69 409 96 q 395 123 388 162 q 381 200 381 255 l 381 255 l 381 327 q 381 363 376 393 q 371 422 355 437 l 355 437 q 347 446 335 450 q 323 454 306 454 l 306 454 q 282 454 261 440 q 239 426 226 393 q 213 359 213 300 l 213 300 q 213 256 222 218 q 231 180 250 143 q 268 105 295 62 l 295 62 l 158 -12 q 120 38 92 86 q 63 134 49 187 q 34 240 34 303 l 34 303 q 34 385 65 448 q 96 511 156 546 q 216 581 302 581 l 302 581 q 366 581 410 568 q 454 555 486 528 l 486 528 q 512 507 528 477 q 544 446 552 405 q 560 364 560 307 l 560 307 l 560 249 q 560 199 565 173 q 570 147 584 132 l 584 132 q 593 124 605 120 q 616 115 632 115 l 632 115 q 650 115 663 121 q 675 126 684 137 l 684 137 q 697 152 701 179 q 704 206 704 248 l 704 248 l 704 315 q 704 369 711 408 q 718 446 733 474 q 747 501 768 521 l 768 521 q 801 551 848 566 q 894 581 956 581 z"},"൝":{"ha":2075,"x_min":8,"x_max":2042,"o":"m 798 581 l 798 581 q 862 581 908 566 q 954 550 985 521 l 985 521 q 1007 501 1021 474 q 1035 446 1042 408 q 1049 369 1049 314 l 1049 314 l 1049 249 q 1049 199 1054 173 q 1058 147 1073 132 l 1073 132 q 1081 124 1093 120 q 1104 115 1120 115 l 1120 115 q 1139 115 1151 121 q 1163 126 1172 137 l 1172 137 q 1185 152 1189 179 q 1193 206 1193 248 l 1193 248 l 1193 315 q 1193 369 1200 408 q 1206 446 1221 474 q 1235 501 1257 521 l 1257 521 q 1289 551 1336 566 q 1382 581 1444 581 l 1444 581 q 1508 581 1554 566 q 1600 550 1631 521 l 1631 521 q 1653 501 1667 474 q 1681 446 1688 408 q 1694 369 1694 314 l 1694 314 l 1694 242 q 1694 201 1700 174 q 1705 147 1720 132 l 1720 132 q 1729 123 1742 119 q 1754 115 1770 115 l 1770 115 q 1795 115 1816 129 q 1836 143 1850 177 q 1863 211 1863 269 l 1863 269 q 1863 313 1854 351 q 1845 389 1827 427 q 1808 464 1780 507 l 1780 507 l 1917 581 q 1957 531 1985 483 q 2012 435 2027 382 q 2042 329 2042 266 l 2042 266 q 2042 184 2011 121 q 1979 58 1920 23 q 1860 -12 1773 -12 l 1773 -12 q 1710 -12 1667 1 q 1623 14 1590 41 l 1590 41 q 1564 63 1548 93 q 1531 123 1523 165 q 1515 206 1515 262 l 1515 262 l 1515 319 q 1515 370 1511 396 q 1507 422 1491 437 l 1491 437 q 1483 445 1472 450 q 1460 454 1444 454 l 1444 454 q 1425 454 1413 449 q 1401 443 1392 432 l 1392 432 q 1380 417 1376 390 q 1371 362 1371 319 l 1371 319 l 1371 255 q 1371 201 1365 163 q 1358 124 1344 97 q 1330 69 1308 48 l 1308 48 q 1277 18 1231 3 q 1184 -12 1120 -12 l 1120 -12 q 1054 -12 1009 3 q 964 18 933 48 l 933 48 q 911 69 897 96 q 883 123 876 162 q 869 200 869 255 l 869 255 l 869 319 q 869 370 865 396 q 860 422 845 437 l 845 437 q 837 445 826 450 q 814 454 798 454 l 798 454 q 779 454 767 449 q 755 443 746 432 l 746 432 q 734 417 730 390 q 725 362 725 319 l 725 319 l 725 255 q 725 176 708 125 q 690 74 652 41 l 652 41 q 621 15 579 2 q 537 -12 487 -12 l 487 -12 q 424 -12 378 8 q 331 27 295 68 l 295 68 l 315 62 q 288 35 263 19 q 238 2 210 -5 q 181 -12 143 -12 l 143 -12 q 105 -12 73 -3 q 41 5 8 22 l 8 22 l 53 137 q 72 128 93 122 q 113 115 136 115 l 136 115 q 159 115 172 121 q 185 126 194 134 l 194 134 q 208 148 213 171 q 218 194 218 234 l 218 234 l 218 569 l 394 569 l 394 240 q 394 198 399 173 q 403 148 418 134 l 418 134 q 428 124 440 120 q 452 115 470 115 l 470 115 q 487 115 499 120 q 510 125 519 133 l 519 133 q 536 148 541 176 q 546 204 546 254 l 546 254 l 546 315 q 546 369 553 408 q 560 446 575 474 q 589 501 611 521 l 611 521 q 643 551 690 566 q 736 581 798 581 z"},"൞":{"ha":1471,"x_min":34,"x_max":1445,"o":"m 387 581 l 387 581 q 485 581 556 553 q 627 524 673 476 q 718 427 740 365 q 762 303 762 235 l 762 235 q 762 150 735 96 q 707 41 655 15 q 602 -12 525 -12 l 525 -12 q 445 -12 399 14 q 353 39 334 80 q 314 121 314 165 l 314 165 q 314 220 338 260 q 362 299 402 321 l 402 321 q 427 336 456 344 q 485 352 524 356 q 562 359 614 359 l 614 359 l 702 359 l 702 233 l 606 233 q 566 233 545 230 q 523 226 509 216 l 509 216 q 496 208 491 195 q 485 181 485 163 l 485 163 q 485 141 496 127 q 506 112 528 112 l 528 112 q 546 112 560 122 q 574 132 582 157 q 589 182 589 228 l 589 228 q 589 247 588 264 q 587 280 585 294 l 585 294 l 584 322 q 573 359 550 389 q 527 419 490 436 q 453 453 397 453 l 397 453 q 337 453 297 434 q 256 414 236 376 q 215 338 215 284 l 215 284 q 215 242 226 205 q 236 168 255 133 q 274 98 302 62 l 302 62 l 167 -13 q 128 26 98 71 q 68 115 51 169 q 34 223 34 289 l 34 289 q 34 343 53 395 q 72 447 114 489 q 156 531 224 556 q 291 581 387 581 z m 1208 197 l 1208 197 q 1125 197 1074 227 q 1023 256 1000 301 q 976 345 976 391 l 976 391 q 976 416 983 443 q 989 470 1000 492 l 1000 492 l 1000 443 l 872 443 l 891 496 q 904 480 914 455 q 924 429 924 397 l 924 397 q 924 345 901 308 q 878 271 832 252 q 785 233 713 233 l 713 233 l 676 233 l 676 359 l 721 359 q 745 359 759 365 q 772 371 778 382 q 783 393 783 405 l 783 405 q 783 420 778 434 q 772 447 766 455 l 766 455 l 808 569 l 1115 569 l 1172 498 q 1162 482 1153 458 q 1144 433 1144 402 l 1144 402 q 1144 371 1158 347 q 1172 322 1206 322 l 1206 322 q 1228 322 1242 333 q 1256 343 1263 362 q 1270 380 1270 403 l 1270 403 q 1270 438 1259 467 q 1248 496 1231 525 l 1231 525 l 1368 582 q 1402 544 1424 498 q 1445 452 1445 395 l 1445 395 q 1445 334 1415 290 q 1385 246 1332 222 q 1279 197 1208 197 z"},"ൟ":{"ha":1447,"x_min":22,"x_max":1425,"o":"m 22 273 l 22 273 q 22 334 62 375 q 102 415 175 415 l 175 415 q 248 415 289 375 q 330 335 330 273 l 330 273 q 330 212 290 172 q 250 131 175 131 l 175 131 q 100 131 61 172 q 22 212 22 273 z m 134 273 l 134 273 q 134 252 145 239 q 155 226 175 226 l 175 226 q 196 226 207 239 q 217 252 217 274 l 217 274 q 217 295 206 308 q 195 320 175 320 l 175 320 q 155 320 145 308 q 134 295 134 273 z m 1118 273 l 1118 273 q 1118 334 1158 375 q 1198 415 1271 415 l 1271 415 q 1344 415 1385 375 q 1425 335 1425 273 l 1425 273 q 1425 212 1386 172 q 1346 131 1271 131 l 1271 131 q 1196 131 1157 172 q 1118 212 1118 273 z m 1230 273 l 1230 273 q 1230 252 1241 239 q 1251 226 1271 226 l 1271 226 q 1292 226 1303 239 q 1313 252 1313 274 l 1313 274 q 1313 295 1302 308 q 1291 320 1271 320 l 1271 320 q 1251 320 1241 308 q 1230 295 1230 273 z m 714 581 l 714 581 q 810 581 881 553 q 952 525 998 478 q 1044 430 1066 368 q 1088 306 1088 237 l 1088 237 q 1088 155 1061 100 q 1034 44 981 16 q 927 -12 848 -12 l 848 -12 q 770 -12 722 18 q 673 47 651 97 q 628 146 628 204 l 628 204 q 628 301 678 355 q 727 409 818 409 l 818 409 q 874 409 916 380 q 957 350 982 305 q 1007 259 1012 211 l 1012 211 l 944 208 q 939 232 929 252 q 918 272 901 284 q 884 296 861 296 l 861 296 q 831 296 815 275 q 798 253 798 204 l 798 204 q 798 171 805 151 q 812 131 824 122 q 836 113 852 113 l 852 113 q 873 113 887 125 q 901 137 908 165 q 915 192 915 238 l 915 238 q 915 256 914 273 q 913 290 911 305 l 911 305 q 910 309 911 318 q 912 326 911 330 l 911 330 q 906 363 882 391 q 858 419 818 436 q 778 453 724 453 l 724 453 q 664 453 623 434 q 582 414 562 376 q 541 338 541 284 l 541 284 q 541 242 552 205 q 562 168 581 133 q 600 98 628 62 l 628 62 l 493 -13 q 454 26 424 71 q 394 115 377 169 q 360 223 360 289 l 360 289 q 360 343 379 395 q 398 447 440 489 q 482 531 550 556 q 617 581 714 581 z"},"ൠ":{"ha":978,"x_min":29,"x_max":949,"o":"m 720 581 l 720 581 q 828 581 889 517 q 949 452 949 345 l 949 345 q 949 275 927 225 q 904 174 862 140 l 862 140 q 812 98 744 81 q 676 63 587 63 l 587 63 l 535 63 l 442 63 l 393 63 q 302 63 234 81 q 166 98 116 140 l 116 140 q 75 175 52 226 q 29 277 29 347 l 29 347 q 29 416 57 469 q 84 522 137 552 q 189 581 265 581 l 265 581 q 332 581 378 557 q 424 532 448 491 q 472 449 472 398 l 472 398 q 472 334 448 296 q 424 257 380 240 q 335 222 274 222 l 274 222 q 236 222 201 238 q 165 254 135 280 q 105 305 83 331 l 83 331 l 127 422 q 148 395 166 375 q 184 355 203 345 q 222 334 246 334 l 246 334 q 270 334 287 349 q 303 363 303 402 l 303 402 q 303 432 290 448 q 277 463 255 463 l 255 463 q 236 463 221 451 q 206 439 198 415 q 189 391 189 352 l 189 352 q 189 337 190 324 q 191 311 194 299 l 194 299 l 196 268 q 210 237 238 218 q 265 199 303 189 q 340 179 385 176 q 430 172 480 172 l 480 172 l 497 172 q 546 172 592 176 q 637 179 675 189 q 713 199 741 218 q 768 237 782 268 l 782 268 l 784 298 q 787 310 788 324 q 789 337 789 352 l 789 352 q 789 391 781 415 q 773 439 759 451 q 744 463 726 463 l 726 463 q 702 463 689 447 q 675 431 675 399 l 675 399 q 675 362 692 348 q 709 334 731 334 l 731 334 q 756 334 775 344 q 794 354 812 374 q 830 394 851 422 l 851 422 l 895 331 q 874 305 844 280 q 813 254 777 238 q 741 222 700 222 l 700 222 q 641 222 597 239 q 553 256 530 295 q 506 333 506 395 l 506 395 q 506 449 531 491 q 556 533 604 557 q 652 581 720 581 z m 496 -261 l 496 -261 q 365 -261 276 -241 q 187 -221 142 -176 q 97 -132 97 -59 l 97 -59 q 97 -4 126 32 q 154 67 201 89 q 248 110 305 119 q 361 128 416 128 l 416 128 l 562 128 q 617 128 674 119 q 730 110 777 89 q 824 67 853 32 q 881 -4 881 -59 l 881 -59 q 881 -132 837 -176 q 792 -221 707 -241 q 621 -261 496 -261 z m 490 -140 l 490 -140 q 566 -140 616 -130 q 666 -121 692 -99 q 717 -77 717 -41 l 717 -41 q 717 -12 702 7 q 686 25 658 36 q 629 46 589 51 q 548 55 499 55 l 499 55 l 479 55 q 413 55 364 47 q 315 39 288 19 q 261 -2 261 -41 l 261 -41 q 261 -77 287 -99 q 312 -121 363 -130 q 414 -140 490 -140 z m 567 40 l 567 40 q 599 40 620 29 q 641 17 653 -1 q 664 -20 669 -40 q 673 -60 673 -78 l 673 -78 l 673 -108 l 580 -108 l 580 -98 q 580 -79 576 -67 q 572 -55 558 -55 l 558 -55 q 542 -55 538 -67 q 534 -79 534 -97 l 534 -97 l 534 -108 l 444 -108 l 444 -97 q 444 -78 440 -66 q 435 -55 421 -55 l 421 -55 q 405 -55 402 -68 q 398 -81 398 -98 l 398 -98 l 398 -108 l 305 -108 l 305 -78 q 305 -61 309 -40 q 313 -20 324 -1 q 335 17 357 29 q 378 40 411 40 l 411 40 q 440 40 457 31 q 474 21 489 6 l 489 6 q 505 24 524 32 q 542 40 567 40 z"},"ൡ":{"ha":1424,"x_min":33,"x_max":1402,"o":"m 390 581 l 390 581 q 475 581 535 559 q 594 536 645 481 l 645 481 l 675 393 l 701 224 l 701 0 l 525 0 l 525 283 q 525 346 516 378 q 507 409 484 428 l 484 428 q 468 441 444 448 q 420 455 387 455 l 387 455 q 335 455 290 432 q 245 408 218 361 q 191 314 191 243 l 191 243 l 191 238 q 191 184 200 156 q 208 128 222 118 q 236 108 252 108 l 252 108 q 267 108 277 115 q 286 121 292 136 q 297 150 297 173 l 297 173 q 297 208 284 225 q 270 241 247 241 l 247 241 q 218 241 195 222 q 171 203 134 159 l 134 159 l 111 277 q 148 311 192 335 q 236 358 294 358 l 294 358 q 353 358 391 336 q 429 313 448 273 q 467 233 467 181 l 467 181 q 467 121 444 78 q 420 34 374 11 q 327 -12 257 -12 l 257 -12 q 193 -12 143 14 q 92 40 63 97 q 33 153 33 245 l 33 245 q 33 354 80 429 q 126 504 207 543 q 288 581 390 581 z m 856 581 l 856 581 q 946 581 1016 552 q 1085 522 1130 467 q 1175 411 1193 329 l 1193 329 q 1198 307 1200 283 q 1202 259 1202 233 l 1202 233 q 1202 151 1178 96 q 1153 41 1103 15 q 1052 -12 973 -12 l 973 -12 q 905 -12 856 13 q 807 38 782 83 q 756 128 756 189 l 756 189 q 756 296 832 353 q 908 410 1043 410 l 1043 410 q 1059 410 1074 410 q 1089 409 1103 407 l 1103 407 l 1143 405 q 1222 390 1280 351 q 1338 311 1370 249 q 1402 187 1402 103 l 1402 103 q 1402 45 1387 -9 q 1371 -64 1333 -107 q 1295 -150 1230 -175 q 1165 -201 1067 -201 l 1067 -201 q 1024 -201 983 -194 q 942 -188 904 -176 l 904 -176 l 950 -56 q 981 -65 1008 -68 q 1034 -72 1063 -72 l 1063 -72 q 1118 -72 1152 -55 q 1186 -38 1204 -10 q 1222 17 1229 48 q 1235 79 1235 106 l 1235 106 q 1235 152 1226 187 q 1216 221 1197 245 q 1177 268 1146 281 l 1146 281 l 1105 288 q 1092 291 1078 292 q 1063 293 1047 293 l 1047 293 q 1002 293 976 279 q 949 264 938 240 q 926 215 926 185 l 926 185 q 926 161 932 145 q 938 128 950 120 q 962 112 978 112 l 978 112 q 1007 112 1024 137 q 1040 162 1040 232 l 1040 232 q 1040 259 1037 283 q 1034 306 1028 327 l 1028 327 l 1013 372 q 997 397 975 416 q 952 434 923 444 q 893 453 854 453 l 854 453 q 819 453 795 445 q 771 437 753 423 l 753 423 q 732 407 721 383 q 709 359 705 328 q 701 297 701 258 l 701 258 l 701 212 l 569 446 q 601 486 640 516 q 679 546 732 564 q 785 581 856 581 z"},"ൢ":{"ha":0,"x_min":-881,"x_max":-26,"o":"m -622 30 l -622 30 q -553 30 -499 5 q -446 -21 -412 -77 l -412 -77 l -381 -168 l -381 -334 l -523 -334 l -523 -188 q -523 -151 -528 -126 q -533 -102 -548 -88 l -548 -88 q -560 -75 -580 -68 q -600 -61 -628 -61 l -628 -61 q -660 -61 -685 -68 q -710 -76 -727 -93 q -745 -110 -753 -137 l -753 -137 q -755 -146 -756 -156 q -758 -167 -758 -182 l -758 -182 q -758 -222 -744 -235 q -731 -248 -716 -248 l -716 -248 q -698 -248 -689 -238 q -681 -229 -681 -209 l -681 -209 q -681 -190 -691 -181 q -701 -172 -719 -172 l -719 -172 q -744 -172 -765 -186 q -786 -201 -813 -231 l -813 -231 l -837 -158 q -808 -128 -768 -106 q -728 -85 -687 -85 l -687 -85 q -621 -85 -590 -118 q -559 -151 -559 -206 l -559 -206 q -559 -265 -594 -301 q -630 -337 -707 -337 l -707 -337 q -791 -337 -836 -292 q -882 -248 -882 -170 l -882 -170 q -882 -103 -846 -58 q -811 -14 -751 8 q -692 30 -622 30 z m -276 30 l -276 30 q -207 30 -150 8 q -94 -15 -60 -60 q -27 -105 -27 -175 l -27 -175 q -27 -255 -67 -296 q -108 -337 -191 -337 l -191 -337 q -245 -337 -278 -318 q -312 -299 -327 -267 q -342 -236 -342 -199 l -342 -199 q -342 -156 -324 -128 q -307 -100 -277 -86 q -247 -72 -209 -72 l -209 -72 q -178 -72 -152 -85 q -126 -99 -104 -127 q -82 -155 -64 -198 l -64 -198 l -125 -204 q -130 -185 -144 -166 q -158 -148 -181 -148 l -181 -148 q -198 -148 -208 -159 q -219 -171 -219 -198 l -219 -198 q -219 -223 -210 -235 q -201 -248 -187 -248 l -187 -248 q -169 -248 -160 -233 q -151 -218 -151 -178 l -151 -178 q -151 -165 -152 -153 q -154 -142 -158 -131 l -158 -131 l -164 -113 q -175 -93 -191 -82 q -208 -71 -228 -66 q -249 -61 -271 -61 l -271 -61 q -294 -61 -312 -66 q -331 -71 -345 -83 l -345 -83 q -361 -96 -370 -120 q -380 -145 -381 -193 l -381 -193 l -499 -160 q -490 -84 -456 -42 q -422 -1 -374 15 q -326 30 -276 30 z"},"ൣ":{"ha":0,"x_min":-881,"x_max":108,"o":"m -622 30 l -622 30 q -553 30 -499 5 q -446 -21 -412 -77 l -412 -77 l -381 -168 l -381 -334 l -523 -334 l -523 -188 q -523 -151 -528 -126 q -533 -102 -548 -88 l -548 -88 q -560 -75 -580 -68 q -600 -61 -628 -61 l -628 -61 q -660 -61 -685 -68 q -710 -76 -727 -93 q -745 -110 -753 -137 l -753 -137 q -755 -146 -756 -156 q -758 -167 -758 -182 l -758 -182 q -758 -222 -744 -235 q -731 -248 -716 -248 l -716 -248 q -698 -248 -689 -238 q -681 -229 -681 -209 l -681 -209 q -681 -190 -691 -181 q -701 -172 -719 -172 l -719 -172 q -744 -172 -765 -186 q -786 -201 -813 -231 l -813 -231 l -837 -158 q -808 -128 -768 -106 q -728 -85 -687 -85 l -687 -85 q -621 -85 -590 -118 q -559 -151 -559 -206 l -559 -206 q -559 -265 -594 -301 q -630 -337 -707 -337 l -707 -337 q -791 -337 -836 -292 q -882 -248 -882 -170 l -882 -170 q -882 -103 -846 -58 q -811 -14 -751 8 q -692 30 -622 30 z m -276 30 l -276 30 q -209 30 -153 7 q -98 -16 -64 -61 q -31 -106 -31 -173 l -31 -173 q -31 -229 -49 -265 q -67 -302 -102 -319 q -138 -337 -192 -337 l -192 -337 q -246 -337 -279 -319 q -312 -301 -327 -270 q -342 -240 -342 -204 l -342 -204 q -342 -130 -286 -96 q -231 -62 -140 -62 l -140 -62 q -127 -62 -113 -62 q -100 -63 -88 -64 l -88 -64 q -33 -68 11 -89 q 55 -110 82 -151 q 108 -192 108 -259 l 108 -259 q 108 -292 99 -319 q 90 -346 79 -362 l 79 -362 l -34 -326 q -28 -314 -23 -295 q -18 -277 -18 -253 l -18 -253 q -18 -209 -32 -184 q -46 -159 -78 -147 l -78 -147 l -101 -140 q -109 -138 -117 -137 q -125 -137 -132 -137 l -132 -137 q -168 -137 -193 -150 q -219 -163 -219 -204 l -219 -204 q -219 -225 -210 -236 q -201 -248 -187 -248 l -187 -248 q -169 -248 -160 -233 q -151 -219 -151 -185 l -151 -185 q -151 -164 -152 -152 q -154 -141 -158 -131 l -158 -131 l -164 -113 q -177 -90 -196 -79 q -215 -68 -234 -64 q -254 -61 -271 -61 l -271 -61 q -295 -61 -313 -66 q -331 -71 -345 -83 l -345 -83 q -361 -96 -370 -120 q -380 -145 -381 -193 l -381 -193 l -498 -160 q -491 -102 -468 -65 q -446 -28 -414 -7 q -383 13 -347 22 q -311 30 -276 30 z"},"൦":{"ha":599,"x_min":35,"x_max":564,"o":"m 300 33 l 300 33 q 218 33 159 62 q 99 90 67 146 q 35 201 35 281 l 35 281 q 35 360 68 417 q 100 473 159 503 q 218 532 299 532 l 299 532 q 388 532 447 501 q 505 469 535 413 q 564 356 564 281 l 564 281 q 564 205 532 149 q 500 93 441 63 q 382 33 300 33 z m 298 157 l 298 157 q 327 157 347 171 q 367 184 378 212 q 389 240 389 282 l 389 282 q 389 347 365 378 q 340 408 299 408 l 299 408 q 258 408 234 378 q 210 347 210 282 l 210 282 q 210 219 234 188 q 257 157 298 157 z"},"൧":{"ha":933,"x_min":12,"x_max":883,"o":"m 402 -79 l 402 -206 l 280 -206 q 209 -206 167 -199 q 124 -193 90 -176 l 90 -176 q 55 -158 34 -125 q 12 -92 12 -43 l 12 -43 q 12 1 28 32 q 44 63 72 83 l 72 83 q 96 99 124 109 q 152 118 190 122 q 227 126 279 126 l 279 126 l 463 126 l 490 0 l 282 0 q 248 0 233 -1 q 218 -3 208 -8 l 208 -8 q 198 -13 194 -20 q 189 -27 189 -37 l 189 -37 q 189 -57 204 -67 l 204 -67 q 214 -73 231 -76 q 247 -79 284 -79 l 284 -79 l 402 -79 z m 610 581 l 610 581 q 675 581 726 564 q 777 547 813 513 l 813 513 q 851 476 867 427 q 883 377 883 299 l 883 299 l 883 0 l 336 0 l 336 299 q 336 352 344 391 q 351 430 368 460 q 384 490 409 514 l 409 514 q 445 548 496 565 q 546 581 610 581 z m 611 453 l 611 453 q 588 453 571 447 q 553 440 541 426 l 541 426 q 524 407 518 377 q 511 347 511 295 l 511 295 l 511 126 l 708 126 l 708 294 q 708 346 703 377 q 697 408 680 426 l 680 426 q 669 440 653 447 q 637 453 611 453 z"},"൨":{"ha":872,"x_min":34,"x_max":853,"o":"m 357 581 l 357 581 q 448 581 510 556 q 571 530 609 489 q 646 447 663 395 q 679 343 679 291 l 679 291 q 679 235 665 193 q 651 151 624 114 q 597 76 559 35 l 559 35 l 606 126 l 853 126 l 853 0 l 490 0 l 425 80 q 446 108 463 140 q 480 171 490 208 q 500 244 500 286 l 500 286 q 500 337 484 375 q 467 412 436 433 q 405 454 359 454 l 359 454 q 317 454 284 435 q 251 415 233 378 q 215 340 215 286 l 215 286 q 215 243 226 206 q 236 168 255 133 q 274 98 302 62 l 302 62 l 166 -13 q 127 26 97 71 q 67 115 51 169 q 34 223 34 289 l 34 289 q 34 339 51 390 q 67 441 105 485 q 142 528 204 555 q 266 581 357 581 z"},"൩":{"ha":1110,"x_min":34,"x_max":1091,"o":"m 303 581 l 303 581 q 342 581 373 574 q 403 566 431 551 q 458 536 485 511 l 485 511 l 468 507 q 510 546 554 564 q 597 581 658 581 l 658 581 q 742 581 801 545 q 860 509 891 446 q 922 383 922 302 l 922 302 q 922 262 916 229 q 910 195 897 165 q 884 134 863 104 l 863 104 l 811 0 l 726 0 l 668 68 q 695 114 712 152 q 729 189 736 225 q 743 260 743 299 l 743 299 q 743 357 728 391 q 713 425 689 440 q 664 454 638 454 l 638 454 q 621 454 609 449 q 597 444 589 435 l 589 435 q 577 422 572 400 q 566 377 566 335 l 566 335 l 566 0 l 390 0 l 390 330 q 390 372 386 397 q 381 421 368 435 l 368 435 q 360 443 348 449 q 336 454 318 454 l 318 454 q 293 454 269 439 q 245 424 229 391 q 213 357 213 301 l 213 301 q 213 259 222 221 q 231 182 249 144 q 267 106 295 62 l 295 62 l 157 -13 q 116 38 89 87 q 62 136 48 188 q 34 240 34 301 l 34 301 q 34 380 65 443 q 95 506 155 544 q 215 581 303 581 z m 779 0 l 831 126 l 1091 126 l 1091 0 l 779 0 z"},"൪":{"ha":842,"x_min":34,"x_max":838,"o":"m 391 581 l 391 581 q 479 581 545 557 q 610 532 665 486 l 665 486 q 717 441 747 378 q 776 315 776 237 l 776 237 q 776 157 750 102 q 723 46 669 17 q 614 -12 528 -12 l 528 -12 q 450 -12 399 16 q 347 43 322 89 q 297 135 297 190 l 297 190 q 297 252 323 301 q 348 350 403 396 q 457 441 545 491 l 545 491 q 589 519 615 538 q 640 557 652 577 q 663 597 663 625 l 663 625 q 663 643 658 659 q 652 675 644 685 l 644 685 l 801 753 q 818 727 828 696 q 838 664 838 630 l 838 630 q 838 578 819 541 q 799 503 756 468 q 713 433 640 391 l 640 391 q 577 353 540 322 q 503 290 488 259 q 472 228 472 191 l 472 191 q 472 159 486 136 q 500 113 532 113 l 532 113 q 559 113 573 127 q 587 141 593 166 q 598 190 598 221 l 598 221 q 598 271 583 323 q 567 374 533 406 l 533 406 q 506 431 475 445 q 443 458 395 458 l 395 458 q 339 458 299 438 q 258 417 237 379 q 215 340 215 286 l 215 286 q 215 243 225 206 q 235 169 255 134 q 274 98 301 62 l 301 62 l 167 -13 q 128 26 98 71 q 68 115 51 169 q 34 223 34 289 l 34 289 q 34 341 53 394 q 71 446 113 488 q 155 530 224 556 q 292 581 391 581 z"},"൫":{"ha":1070,"x_min":37,"x_max":1032,"o":"m 541 732 l 541 732 q 667 732 760 699 q 852 665 913 604 q 973 543 1003 461 q 1032 379 1032 281 l 1032 281 q 1032 217 1017 140 q 1001 63 964 -12 l 964 -12 l 820 45 q 835 84 845 120 q 854 155 858 192 q 862 229 862 274 l 862 274 q 862 348 843 409 q 823 469 784 513 q 744 557 684 581 q 624 605 544 605 l 544 605 q 446 605 370 569 q 293 532 250 456 q 206 379 206 259 l 206 259 q 206 197 219 141 q 232 85 262 42 q 291 -1 339 -26 q 386 -51 454 -51 l 454 -51 q 539 -51 581 -16 q 623 18 623 78 l 623 78 q 623 109 611 132 q 599 155 577 169 q 554 182 521 182 l 521 182 l 513 182 l 513 305 l 525 305 q 554 305 571 309 q 588 313 599 321 l 599 321 q 608 328 613 338 q 617 348 617 362 l 617 362 q 617 387 600 402 q 582 416 552 416 l 552 416 q 518 416 495 397 q 471 377 460 342 q 448 307 448 262 l 448 262 q 448 205 462 158 q 476 111 503 58 l 503 58 l 356 -8 q 317 55 294 124 q 271 192 271 268 l 271 268 q 271 352 306 414 q 341 475 406 509 q 471 543 559 543 l 559 543 q 636 543 688 521 q 740 499 767 462 q 793 424 793 377 l 793 377 q 793 349 784 322 q 774 294 749 271 q 723 247 676 230 l 676 230 l 682 250 q 735 228 767 180 q 798 131 798 68 l 798 68 q 798 -14 757 -68 q 715 -123 640 -150 q 564 -178 461 -178 l 461 -178 q 328 -178 233 -126 q 137 -75 87 22 q 37 119 37 255 l 37 255 q 37 376 77 466 q 116 556 186 615 q 255 674 346 703 q 437 732 541 732 z"},"൬":{"ha":1274,"x_min":34,"x_max":1235,"o":"m 630 581 l 630 581 q 682 581 724 564 q 766 546 805 500 l 805 500 l 882 302 l 882 0 l 705 0 l 705 327 q 705 372 700 396 q 694 420 681 435 l 681 435 q 673 444 660 449 q 647 454 630 454 l 630 454 q 614 454 601 449 q 588 443 579 434 l 579 434 q 566 419 560 395 q 554 370 554 321 l 554 321 l 554 0 l 378 0 l 378 330 q 378 369 374 395 q 370 420 358 435 l 358 435 q 351 443 340 449 q 328 454 311 454 l 311 454 q 289 454 266 439 q 243 424 228 391 q 213 357 213 301 l 213 301 q 213 259 222 221 q 231 182 249 144 q 267 106 295 63 l 295 63 l 157 -12 q 116 39 89 88 q 61 136 48 188 q 34 240 34 301 l 34 301 q 34 380 64 443 q 93 506 152 544 q 210 581 296 581 l 296 581 q 354 581 396 565 q 437 548 477 511 l 477 511 l 451 500 q 484 539 527 560 q 570 581 630 581 z m 968 581 l 968 581 q 1101 581 1168 490 q 1235 398 1235 231 l 1235 231 q 1235 90 1199 -6 q 1162 -103 1078 -152 q 994 -201 851 -201 l 851 -201 q 824 -201 794 -199 q 763 -197 734 -192 l 734 -192 l 747 -65 q 767 -69 790 -71 q 812 -73 837 -73 l 837 -73 q 904 -73 947 -50 q 990 -27 1014 14 q 1037 54 1047 110 q 1056 166 1056 232 l 1056 232 q 1056 297 1045 347 q 1033 397 1010 426 q 987 454 952 454 l 952 454 q 935 454 924 449 q 912 444 904 435 l 904 435 q 890 420 886 397 q 882 374 882 334 l 882 334 l 882 10 l 715 10 l 715 309 l 784 506 q 826 545 868 563 q 909 581 968 581 z"},"൭":{"ha":794,"x_min":33,"x_max":757,"o":"m 407 581 l 407 581 q 503 581 570 552 q 637 522 678 471 q 719 419 738 353 q 757 287 757 213 l 757 213 q 757 114 733 37 q 708 -40 659 -93 q 609 -146 535 -173 q 460 -201 360 -201 l 360 -201 q 330 -201 299 -198 q 268 -196 239 -191 l 239 -191 l 252 -65 q 275 -69 297 -71 q 318 -73 343 -73 l 343 -73 q 409 -73 454 -51 q 499 -30 526 9 q 553 47 565 99 q 577 151 577 212 l 577 212 q 577 329 529 392 q 481 454 389 454 l 389 454 q 338 454 293 429 q 247 404 219 357 q 191 309 191 241 l 191 241 l 191 234 q 191 182 200 155 q 208 127 222 117 q 236 107 252 107 l 252 107 q 267 107 277 114 q 286 120 292 135 q 297 149 297 173 l 297 173 q 297 208 284 225 q 270 241 247 241 l 247 241 q 219 241 195 222 q 171 203 134 159 l 134 159 l 111 277 q 148 311 192 335 q 236 358 294 358 l 294 358 q 353 358 391 336 q 429 313 448 273 q 467 233 467 181 l 467 181 q 467 122 444 79 q 420 35 374 12 q 328 -12 257 -12 l 257 -12 q 194 -12 143 14 q 92 39 63 94 q 33 148 33 235 l 33 235 q 33 338 77 416 q 120 494 204 538 q 288 581 407 581 z"},"൮":{"ha":1007,"x_min":34,"x_max":954,"o":"m 357 581 l 357 581 q 448 581 510 556 q 571 530 609 489 q 646 447 663 395 q 679 343 679 291 l 679 291 q 679 235 665 193 q 651 151 624 114 q 597 76 559 35 l 559 35 l 606 126 l 778 126 l 778 569 l 954 569 l 954 195 l 877 0 l 490 0 l 425 80 q 446 108 463 140 q 480 171 490 208 q 500 244 500 286 l 500 286 q 500 337 484 375 q 467 412 436 433 q 405 454 359 454 l 359 454 q 317 454 284 435 q 251 415 233 378 q 215 340 215 286 l 215 286 q 215 243 226 206 q 236 168 255 133 q 274 98 302 62 l 302 62 l 166 -13 q 127 26 97 71 q 67 115 51 169 q 34 223 34 289 l 34 289 q 34 339 51 390 q 67 441 105 485 q 142 528 204 555 q 266 581 357 581 z m 611 -201 l 611 -201 q 586 -201 553 -198 q 520 -195 491 -189 l 491 -189 l 508 -64 q 527 -69 552 -71 q 577 -73 601 -73 l 601 -73 q 657 -73 692 -61 q 727 -49 746 -28 q 765 -8 773 18 q 780 43 781 69 l 781 69 l 954 321 l 954 146 q 954 75 945 24 q 935 -27 915 -63 q 894 -100 863 -128 l 863 -128 q 820 -167 756 -184 q 692 -201 611 -201 z"},"൯":{"ha":1174,"x_min":34,"x_max":1170,"o":"m 304 581 l 304 581 q 343 581 374 574 q 405 566 434 550 q 462 534 492 507 l 492 507 l 566 206 l 566 0 l 390 0 l 390 330 q 390 372 386 397 q 381 421 368 435 l 368 435 q 360 443 348 449 q 336 454 318 454 l 318 454 q 293 454 269 439 q 245 424 229 391 q 213 357 213 301 l 213 301 q 213 259 222 221 q 231 182 249 144 q 267 106 295 62 l 295 62 l 157 -13 q 116 38 89 87 q 62 136 48 188 q 34 240 34 301 l 34 301 q 34 380 65 443 q 95 506 155 544 q 215 581 304 581 z m 719 581 l 719 581 q 813 581 878 557 q 942 532 997 484 l 997 484 q 1048 439 1078 377 q 1108 315 1108 237 l 1108 237 q 1108 157 1082 102 q 1055 46 1001 17 q 946 -12 860 -12 l 860 -12 q 782 -12 731 16 q 679 43 654 89 q 629 135 629 190 l 629 190 q 629 252 655 301 q 680 350 735 396 q 789 441 877 491 l 877 491 q 921 519 947 538 q 972 557 984 577 q 995 597 995 625 l 995 625 q 995 643 990 659 q 984 675 976 685 l 976 685 l 1133 753 q 1150 727 1160 696 q 1170 664 1170 630 l 1170 630 q 1170 578 1151 541 q 1131 503 1088 468 q 1045 433 972 391 l 972 391 q 909 353 872 322 q 835 290 820 259 q 804 228 804 191 l 804 191 q 804 159 818 136 q 832 113 864 113 l 864 113 q 891 113 905 127 q 919 141 925 166 q 930 190 930 221 l 930 221 q 930 272 914 323 q 898 373 863 406 l 863 406 q 837 431 805 445 q 772 458 719 458 l 719 458 q 680 458 655 450 q 630 442 614 429 l 614 429 q 597 414 586 394 q 575 373 571 343 q 566 312 566 267 l 566 267 l 566 29 l 398 29 l 398 312 l 441 469 q 469 500 504 526 q 539 551 590 566 q 641 581 719 581 z"},"൰":{"ha":1074,"x_min":-33,"x_max":1040,"o":"m 175 569 l 352 569 l 352 168 l 343 137 q 343 49 329 -13 q 314 -76 278 -120 l 278 -120 q 245 -160 194 -180 q 143 -201 63 -201 l 63 -201 q 42 -201 17 -199 q -9 -197 -33 -191 l -33 -191 l -18 -65 q -7 -68 9 -70 q 24 -73 40 -73 l 40 -73 q 76 -73 99 -65 q 122 -58 138 -44 l 138 -44 q 159 -23 167 10 q 175 43 175 108 l 175 108 l 175 569 z m 776 -12 l 776 -12 q 717 -12 674 6 q 631 23 591 60 l 591 60 l 614 69 q 580 29 539 9 q 498 -12 438 -12 l 438 -12 q 398 -12 370 -1 q 342 9 320 28 q 298 47 276 71 l 276 71 l 199 258 l 201 551 l 352 538 l 352 244 q 352 199 358 174 q 364 149 378 134 l 378 134 q 387 125 400 120 q 413 115 432 115 l 432 115 q 449 115 463 121 q 476 126 485 135 l 485 135 q 499 150 505 176 q 511 201 511 249 l 511 249 l 511 569 l 688 569 l 688 233 q 688 193 693 171 q 697 148 710 134 l 710 134 q 717 126 729 121 q 741 115 760 115 l 760 115 q 784 115 807 130 q 830 144 846 179 q 861 213 861 270 l 861 270 q 861 312 853 350 q 844 388 826 426 q 807 464 780 506 l 780 506 l 916 581 q 956 530 984 482 q 1011 433 1026 381 q 1040 329 1040 267 l 1040 267 q 1040 188 1010 125 q 979 62 920 25 q 861 -12 776 -12 z"},"൱":{"ha":961,"x_min":34,"x_max":922,"o":"m 304 581 l 304 581 q 343 581 374 574 q 405 566 434 550 q 462 534 492 507 l 492 507 l 566 206 l 566 0 l 390 0 l 390 330 q 390 372 386 397 q 381 421 368 435 l 368 435 q 360 443 348 449 q 336 454 318 454 l 318 454 q 293 454 269 439 q 245 424 229 391 q 213 357 213 301 l 213 301 q 213 259 222 221 q 231 182 249 144 q 267 106 295 62 l 295 62 l 157 -13 q 116 38 89 87 q 62 136 48 188 q 34 240 34 301 l 34 301 q 34 380 65 443 q 95 506 155 544 q 215 581 304 581 z m 653 581 l 653 581 q 743 581 803 540 q 862 499 892 421 q 922 343 922 231 l 922 231 q 922 90 886 -6 q 850 -103 766 -152 q 681 -201 539 -201 l 539 -201 q 511 -201 481 -199 q 450 -197 421 -192 l 421 -192 l 434 -65 q 454 -69 477 -71 q 499 -73 524 -73 l 524 -73 q 591 -73 634 -50 q 677 -27 701 14 q 724 54 734 110 q 743 166 743 232 l 743 232 q 743 297 732 347 q 720 397 697 426 q 673 454 638 454 l 638 454 q 621 454 609 449 q 596 444 589 435 l 589 435 q 575 420 571 397 q 566 374 566 334 l 566 334 l 566 10 l 399 10 l 399 309 l 469 506 q 510 545 552 563 q 594 581 653 581 z"},"൲":{"ha":1505,"x_min":32,"x_max":1487,"o":"m 1291 569 l 1291 569 q 1363 569 1406 546 q 1449 523 1468 486 q 1487 449 1487 408 l 1487 408 q 1487 360 1470 326 q 1453 292 1424 272 l 1424 272 q 1398 256 1371 248 q 1343 239 1310 236 q 1276 233 1230 233 l 1230 233 l 982 233 l 982 359 l 1243 359 q 1277 359 1292 362 q 1307 364 1315 371 l 1315 371 q 1323 376 1327 385 q 1330 394 1330 406 l 1330 406 q 1330 425 1320 436 q 1309 446 1292 446 l 1292 446 q 1268 446 1258 432 q 1247 417 1247 396 l 1247 396 q 1247 367 1259 347 q 1271 326 1286 309 l 1286 309 l 1132 302 q 1117 322 1107 352 q 1097 381 1097 409 l 1097 409 q 1097 462 1123 498 q 1148 533 1192 551 q 1236 569 1291 569 z m 303 581 l 303 581 q 343 581 377 573 q 410 565 441 547 q 472 529 504 500 l 504 500 l 564 222 l 564 0 l 388 0 l 388 330 q 388 372 384 397 q 379 421 366 435 l 366 435 q 358 443 346 449 q 334 454 316 454 l 316 454 q 291 454 267 439 q 243 424 227 391 q 211 357 211 301 l 211 301 q 211 259 220 221 q 229 182 247 144 q 265 106 293 62 l 293 62 l 155 -13 q 115 38 88 87 q 60 136 46 188 q 32 240 32 301 l 32 301 q 32 380 63 443 q 93 506 154 544 q 214 581 303 581 z m 709 581 l 709 581 q 791 581 856 556 q 920 530 965 484 q 1010 437 1034 375 q 1057 313 1057 239 l 1057 239 q 1057 151 1030 96 q 1002 40 950 14 q 897 -12 820 -12 l 820 -12 q 740 -12 694 14 q 647 39 628 80 q 608 121 608 165 l 608 165 q 608 220 632 260 q 656 299 696 321 l 696 321 q 721 336 750 344 q 779 352 818 356 q 856 359 908 359 l 908 359 l 1160 359 l 1160 233 l 907 233 q 862 233 840 230 q 818 226 804 216 l 804 216 q 791 208 785 195 q 779 181 779 163 l 779 163 q 779 141 790 127 q 801 112 823 112 l 823 112 q 840 112 854 122 q 868 132 876 159 q 884 186 884 234 l 884 234 q 884 248 884 261 q 884 273 882 285 l 882 285 l 878 319 q 869 362 846 392 q 822 422 788 438 q 754 453 708 453 l 708 453 q 679 453 656 447 q 632 440 614 424 l 614 424 q 597 411 586 390 q 575 368 570 337 q 564 305 564 259 l 564 259 l 564 183 l 466 241 l 462 483 q 485 508 519 530 q 553 552 601 567 q 648 581 709 581 z"},"൳":{"ha":754,"x_min":32,"x_max":732,"o":"m 257 -12 l 257 -12 q 193 -12 142 14 q 91 39 62 94 q 32 148 32 234 l 32 234 q 32 314 63 373 q 93 431 152 469 l 152 469 q 192 494 235 509 q 278 523 335 529 q 391 534 471 534 l 471 534 l 732 534 l 732 405 l 479 405 q 424 405 387 403 q 350 401 326 396 q 301 391 282 384 l 282 384 q 250 372 230 353 q 209 334 197 308 l 197 308 l 193 274 q 192 262 192 251 q 191 239 191 227 l 191 227 q 191 179 200 153 q 208 127 222 117 q 236 107 252 107 l 252 107 q 266 107 276 114 q 286 121 291 136 q 296 150 296 173 l 296 173 q 296 208 283 225 q 270 241 246 241 l 246 241 q 218 241 195 222 q 171 203 134 159 l 134 159 l 111 277 q 148 311 192 335 q 235 358 293 358 l 293 358 q 352 358 390 336 q 428 313 447 273 q 466 233 466 181 l 466 181 q 466 121 443 78 q 420 34 374 11 q 327 -12 257 -12 z"},"൴":{"ha":993,"x_min":32,"x_max":959,"o":"m 489 789 l 665 789 l 665 222 q 665 198 667 180 q 669 162 673 150 q 676 138 683 129 l 683 129 q 689 120 699 116 q 709 111 723 111 l 723 111 q 741 111 754 121 q 766 130 773 153 q 780 176 780 215 l 780 215 q 780 263 766 302 q 752 341 727 371 q 702 400 669 420 q 636 440 598 449 l 598 449 l 553 452 q 536 455 518 456 q 499 457 481 457 l 481 457 q 430 457 379 446 q 327 434 285 409 q 242 384 216 344 q 190 304 190 247 l 190 247 l 190 232 q 190 182 199 155 q 207 128 221 118 q 235 107 251 107 l 251 107 q 266 107 276 114 q 285 121 291 136 q 296 150 296 173 l 296 173 q 296 208 283 225 q 269 241 246 241 l 246 241 q 217 241 194 222 q 170 203 133 159 l 133 159 l 110 277 q 147 311 191 335 q 235 358 293 358 l 293 358 q 352 358 390 336 q 428 313 447 274 q 466 234 466 181 l 466 181 q 466 122 443 79 q 419 35 373 12 q 326 -12 256 -12 l 256 -12 q 192 -12 142 14 q 91 39 62 94 q 32 149 32 237 l 32 237 q 32 323 66 388 q 100 452 161 495 q 222 538 306 560 q 390 581 490 581 l 490 581 q 510 581 529 581 q 548 580 566 578 l 566 578 l 612 574 q 674 568 736 544 q 797 519 848 476 q 898 433 929 370 q 959 307 959 224 l 959 224 q 959 153 932 100 q 905 47 852 18 q 799 -12 718 -12 l 718 -12 q 665 -12 627 0 q 588 11 562 33 l 562 33 q 534 55 519 86 q 503 116 496 159 q 489 202 489 263 l 489 263 l 489 789 z"},"൵":{"ha":1309,"x_min":33,"x_max":1305,"o":"m 390 581 l 390 581 q 475 581 535 559 q 594 536 645 481 l 645 481 l 668 381 l 701 225 l 701 0 l 525 0 l 525 283 q 525 346 516 378 q 507 409 484 428 l 484 428 q 468 441 444 448 q 420 455 387 455 l 387 455 q 335 455 290 432 q 245 408 218 361 q 191 314 191 243 l 191 243 l 191 238 q 191 184 200 156 q 208 127 222 117 q 236 107 252 107 l 252 107 q 267 107 277 114 q 286 120 292 135 q 297 149 297 173 l 297 173 q 297 208 284 225 q 270 241 247 241 l 247 241 q 218 241 195 222 q 171 203 134 159 l 134 159 l 111 277 q 148 311 192 335 q 236 358 294 358 l 294 358 q 353 358 391 336 q 429 313 448 273 q 467 233 467 181 l 467 181 q 467 121 444 78 q 420 34 374 11 q 327 -12 257 -12 l 257 -12 q 193 -12 143 14 q 92 40 63 97 q 33 153 33 245 l 33 245 q 33 354 80 429 q 126 504 207 543 q 288 581 390 581 z m 854 581 l 854 581 q 948 581 1013 557 q 1077 532 1132 484 l 1132 484 q 1183 439 1213 377 q 1243 315 1243 237 l 1243 237 q 1243 157 1217 102 q 1190 46 1136 17 q 1081 -12 995 -12 l 995 -12 q 917 -12 866 16 q 814 43 789 89 q 764 135 764 190 l 764 190 q 764 252 790 301 q 815 350 870 396 q 924 441 1012 491 l 1012 491 q 1056 519 1082 538 q 1107 557 1119 577 q 1130 597 1130 625 l 1130 625 q 1130 643 1125 659 q 1119 675 1111 685 l 1111 685 l 1268 753 q 1285 727 1295 696 q 1305 664 1305 630 l 1305 630 q 1305 578 1286 541 q 1266 503 1223 468 q 1180 433 1107 391 l 1107 391 q 1044 353 1007 322 q 970 290 955 259 q 939 228 939 191 l 939 191 q 939 159 953 136 q 967 113 999 113 l 999 113 q 1026 113 1040 127 q 1054 141 1060 166 q 1065 190 1065 221 l 1065 221 q 1065 272 1049 323 q 1033 373 998 406 l 998 406 q 972 431 940 445 q 907 458 854 458 l 854 458 q 815 458 790 450 q 765 442 749 429 l 749 429 q 732 414 721 394 q 710 373 706 343 q 701 312 701 267 l 701 267 l 701 29 l 533 29 l 533 312 l 576 469 q 604 500 639 526 q 674 551 725 566 q 776 581 854 581 z"},"൶":{"ha":1406,"x_min":27,"x_max":1358,"o":"m 264 372 l 264 372 q 348 372 399 343 q 449 314 473 270 q 496 225 496 178 l 496 178 q 496 154 490 127 q 483 99 471 77 l 471 77 l 471 126 l 699 126 l 716 0 l 357 0 l 300 71 q 310 88 319 112 q 328 136 328 167 l 328 167 q 328 199 314 223 q 300 247 266 247 l 266 247 q 244 247 230 237 q 215 226 209 208 q 202 189 202 166 l 202 166 q 202 131 213 103 q 224 74 241 44 l 241 44 l 104 -13 q 70 26 49 72 q 27 117 27 174 l 27 174 q 27 235 57 280 q 86 324 140 348 q 193 372 264 372 z m 1000 581 l 1000 581 q 1088 581 1154 563 q 1220 544 1264 507 l 1264 507 q 1295 481 1316 448 q 1336 415 1347 368 q 1358 320 1358 248 l 1358 248 l 1358 0 l 662 0 l 662 246 q 662 318 673 367 q 684 416 706 451 q 728 485 759 510 l 759 510 q 802 546 863 564 q 924 581 1000 581 z m 918 449 l 918 449 q 900 449 887 440 q 873 431 863 416 l 863 416 q 850 395 843 361 q 836 327 836 261 l 836 261 l 836 68 l 788 68 q 835 117 874 169 q 913 221 937 276 q 960 331 960 387 l 960 387 q 960 407 956 421 q 951 434 942 442 q 933 449 918 449 z m 1133 359 l 1133 359 q 1133 314 1120 274 q 1106 233 1082 195 q 1057 156 1023 117 l 1023 117 l 1011 121 q 1030 124 1052 125 q 1074 125 1098 125 l 1098 125 l 1183 125 l 1183 255 q 1183 319 1173 360 q 1163 400 1142 425 q 1120 449 1086 463 l 1086 463 l 1087 472 q 1109 451 1121 424 q 1133 396 1133 359 z"},"൷":{"ha":1830,"x_min":27,"x_max":1810,"o":"m 264 372 l 264 372 q 348 372 399 343 q 449 314 473 270 q 496 225 496 178 l 496 178 q 496 154 490 127 q 483 99 471 77 l 471 77 l 471 126 l 713 126 l 728 0 l 357 0 l 300 71 q 310 88 319 112 q 328 136 328 167 l 328 167 q 328 199 314 223 q 300 247 266 247 l 266 247 q 244 247 230 237 q 215 226 209 208 q 202 189 202 166 l 202 166 q 202 131 213 103 q 224 74 241 44 l 241 44 l 104 -13 q 70 26 49 72 q 27 117 27 174 l 27 174 q 27 235 57 280 q 86 324 140 348 q 193 372 264 372 z m 842 581 l 842 581 q 882 581 916 573 q 949 565 980 547 q 1011 529 1043 500 l 1043 500 l 1103 287 l 1103 230 l 927 230 l 927 330 q 927 372 923 397 q 918 421 905 435 l 905 435 q 897 443 885 449 q 873 454 855 454 l 855 454 q 830 454 806 439 q 782 424 766 391 q 750 357 750 301 l 750 301 q 750 240 769 186 q 787 132 825 68 l 825 68 l 768 0 l 682 0 l 632 102 q 611 133 597 164 q 583 195 577 228 q 571 261 571 301 l 571 301 q 571 380 602 443 q 632 506 693 544 q 753 581 842 581 z m 1248 581 l 1248 581 q 1332 581 1397 556 q 1462 530 1507 484 q 1551 437 1574 375 q 1596 313 1596 239 l 1596 239 q 1596 151 1569 96 q 1541 40 1489 14 q 1436 -12 1359 -12 l 1359 -12 q 1279 -12 1233 14 q 1186 39 1167 80 q 1147 121 1147 165 l 1147 165 q 1147 220 1171 260 q 1195 299 1235 321 l 1235 321 q 1260 336 1289 344 q 1318 352 1357 356 q 1395 359 1447 359 l 1447 359 l 1482 359 l 1482 233 l 1446 233 q 1401 233 1379 230 q 1357 226 1343 216 l 1343 216 q 1330 208 1324 195 q 1318 181 1318 163 l 1318 163 q 1318 141 1330 127 q 1341 112 1364 112 l 1364 112 q 1381 112 1395 122 q 1409 131 1418 158 q 1426 184 1426 234 l 1426 234 q 1426 248 1426 261 q 1425 273 1423 285 l 1423 285 l 1420 319 q 1409 361 1386 391 q 1363 421 1328 437 q 1293 453 1247 453 l 1247 453 q 1218 453 1195 447 q 1171 440 1153 424 l 1153 424 q 1136 411 1125 390 q 1114 368 1109 337 q 1103 305 1103 259 l 1103 259 l 1103 244 l 1005 241 l 1001 483 q 1024 508 1058 530 q 1092 552 1140 567 q 1187 581 1248 581 z m 1631 448 l 1797 479 q 1802 465 1806 445 q 1810 425 1810 402 l 1810 402 q 1810 357 1795 325 q 1780 293 1752 274 l 1752 274 q 1717 248 1671 241 q 1624 233 1559 233 l 1559 233 l 1467 233 l 1467 359 l 1545 359 q 1572 359 1590 363 q 1608 367 1619 375 l 1619 375 q 1628 383 1632 393 q 1636 403 1636 418 l 1636 418 q 1636 425 1635 434 q 1633 443 1631 448 l 1631 448 z"},"൸":{"ha":2258,"x_min":8,"x_max":2209,"o":"m 1436 581 l 1436 581 q 1469 581 1497 576 q 1524 570 1547 560 q 1570 549 1591 533 q 1612 516 1632 493 l 1632 493 l 1598 493 q 1629 523 1667 543 q 1705 562 1751 572 q 1797 581 1851 581 l 1851 581 q 1940 581 2006 563 q 2072 544 2116 507 l 2116 507 q 2146 481 2167 448 q 2188 415 2199 367 q 2209 319 2209 248 l 2209 248 l 2209 0 l 1686 0 l 1686 118 q 1720 156 1748 200 q 1776 243 1794 290 q 1811 337 1811 387 l 1811 387 q 1811 407 1807 421 q 1803 434 1794 442 q 1785 449 1770 449 l 1770 449 q 1752 449 1739 440 q 1726 431 1716 415 l 1716 415 q 1704 398 1698 366 q 1691 333 1691 280 l 1691 280 l 1691 230 l 1515 230 l 1515 319 q 1515 370 1511 396 q 1507 422 1491 437 l 1491 437 q 1483 445 1472 450 q 1460 454 1444 454 l 1444 454 q 1425 454 1413 449 q 1401 443 1392 432 l 1392 432 q 1380 417 1376 390 q 1371 362 1371 319 l 1371 319 l 1371 255 q 1371 201 1365 163 q 1358 124 1344 97 q 1330 69 1308 48 l 1308 48 q 1277 18 1231 3 q 1184 -12 1120 -12 l 1120 -12 q 1054 -12 1009 3 q 964 18 933 48 l 933 48 q 911 69 897 96 q 883 123 876 162 q 869 200 869 255 l 869 255 l 869 319 q 869 370 865 396 q 860 422 845 437 l 845 437 q 837 445 826 450 q 814 454 798 454 l 798 454 q 779 454 767 449 q 755 443 746 432 l 746 432 q 734 417 730 390 q 725 362 725 319 l 725 319 l 725 255 q 725 176 708 125 q 690 74 652 41 l 652 41 q 621 15 579 2 q 537 -12 487 -12 l 487 -12 q 424 -12 378 8 q 331 27 295 68 l 295 68 l 315 62 q 288 35 263 19 q 238 2 210 -5 q 181 -12 143 -12 l 143 -12 q 105 -12 73 -3 q 41 5 8 22 l 8 22 l 53 137 q 72 128 93 122 q 113 115 136 115 l 136 115 q 159 115 172 121 q 185 126 194 134 l 194 134 q 208 148 213 171 q 218 194 218 234 l 218 234 l 218 569 l 394 569 l 394 240 q 394 198 399 173 q 403 148 418 134 l 418 134 q 428 124 440 120 q 452 115 470 115 l 470 115 q 487 115 499 120 q 510 125 519 133 l 519 133 q 536 148 541 176 q 546 204 546 254 l 546 254 l 546 315 q 546 369 553 408 q 560 446 575 474 q 589 501 611 521 l 611 521 q 643 551 690 566 q 736 581 798 581 l 798 581 q 862 581 908 566 q 954 550 985 521 l 985 521 q 1007 501 1021 474 q 1035 446 1042 408 q 1049 369 1049 314 l 1049 314 l 1049 249 q 1049 199 1054 173 q 1058 147 1073 132 l 1073 132 q 1081 124 1093 120 q 1104 115 1120 115 l 1120 115 q 1139 115 1151 121 q 1163 126 1172 137 l 1172 137 q 1185 152 1189 179 q 1193 206 1193 248 l 1193 248 l 1193 315 q 1193 369 1200 408 q 1206 446 1221 474 q 1235 501 1257 521 l 1257 521 q 1289 551 1335 566 q 1380 581 1436 581 z m 1985 359 l 1985 359 q 1985 314 1972 274 q 1958 233 1934 195 q 1909 156 1876 117 l 1876 117 l 1862 121 q 1882 124 1904 125 q 1926 125 1950 125 l 1950 125 l 2035 125 l 2035 255 q 2035 319 2025 360 q 2014 400 1993 425 q 1972 449 1938 463 l 1938 463 l 1939 472 q 1962 451 1974 424 q 1985 396 1985 359 z"},"൹":{"ha":1184,"x_min":34,"x_max":1162,"o":"m 304 581 l 304 581 q 345 581 379 573 q 412 565 443 547 q 474 529 506 500 l 506 500 l 566 222 l 566 0 l 390 0 l 390 330 q 390 372 386 397 q 381 421 368 435 l 368 435 q 360 443 348 449 q 336 454 318 454 l 318 454 q 293 454 269 439 q 245 424 229 391 q 213 357 213 301 l 213 301 q 213 259 222 221 q 231 182 249 144 q 267 106 295 62 l 295 62 l 157 -13 q 116 38 89 87 q 62 136 48 188 q 34 240 34 301 l 34 301 q 34 380 65 443 q 95 506 155 544 q 215 581 304 581 z m 711 581 l 711 581 q 793 581 858 556 q 922 530 967 484 q 1012 437 1036 375 q 1059 313 1059 239 l 1059 239 q 1059 151 1032 96 q 1004 40 952 14 q 899 -12 822 -12 l 822 -12 q 742 -12 696 14 q 649 39 630 80 q 610 121 610 165 l 610 165 q 610 220 634 260 q 658 299 698 321 l 698 321 q 723 336 752 344 q 781 352 820 356 q 858 359 910 359 l 910 359 l 1162 359 l 1162 233 l 909 233 q 863 233 842 230 q 820 226 806 216 l 806 216 q 793 208 787 195 q 781 181 781 163 l 781 163 q 781 141 792 127 q 803 112 825 112 l 825 112 q 842 112 856 122 q 870 132 878 159 q 886 186 886 234 l 886 234 q 886 248 886 261 q 886 273 884 285 l 884 285 l 880 319 q 871 362 848 392 q 824 422 790 438 q 755 453 710 453 l 710 453 q 681 453 658 447 q 634 440 615 424 l 615 424 q 599 411 588 390 q 576 368 571 337 q 566 305 566 259 l 566 259 l 566 183 l 467 241 l 464 483 q 487 508 521 530 q 555 552 603 567 q 650 581 711 581 z"},"ൺ":{"ha":1605,"x_min":33,"x_max":1573,"o":"m 390 581 l 390 581 q 475 581 535 558 q 594 535 645 480 l 645 480 l 597 500 q 631 539 675 560 q 718 581 780 581 l 780 581 q 833 581 876 564 q 919 547 958 508 l 958 508 l 970 427 l 1036 217 l 1036 0 l 860 0 l 860 327 q 860 370 854 395 q 848 420 834 435 l 834 435 q 825 444 812 449 q 798 454 780 454 l 780 454 q 763 454 750 449 q 736 443 727 434 l 727 434 q 713 419 707 394 q 701 368 701 321 l 701 321 l 701 0 l 525 0 l 525 283 q 525 346 516 378 q 507 409 484 428 l 484 428 q 468 441 444 448 q 420 455 387 455 l 387 455 q 335 455 290 432 q 245 408 218 361 q 191 314 191 243 l 191 243 l 191 238 q 191 184 200 156 q 208 127 222 117 q 236 107 252 107 l 252 107 q 267 107 277 114 q 286 120 292 135 q 297 149 297 173 l 297 173 q 297 208 284 225 q 270 241 247 241 l 247 241 q 218 241 195 222 q 171 203 134 159 l 134 159 l 111 277 q 148 311 192 335 q 236 358 294 358 l 294 358 q 353 358 391 336 q 429 313 448 273 q 467 233 467 181 l 467 181 q 467 120 444 77 q 420 34 374 11 q 327 -12 257 -12 l 257 -12 q 193 -12 143 14 q 92 40 63 97 q 33 153 33 245 l 33 245 q 33 354 80 429 q 126 504 207 543 q 288 581 390 581 z m 1339 -12 l 1339 -12 q 1260 -12 1209 16 q 1158 44 1133 96 q 1107 148 1107 220 l 1107 220 q 1107 275 1124 321 q 1140 366 1172 408 q 1203 449 1250 491 l 1250 491 l 1281 536 q 1306 560 1324 583 q 1341 605 1341 636 l 1341 636 q 1341 655 1329 667 q 1316 678 1292 678 l 1292 678 q 1274 678 1260 676 q 1245 673 1233 671 l 1233 671 l 1205 784 q 1233 793 1270 798 q 1306 803 1341 803 l 1341 803 q 1412 803 1449 782 q 1486 760 1500 727 q 1514 694 1514 659 l 1514 659 q 1514 604 1487 561 q 1459 518 1409 469 l 1409 469 l 1382 439 q 1356 414 1333 380 q 1310 345 1296 303 q 1282 261 1282 215 l 1282 215 q 1282 187 1286 164 q 1290 141 1303 127 q 1316 113 1340 113 l 1340 113 q 1367 113 1382 136 q 1396 159 1396 217 l 1396 217 q 1396 262 1386 304 q 1375 346 1356 380 q 1336 414 1305 432 l 1305 432 q 1284 445 1258 452 q 1231 459 1188 459 l 1188 459 q 1150 459 1125 452 q 1100 444 1083 430 l 1083 430 q 1066 416 1056 396 q 1046 375 1041 346 q 1036 316 1036 273 l 1036 273 l 1036 20 l 879 20 l 879 232 l 911 470 q 939 501 974 527 q 1009 552 1060 567 q 1111 581 1187 581 l 1187 581 q 1237 581 1278 574 q 1319 567 1355 552 l 1355 552 q 1367 548 1378 543 q 1389 538 1400 532 l 1400 532 q 1451 504 1490 459 q 1529 414 1551 355 q 1573 296 1573 229 l 1573 229 q 1573 114 1519 51 q 1464 -12 1339 -12 z"},"ൻ":{"ha":1134,"x_min":34,"x_max":1103,"o":"m 303 581 l 303 581 q 342 581 373 574 q 404 567 432 552 q 459 536 488 510 l 488 510 l 566 226 l 566 0 l 390 0 l 390 330 q 390 372 386 397 q 381 421 368 435 l 368 435 q 360 443 348 449 q 336 454 318 454 l 318 454 q 293 454 269 439 q 245 424 229 391 q 213 357 213 301 l 213 301 q 213 259 222 221 q 231 182 249 144 q 267 106 295 62 l 295 62 l 157 -13 q 116 38 89 87 q 62 136 48 188 q 34 240 34 301 l 34 301 q 34 380 65 443 q 95 506 155 544 q 215 581 303 581 z m 869 -12 l 869 -12 q 790 -12 739 16 q 687 44 662 96 q 637 148 637 220 l 637 220 q 637 275 653 321 q 669 366 701 408 q 733 449 780 491 l 780 491 l 811 536 q 836 560 853 583 q 870 605 870 636 l 870 636 q 870 655 858 667 q 846 678 822 678 l 822 678 q 804 678 790 676 q 775 673 763 671 l 763 671 l 735 784 q 763 793 800 798 q 836 803 871 803 l 871 803 q 942 803 979 782 q 1016 760 1030 727 q 1044 694 1044 659 l 1044 659 q 1044 604 1017 561 q 989 518 939 469 l 939 469 l 912 439 q 886 414 863 380 q 840 345 826 303 q 812 261 812 215 l 812 215 q 812 187 816 164 q 820 141 833 127 q 845 113 870 113 l 870 113 q 897 113 911 136 q 925 159 925 217 l 925 217 q 925 262 915 304 q 905 346 885 380 q 865 414 835 432 l 835 432 q 814 445 788 452 q 761 459 718 459 l 718 459 q 680 459 655 452 q 630 444 613 430 l 613 430 q 596 416 586 396 q 576 375 571 346 q 566 316 566 273 l 566 273 l 566 20 l 408 20 l 408 232 l 441 470 q 469 501 504 527 q 539 552 590 567 q 641 581 717 581 l 717 581 q 767 581 808 574 q 848 567 885 552 l 885 552 q 896 548 908 543 q 919 538 930 532 l 930 532 q 981 504 1020 459 q 1058 414 1081 355 q 1103 296 1103 229 l 1103 229 q 1103 114 1049 51 q 994 -12 869 -12 z"},"ർ":{"ha":796,"x_min":34,"x_max":764,"o":"m 530 -12 l 530 -12 q 452 -12 401 16 q 349 44 324 96 q 299 148 299 220 l 299 220 q 299 275 315 321 q 331 366 363 408 q 395 449 441 491 l 441 491 l 473 536 q 498 560 515 583 q 532 605 532 636 l 532 636 q 532 655 520 667 q 508 678 483 678 l 483 678 q 466 678 452 676 q 437 673 425 671 l 425 671 l 397 784 q 425 793 461 798 q 497 803 533 803 l 533 803 q 603 803 641 782 q 678 760 692 727 q 706 694 706 659 l 706 659 q 706 604 679 561 q 651 518 600 469 l 600 469 l 574 439 q 547 414 525 380 q 502 345 488 303 q 474 261 474 215 l 474 215 q 474 187 478 164 q 481 141 494 127 q 507 113 531 113 l 531 113 q 559 113 573 136 q 587 159 587 217 l 587 217 q 587 250 581 283 q 575 316 564 345 q 553 373 536 396 q 519 418 496 432 l 496 432 q 475 445 452 452 q 428 458 396 458 l 396 458 q 339 458 299 439 q 258 419 237 381 q 215 342 215 286 l 215 286 q 215 243 225 206 q 235 169 255 134 q 274 98 301 62 l 301 62 l 167 -13 q 128 26 98 71 q 68 115 51 169 q 34 223 34 289 l 34 289 q 34 342 52 394 q 70 446 111 488 q 152 530 220 556 q 287 581 385 581 l 385 581 q 431 581 471 574 q 510 567 547 552 l 547 552 q 558 548 570 543 q 581 538 591 532 l 591 532 q 642 504 681 459 q 720 414 742 355 q 764 296 764 229 l 764 229 q 764 114 710 51 q 656 -12 530 -12 z"},"ൽ":{"ha":1303,"x_min":34,"x_max":1271,"o":"m 789 581 l 789 581 q 836 581 878 577 q 920 573 960 565 q 999 556 1035 540 l 1035 540 l 1078 523 q 1169 479 1220 404 q 1271 328 1271 225 l 1271 225 q 1271 112 1217 50 q 1163 -12 1037 -12 l 1037 -12 q 959 -12 908 16 q 856 44 831 96 q 806 148 806 220 l 806 220 q 806 275 822 321 q 838 366 870 408 q 902 449 948 491 l 948 491 l 980 536 q 1005 560 1022 583 q 1039 605 1039 636 l 1039 636 q 1039 655 1027 667 q 1015 678 990 678 l 990 678 q 973 678 959 676 q 944 673 932 671 l 932 671 l 904 784 q 932 793 969 798 q 1005 803 1040 803 l 1040 803 q 1110 803 1148 782 q 1185 760 1199 727 q 1213 694 1213 659 l 1213 659 q 1213 604 1186 561 q 1158 518 1107 469 l 1107 469 l 1081 439 q 1054 414 1032 380 q 1009 345 995 303 q 981 261 981 215 l 981 215 q 981 187 985 164 q 989 141 1002 127 q 1014 113 1038 113 l 1038 113 q 1066 113 1080 136 q 1094 158 1094 212 l 1094 212 q 1094 254 1083 292 q 1071 329 1049 361 q 1026 392 991 414 l 991 414 l 954 427 q 920 441 880 448 q 839 455 790 455 l 790 455 q 747 455 709 449 q 670 442 637 430 l 637 430 l 593 416 q 541 387 512 336 q 483 284 483 222 l 483 222 q 483 181 492 158 q 500 134 513 124 q 526 114 542 114 l 542 114 q 559 114 572 124 q 585 133 593 158 q 601 182 601 226 l 601 226 q 601 275 587 317 q 573 358 549 390 q 524 422 493 438 l 493 438 l 466 447 q 450 453 431 456 q 412 459 394 459 l 394 459 q 327 459 288 437 q 248 414 231 375 q 213 335 213 285 l 213 285 q 213 244 223 208 q 233 171 252 136 q 271 100 298 63 l 298 63 l 166 -12 q 127 27 98 72 q 68 116 51 170 q 34 223 34 289 l 34 289 q 34 337 51 388 q 67 439 106 483 q 145 527 212 554 q 279 581 381 581 l 381 581 q 443 581 496 569 q 548 557 597 531 l 597 531 l 625 495 q 699 451 738 389 q 777 327 777 223 l 777 223 q 777 144 751 92 q 724 39 672 14 q 619 -12 542 -12 l 542 -12 q 467 -12 415 16 q 362 43 335 96 q 307 148 307 222 l 307 222 q 307 282 327 332 q 347 381 385 421 q 422 460 473 489 l 473 489 l 512 527 q 570 555 638 568 q 706 581 789 581 z"},"ൾ":{"ha":1112,"x_min":34,"x_max":1081,"o":"m 851 803 l 851 803 q 921 803 958 782 q 995 760 1009 727 q 1022 694 1022 659 l 1022 659 q 1022 604 995 561 q 967 518 917 469 l 917 469 l 890 439 q 864 414 841 380 q 818 345 804 303 q 790 261 790 215 l 790 215 q 790 187 794 164 q 798 141 811 127 q 824 113 848 113 l 848 113 q 875 113 889 136 q 903 159 903 217 l 903 217 q 903 250 898 283 q 892 316 881 345 q 870 373 853 396 q 836 418 813 432 l 813 432 q 792 445 767 452 q 742 459 707 459 l 707 459 q 671 459 646 451 q 621 442 603 427 l 603 427 q 577 405 566 371 q 555 337 555 278 l 555 278 l 555 255 q 555 203 548 163 q 541 122 526 93 q 510 63 483 41 l 483 41 q 452 15 409 2 q 365 -12 301 -12 l 301 -12 q 215 -12 156 23 q 96 58 65 121 q 34 184 34 266 l 34 266 q 34 329 49 382 q 63 435 92 483 q 120 531 158 581 l 158 581 l 295 507 q 268 464 250 427 q 231 389 222 351 q 213 313 213 269 l 213 269 q 213 211 226 177 q 239 143 260 129 q 281 115 305 115 l 305 115 q 322 115 334 120 q 345 124 353 133 l 353 133 q 369 148 373 174 q 377 199 377 232 l 377 232 l 377 282 q 377 372 400 429 q 423 486 478 525 l 478 525 q 517 553 573 567 q 628 581 703 581 l 703 581 q 752 581 790 574 q 827 567 863 552 l 863 552 l 908 532 q 959 504 998 459 q 1037 414 1059 355 q 1081 296 1081 229 l 1081 229 q 1081 114 1027 51 q 972 -12 847 -12 l 847 -12 q 768 -12 717 16 q 666 44 641 96 q 615 148 615 220 l 615 220 q 615 275 632 321 q 648 366 680 408 q 711 449 758 491 l 758 491 l 789 536 q 814 560 832 583 q 849 605 849 636 l 849 636 q 849 655 837 667 q 824 678 800 678 l 800 678 q 782 678 768 676 q 753 673 741 671 l 741 671 l 713 784 q 741 793 778 798 q 815 803 851 803 z"},"ൿ":{"ha":1309,"x_min":27,"x_max":1282,"o":"m 557 581 l 557 581 q 655 581 715 545 q 774 508 801 443 q 828 377 828 287 l 828 287 q 828 189 798 122 q 767 55 707 22 q 647 -12 558 -12 l 558 -12 q 484 -12 432 10 q 380 32 347 77 l 347 77 q 317 115 301 169 q 285 223 285 290 l 285 290 q 285 430 354 506 q 422 581 557 581 z m 557 455 l 557 455 q 505 455 482 413 q 459 371 459 283 l 459 283 q 459 228 469 190 q 479 152 501 133 q 523 114 557 114 l 557 114 q 590 114 612 133 q 633 151 644 190 q 654 228 654 286 l 654 286 q 654 343 644 381 q 634 418 613 437 q 591 455 557 455 z m 235 -12 l 235 -12 q 135 -12 81 35 q 27 82 27 166 l 27 166 q 27 221 50 257 q 73 293 111 315 l 111 315 q 139 332 174 341 q 209 350 255 354 q 300 358 361 358 l 361 358 l 998 358 q 1071 358 1122 347 q 1173 336 1209 312 l 1209 312 q 1242 290 1262 254 q 1282 217 1282 167 l 1282 167 q 1282 87 1232 38 q 1182 -12 1075 -12 l 1075 -12 q 966 -12 913 39 q 860 89 860 164 l 860 164 q 860 196 870 227 q 879 258 893 291 l 893 291 q 898 301 899 311 q 900 320 905 330 l 905 330 q 917 356 933 386 q 948 416 966 450 l 966 450 q 997 504 1013 538 q 1029 571 1036 593 q 1043 615 1043 632 l 1043 632 q 1043 653 1032 666 q 1020 678 995 678 l 995 678 q 977 678 962 676 q 947 673 936 671 l 936 671 l 907 784 q 935 793 970 798 q 1005 803 1041 803 l 1041 803 q 1111 803 1149 782 q 1187 760 1202 727 q 1217 693 1217 656 l 1217 656 q 1217 627 1212 602 q 1206 576 1195 547 q 1183 518 1164 483 q 1144 447 1117 399 l 1117 399 q 1103 372 1092 351 q 1081 330 1071 311 l 1071 311 q 1067 301 1065 292 q 1062 283 1058 274 l 1058 274 q 1044 243 1036 219 q 1027 195 1027 174 l 1027 174 q 1027 155 1032 142 q 1037 128 1048 121 q 1058 114 1073 114 l 1073 114 q 1095 114 1105 127 q 1114 140 1114 163 l 1114 163 q 1114 182 1109 195 q 1103 207 1092 215 l 1092 215 q 1078 226 1057 229 q 1036 232 997 232 l 997 232 l 312 232 q 273 232 251 228 q 229 223 215 213 l 215 213 q 204 205 198 194 q 192 183 192 168 l 192 168 q 192 150 199 138 q 206 125 221 119 q 235 113 257 113 l 257 113 q 284 113 308 123 q 331 133 354 153 l 354 153 l 425 43 q 394 23 365 11 q 336 -2 305 -7 q 274 -12 235 -12 z"},"!":{"ha":323,"x_min":60,"x_max":263,"o":"m 239 251 l 85 251 l 60 714 l 263 714 l 239 251 z m 161 -12 l 161 -12 q 119 -12 91 11 q 62 34 62 81 l 62 81 q 62 130 90 153 q 118 175 161 175 l 161 175 q 203 175 231 153 q 259 130 259 81 l 259 81 q 259 34 231 11 q 203 -12 161 -12 z"},"\"":{"ha":522,"x_min":61,"x_max":461,"o":"m 214 542 l 81 542 l 61 800 l 234 800 l 214 542 z m 441 542 l 309 542 l 289 800 l 461 800 l 441 542 z"},"#":{"ha":649,"x_min":31,"x_max":618,"o":"m 216 0 l 91 0 l 127 193 l 31 193 l 31 310 l 150 310 l 167 403 l 61 403 l 61 522 l 189 522 l 225 714 l 351 714 l 314 522 l 396 522 l 432 714 l 558 714 l 521 522 l 618 522 l 618 403 l 499 403 l 482 310 l 590 310 l 590 193 l 460 193 l 424 0 l 298 0 l 334 193 l 251 193 l 216 0 z m 292 403 l 275 310 l 356 310 l 374 403 l 292 403 z"},"%":{"ha":918,"x_min":29,"x_max":890,"o":"m 347 0 l 212 0 l 570 714 l 706 714 l 347 0 z m 201 276 l 201 276 q 121 276 75 335 q 29 393 29 500 l 29 500 q 29 609 74 667 q 118 724 203 724 l 203 724 q 286 724 332 666 q 377 608 377 500 l 377 500 q 377 392 333 334 q 288 276 201 276 z m 203 391 l 203 391 q 222 391 230 417 q 238 443 238 500 l 238 500 q 238 557 230 583 q 222 609 203 609 l 203 609 q 184 609 176 583 q 168 557 168 500 l 168 500 q 168 445 176 418 q 184 391 203 391 z m 713 -9 l 713 -9 q 634 -9 588 50 q 541 108 541 215 l 541 215 q 541 324 586 382 q 630 439 716 439 l 716 439 q 798 439 844 381 q 890 323 890 215 l 890 215 q 890 107 845 49 q 800 -9 713 -9 z m 718 106 l 718 106 q 737 106 745 132 q 753 158 753 215 l 753 215 q 753 271 745 297 q 737 323 718 323 l 718 323 q 698 323 690 297 q 682 271 682 215 l 682 215 q 682 160 690 133 q 698 106 718 106 z"},"'":{"ha":295,"x_min":61,"x_max":234,"o":"m 214 542 l 81 542 l 61 800 l 234 800 l 214 542 z"},"(":{"ha":373,"x_min":43,"x_max":347,"o":"m 43 279 l 43 279 q 43 377 60 469 q 76 560 109 644 q 142 727 190 800 l 190 800 l 347 800 q 302 718 272 635 q 241 551 225 463 q 209 375 209 279 l 209 279 q 209 183 225 94 q 241 5 272 -78 q 302 -162 347 -244 l 347 -244 l 190 -244 q 142 -170 109 -86 q 76 -3 60 89 q 43 181 43 279 z"},")":{"ha":373,"x_min":27,"x_max":330,"o":"m 330 277 l 330 277 q 330 180 314 89 q 297 -3 265 -86 q 232 -170 183 -244 l 183 -244 l 27 -244 q 72 -162 103 -78 q 133 5 149 94 q 165 182 165 277 l 165 277 q 165 373 149 462 q 133 550 103 634 q 72 718 27 799 l 27 799 l 183 799 q 232 726 265 642 q 297 558 314 467 q 330 375 330 277 z"},"*":{"ha":558,"x_min":36,"x_max":522,"o":"m 206 800 l 352 800 l 333 631 l 505 679 l 522 537 l 372 527 l 471 393 l 346 327 l 277 463 l 218 328 l 87 393 l 186 527 l 36 539 l 57 679 l 225 631 l 206 800 z"},"+":{"ha":544,"x_min":37,"x_max":507,"o":"m 337 109 l 206 109 l 206 287 l 37 287 l 37 418 l 206 418 l 206 597 l 337 597 l 337 418 l 507 418 l 507 287 l 337 287 l 337 109 z"},",":{"ha":305,"x_min":33,"x_max":247,"o":"m 76 146 l 240 146 l 247 135 q 238 92 226 43 q 213 -7 199 -54 q 185 -102 168 -139 l 168 -139 l 33 -139 q 42 -95 51 -44 q 59 7 66 57 q 73 107 76 146 l 76 146 z"},"-":{"ha":344,"x_min":36,"x_max":308,"o":"m 308 195 l 36 195 l 36 342 l 308 342 l 308 195 z"},".":{"ha":302,"x_min":53,"x_max":249,"o":"m 153 -12 l 153 -12 q 110 -12 82 11 q 53 34 53 81 l 53 81 q 53 130 81 153 q 109 175 153 175 l 153 175 q 195 175 222 153 q 249 130 249 81 l 249 81 q 249 34 222 11 q 194 -12 153 -12 z"},"/":{"ha":454,"x_min":17,"x_max":437,"o":"m 173 -244 l 17 -244 l 282 800 l 437 800 l 173 -244 z"},":":{"ha":302,"x_min":53,"x_max":249,"o":"m 153 -12 l 153 -12 q 110 -12 82 11 q 53 34 53 81 l 53 81 q 53 130 81 153 q 109 175 153 175 l 153 175 q 195 175 222 153 q 249 130 249 81 l 249 81 q 249 34 222 11 q 195 -12 153 -12 z m 153 376 l 153 376 q 110 376 82 399 q 53 422 53 470 l 53 470 q 53 518 81 541 q 109 563 153 563 l 153 563 q 195 563 222 541 q 249 518 249 470 l 249 470 q 249 422 222 399 q 195 376 153 376 z"},";":{"ha":305,"x_min":33,"x_max":252,"o":"m 77 146 l 241 146 l 247 135 q 239 92 227 43 q 214 -7 200 -54 q 185 -102 169 -139 l 169 -139 l 33 -139 q 42 -95 51 -44 q 59 7 66 57 q 73 107 77 146 l 77 146 z m 156 376 l 156 376 q 113 376 85 399 q 56 422 56 470 l 56 470 q 56 518 84 541 q 112 563 156 563 l 156 563 q 198 563 225 541 q 252 518 252 470 l 252 470 q 252 422 225 399 q 198 376 156 376 z"},"<":{"ha":544,"x_min":37,"x_max":506,"o":"m 506 242 l 506 97 l 37 309 l 37 395 l 506 626 l 506 481 l 226 356 l 506 242 z"},"=":{"ha":544,"x_min":37,"x_max":507,"o":"m 507 176 l 37 176 l 37 307 l 507 307 l 507 176 z m 507 398 l 37 398 l 37 529 l 507 529 l 507 398 z"},">":{"ha":544,"x_min":38,"x_max":508,"o":"m 508 310 l 38 97 l 38 241 l 318 357 l 38 481 l 38 626 l 508 396 l 508 310 z"},"?":{"ha":498,"x_min":31,"x_max":475,"o":"m 254 724 l 254 724 q 364 724 420 675 q 475 625 475 546 l 475 546 q 475 505 463 472 q 450 439 425 411 q 400 382 360 354 l 360 354 q 336 337 324 323 q 311 309 307 297 q 302 284 302 269 l 302 269 l 302 251 l 156 251 l 156 283 q 156 317 163 343 q 169 368 186 389 q 202 410 232 432 l 232 432 q 258 452 274 467 q 290 482 298 496 q 305 510 305 527 l 305 527 q 305 551 288 565 q 271 578 236 578 l 236 578 q 200 578 165 566 q 130 553 95 535 l 95 535 l 31 662 q 83 692 138 708 q 192 724 254 724 z m 234 -12 l 234 -12 q 191 -12 163 11 q 134 34 134 81 l 134 81 q 134 130 162 153 q 190 175 234 175 l 234 175 q 276 175 304 153 q 331 130 331 81 l 331 81 q 331 34 304 11 q 276 -12 234 -12 z"},"[":{"ha":361,"x_min":68,"x_max":326,"o":"m 326 -244 l 68 -244 l 68 800 l 326 800 l 326 676 l 222 676 l 222 -120 l 326 -120 l 326 -244 z"},"\\":{"ha":454,"x_min":17,"x_max":437,"o":"m 437 -244 l 282 -244 l 17 800 l 173 800 l 437 -244 z"},"]":{"ha":361,"x_min":36,"x_max":293,"o":"m 293 -244 l 36 -244 l 36 -120 l 140 -120 l 140 676 l 36 676 l 36 800 l 293 800 l 293 -244 z"},"^":{"ha":544,"x_min":12,"x_max":532,"o":"m 155 264 l 12 264 l 220 714 l 303 714 l 532 264 l 387 264 l 265 517 l 155 264 z"},"_":{"ha":407,"x_min":-2,"x_max":409,"o":"m 409 -162 l -2 -162 l -2 -90 l 409 -90 l 409 -162 z"},"{":{"ha":429,"x_min":24,"x_max":393,"o":"m 393 -109 l 393 -244 q 292 -244 238 -226 q 184 -209 164 -171 q 144 -134 144 -76 l 144 -76 l 144 122 q 144 167 117 185 q 90 202 24 205 l 24 205 l 24 352 q 90 355 117 373 q 144 390 144 435 l 144 435 l 144 632 q 144 691 164 728 q 184 765 238 783 q 292 800 393 800 l 393 800 l 393 665 q 340 665 320 653 q 300 640 300 605 l 300 605 l 300 405 q 300 348 270 319 q 240 290 183 281 l 183 281 l 183 275 q 240 266 270 237 q 300 208 300 151 l 300 151 l 300 -49 q 300 -72 309 -85 q 317 -98 338 -103 q 358 -109 393 -109 l 393 -109 z"},"|":{"ha":551,"x_min":210,"x_max":341,"o":"m 341 -244 l 210 -244 l 210 800 l 341 800 l 341 -244 z"},"}":{"ha":429,"x_min":36,"x_max":405,"o":"m 36 665 l 36 800 q 138 800 192 783 q 245 765 265 728 q 285 691 285 632 l 285 632 l 285 435 q 285 390 312 373 q 339 355 405 352 l 405 352 l 405 204 q 339 201 312 184 q 285 166 285 121 l 285 121 l 285 -76 q 285 -134 265 -171 q 245 -209 192 -226 q 138 -244 36 -244 l 36 -244 l 36 -109 q 89 -109 109 -96 q 129 -83 129 -49 l 129 -49 l 129 151 q 129 208 159 237 q 189 266 246 275 l 246 275 l 246 281 q 189 290 159 319 q 129 348 129 405 l 129 405 l 129 605 q 129 628 121 641 q 112 654 92 660 q 72 665 36 665 l 36 665 z"},"~":{"ha":544,"x_min":37,"x_max":507,"o":"m 254 290 l 254 290 q 220 305 196 311 q 171 316 147 316 l 147 316 q 119 316 91 300 q 62 283 37 257 l 37 257 l 37 394 q 62 420 92 434 q 122 447 159 447 l 159 447 q 188 447 218 440 q 248 433 289 415 l 289 415 q 323 401 349 395 q 375 389 397 389 l 397 389 q 425 389 454 406 q 482 422 507 448 l 507 448 l 507 311 q 482 285 452 272 q 422 258 384 258 l 384 258 q 355 258 326 265 q 297 272 254 290 z"}," ":{"ha":277,"x_min":0,"x_max":0,"o":""},"­":{"ha":344,"x_min":36,"x_max":308,"o":"m 308 195 l 36 195 l 36 342 l 308 342 l 308 195 z"},"–":{"ha":500,"x_min":39,"x_max":461,"o":"m 461 203 l 39 203 l 39 337 l 461 337 l 461 203 z"},"—":{"ha":1000,"x_min":39,"x_max":961,"o":"m 961 203 l 39 203 l 39 337 l 961 337 l 961 203 z"},"‘":{"ha":292,"x_min":39,"x_max":253,"o":"m 209 515 l 45 515 l 39 526 q 47 569 60 619 q 72 668 87 716 q 102 763 117 800 l 117 800 l 253 800 q 244 756 236 705 q 227 653 220 604 q 213 554 209 515 l 209 515 z"},"’":{"ha":291,"x_min":39,"x_max":253,"o":"m 82 800 l 246 800 l 253 789 q 244 746 232 697 q 219 647 205 600 q 191 552 174 515 l 174 515 l 39 515 q 45 546 52 584 q 58 621 64 660 q 70 699 75 736 q 80 772 82 800 l 82 800 z"},"“":{"ha":534,"x_min":39,"x_max":495,"o":"m 452 515 l 288 515 l 282 526 q 290 569 303 619 q 315 668 330 716 q 345 763 360 800 l 360 800 l 495 800 q 487 755 478 705 q 469 654 463 605 q 456 556 452 515 l 452 515 z m 209 515 l 45 515 l 39 526 q 47 569 60 619 q 72 668 87 716 q 102 763 117 800 l 117 800 l 253 800 q 244 756 236 705 q 227 653 220 604 q 213 554 209 515 l 209 515 z"},"”":{"ha":534,"x_min":39,"x_max":495,"o":"m 325 800 l 489 800 l 495 789 q 487 746 475 697 q 462 647 448 600 q 433 552 417 515 l 417 515 l 281 515 q 291 562 300 612 q 308 661 315 710 q 322 758 325 800 l 325 800 z m 82 800 l 246 800 l 253 789 q 244 746 232 697 q 219 647 205 600 q 191 552 174 515 l 174 515 l 39 515 q 45 546 52 584 q 58 621 64 660 q 70 699 75 736 q 80 772 82 800 l 82 800 z"},"…":{"ha":869,"x_min":52,"x_max":817,"o":"m 152 -12 l 152 -12 q 109 -12 81 11 q 52 34 52 81 l 52 81 q 52 130 80 153 q 108 175 152 175 l 152 175 q 194 175 222 153 q 249 130 249 81 l 249 81 q 249 34 222 11 q 194 -12 152 -12 z m 436 -12 l 436 -12 q 393 -12 365 11 q 336 34 336 81 l 336 81 q 336 130 364 153 q 392 175 436 175 l 436 175 q 478 175 506 153 q 533 130 533 81 l 533 81 q 533 34 506 11 q 478 -12 436 -12 z m 720 -12 l 720 -12 q 677 -12 649 11 q 620 34 620 81 l 620 81 q 620 130 648 153 q 676 175 720 175 l 720 175 q 762 175 790 153 q 817 130 817 81 l 817 81 q 817 34 790 11 q 762 -12 720 -12 z"},"×":{"ha":544,"x_min":44,"x_max":500,"o":"m 271 442 l 409 580 l 500 489 l 361 352 l 500 215 l 409 124 l 271 262 l 135 124 l 44 215 l 181 352 l 44 489 l 135 580 l 271 442 z"},"÷":{"ha":544,"x_min":37,"x_max":507,"o":"m 507 287 l 37 287 l 37 418 l 507 418 l 507 287 z m 271 75 l 271 75 q 238 75 216 96 q 194 117 194 159 l 194 159 q 194 204 216 224 q 238 244 271 244 l 271 244 q 305 244 327 224 q 349 204 349 159 l 349 159 q 349 118 327 97 q 304 75 271 75 z m 271 461 l 271 461 q 238 461 216 482 q 194 503 194 546 l 194 546 q 194 590 216 610 q 238 630 271 630 l 271 630 q 305 630 327 610 q 349 590 349 546 l 349 546 q 349 504 327 483 q 304 461 271 461 z"},"−":{"ha":544,"x_min":37,"x_max":507,"o":"m 507 287 l 37 287 l 37 418 l 507 418 l 507 287 z"},"₹":{"ha":544,"x_min":44,"x_max":503,"o":"m 400 0 l 199 0 l 44 239 l 65 350 l 89 350 q 123 350 144 355 q 165 360 177 371 l 177 371 q 194 385 201 408 q 207 431 207 475 l 207 475 q 207 509 201 535 q 194 560 174 575 l 174 575 q 163 584 146 589 q 129 593 100 593 l 100 593 l 44 593 l 44 714 l 503 714 l 503 593 l 323 593 q 343 578 359 546 q 375 514 375 470 l 375 470 q 375 404 358 360 q 340 316 303 290 q 265 263 203 249 l 203 249 l 206 270 l 400 0 z m 503 410 l 44 410 l 44 533 l 503 533 l 503 410 z"},"꠰":{"ha":294,"x_min":59,"x_max":235,"o":"m 59 0 l 59 569 l 235 569 l 235 0 l 59 0 z"},"꠱":{"ha":520,"x_min":59,"x_max":461,"o":"m 59 0 l 59 569 l 231 569 l 231 0 l 59 0 z m 289 0 l 289 569 l 461 569 l 461 0 l 289 0 z"},"꠲":{"ha":746,"x_min":59,"x_max":687,"o":"m 59 0 l 59 569 l 230 569 l 230 0 l 59 0 z m 288 0 l 288 569 l 459 569 l 459 0 l 288 0 z m 516 0 l 516 569 l 687 569 l 687 0 l 516 0 z"},"॑":{"ha":0,"x_min":-335,"x_max":-222,"o":"m -335 648 l -335 864 l -222 864 l -222 648 l -335 648 z"},"॒":{"ha":0,"x_min":-517,"x_max":-41,"o":"m -41 -80 l -41 -183 l -517 -183 l -517 -80 l -41 -80 z"},"।":{"ha":368,"x_min":126,"x_max":306,"o":"m 306 -49 l 126 -49 l 126 610 l 306 610 l 306 -49 z"},"॥":{"ha":652,"x_min":125,"x_max":590,"o":"m 590 -49 l 410 -49 l 410 610 l 590 610 l 590 -49 z m 304 -49 l 125 -49 l 125 610 l 304 610 l 304 -49 z"},"᳚":{"ha":0,"x_min":-399,"x_max":-156,"o":"m -399 648 l -399 864 l -301 864 l -301 648 l -399 648 z m -254 648 l -254 864 l -156 864 l -156 648 l -254 648 z"},"̇":{"ha":0,"x_min":-349,"x_max":-158,"o":"m -349 700 l -349 700 q -349 751 -321 768 q -293 785 -253 785 l -253 785 q -215 785 -186 768 q -158 751 -158 700 l -158 700 q -158 651 -186 634 q -215 616 -254 616 l -254 616 q -293 616 -321 634 q -349 651 -349 700 z"},"̣":{"ha":0,"x_min":-350,"x_max":-158,"o":"m -350 -137 l -350 -137 q -350 -86 -322 -69 q -294 -52 -254 -52 l -254 -52 q -216 -52 -187 -69 q -158 -86 -158 -137 l -158 -137 q -158 -186 -187 -203 q -216 -221 -255 -221 l -255 -221 q -294 -221 -322 -203 q -350 -186 -350 -137 z"},"‐":{"ha":344,"x_min":36,"x_max":308,"o":"m 308 195 l 36 195 l 36 342 l 308 342 l 308 195 z"},"​":{"ha":0,"x_min":0,"x_max":0,"o":""},"‌":{"ha":0,"x_min":0,"x_max":0,"o":""},"‍":{"ha":0,"x_min":-161,"x_max":161,"o":"m 29 -244 l -29 -244 l -29 565 l -121 474 l -161 514 l -40 631 l -161 748 l -121 788 l 0 669 l 121 788 l 161 748 l 40 631 l 161 514 l 121 474 l 29 565 l 29 -244 z"},"◌":{"ha":562,"x_min":58,"x_max":505,"o":"m 90 231 l 90 231 q 58 231 58 264 l 58 264 q 58 295 90 295 l 90 295 q 122 295 122 264 l 122 264 q 122 231 90 231 z m 139 95 l 139 95 q 107 95 107 127 l 107 127 q 107 158 139 158 l 139 158 q 170 158 170 127 l 170 127 q 170 95 139 95 z m 282 40 l 282 40 q 250 40 250 72 l 250 72 q 250 104 282 104 l 282 104 q 313 104 313 72 l 313 72 q 313 40 282 40 z m 139 369 l 139 369 q 107 369 107 401 l 107 401 q 107 432 139 432 l 139 432 q 170 432 170 401 l 170 401 q 170 369 139 369 z m 424 95 l 424 95 q 392 95 392 127 l 392 127 q 392 158 424 158 l 424 158 q 456 158 456 127 l 456 127 q 456 95 424 95 z m 282 424 l 282 424 q 250 424 250 456 l 250 456 q 250 487 282 487 l 282 487 q 313 487 313 456 l 313 456 q 313 424 282 424 z m 473 231 l 473 231 q 442 231 442 264 l 442 264 q 442 295 473 295 l 473 295 q 505 295 505 264 l 505 264 q 505 231 473 231 z m 424 369 l 424 369 q 392 369 392 401 l 392 401 q 392 432 424 432 l 424 432 q 456 432 456 401 l 456 401 q 456 369 424 369 z"},"«":{"ha":637,"x_min":31,"x_max":603,"o":"m 31 274 l 31 287 l 208 522 l 338 453 l 216 281 l 338 108 l 208 40 l 31 274 z m 296 274 l 296 287 l 473 522 l 603 453 l 482 281 l 603 108 l 473 40 l 296 274 z"},"»":{"ha":637,"x_min":33,"x_max":606,"o":"m 606 287 l 606 274 l 429 40 l 298 108 l 420 281 l 298 453 l 429 522 l 606 287 z m 340 287 l 340 274 l 164 40 l 33 108 l 154 281 l 33 453 l 164 522 l 340 287 z"},"̈":{"ha":0,"x_min":-190,"x_max":189,"o":"m -190 690 l -190 690 q -190 729 -167 748 q -145 767 -111 767 l -111 767 q -77 767 -54 748 q -31 728 -31 690 l -31 690 q -31 653 -54 634 q -77 614 -111 614 l -111 614 q -145 614 -167 633 q -190 652 -190 690 z m 29 690 l 29 690 q 29 729 52 748 q 74 767 109 767 l 109 767 q 143 767 166 748 q 189 728 189 690 l 189 690 q 189 653 166 634 q 143 614 109 614 l 109 614 q 74 614 52 633 q 29 652 29 690 z"},"̀":{"ha":0,"x_min":-505,"x_max":-196,"o":"m -505 766 l -305 766 q -291 745 -270 717 q -250 689 -229 663 q -209 637 -196 620 l -196 620 l -196 606 l -320 606 q -337 618 -362 638 q -387 658 -414 680 q -442 702 -466 723 q -490 743 -505 756 l -505 756 l -505 766 z"},"́":{"ha":0,"x_min":-379,"x_max":-70,"o":"m -70 766 l -70 756 q -85 742 -108 723 q -131 703 -158 682 q -185 661 -210 641 q -235 621 -255 606 l -255 606 l -379 606 l -379 620 q -362 642 -342 668 q -322 693 -302 719 q -282 744 -269 766 l -269 766 l -70 766 z"},"̋":{"ha":0,"x_min":-167,"x_max":300,"o":"m 299 766 l 299 756 q 292 743 273 723 q 253 703 228 682 q 203 660 178 640 q 153 620 134 606 l 134 606 l 41 606 l 41 620 q 57 645 74 672 q 91 699 106 724 q 121 748 131 766 l 131 766 l 299 766 z m 90 766 l 90 756 q 83 742 64 723 q 44 703 19 682 q -6 660 -31 640 q -57 620 -76 606 l -76 606 l -167 606 l -167 620 q -152 646 -135 672 q -118 698 -102 723 q -87 748 -77 766 l -77 766 l 90 766 z"},"̄":{"ha":0,"x_min":-167,"x_max":166,"o":"m -167 726 l 167 726 l 167 611 l -167 611 l -167 726 z"},"˙":{"ha":272,"x_min":40,"x_max":232,"o":"m 136 776 l 136 776 q 178 776 205 758 q 232 739 232 691 l 232 691 q 232 645 205 626 q 177 607 136 607 l 136 607 q 93 607 67 626 q 40 645 40 691 l 40 691 q 40 739 66 758 q 92 776 136 776 z"},"°":{"ha":399,"x_min":27,"x_max":372,"o":"m 199 384 l 199 384 q 150 384 111 406 q 72 428 50 466 q 27 504 27 554 l 27 554 q 27 603 50 642 q 72 680 111 702 q 150 724 199 724 l 199 724 q 250 724 289 702 q 327 680 350 642 q 372 603 372 554 l 372 554 q 372 504 350 466 q 327 427 289 406 q 250 384 199 384 z m 200 492 l 200 492 q 228 492 245 509 q 262 526 262 554 l 262 554 q 262 582 245 600 q 228 617 199 617 l 199 617 q 171 617 154 600 q 137 582 137 554 l 137 554 q 137 526 154 509 q 171 492 200 492 z"},"A":{"ha":670,"x_min":0,"x_max":670,"o":"m 670 0 l 470 0 l 438 136 l 234 136 l 202 0 l 0 0 l 211 716 l 456 716 l 670 0 z m 403 289 l 373 422 q 368 444 361 476 q 353 507 347 540 q 340 573 336 595 l 336 595 q 332 573 326 542 q 319 511 312 480 q 305 448 300 423 l 300 423 l 269 289 l 403 289 z"},"Á":{"ha":670,"x_min":0,"x_max":670,"o":"m 670 0 l 470 0 l 438 136 l 234 136 l 202 0 l 0 0 l 211 716 l 456 716 l 670 0 z m 403 289 l 373 422 q 368 444 361 476 q 353 507 347 540 q 340 573 336 595 l 336 595 q 332 573 326 542 q 319 511 312 480 q 305 448 300 423 l 300 423 l 269 289 l 403 289 z m 545 927 l 545 917 q 530 903 507 884 q 484 864 457 843 q 430 822 405 802 q 380 782 360 767 l 360 767 l 236 767 l 236 781 q 253 803 273 829 q 293 854 313 880 q 333 905 346 927 l 346 927 l 545 927 z"},"Ă":{"ha":670,"x_min":0,"x_max":670,"o":"m 670 0 l 470 0 l 438 136 l 234 136 l 202 0 l 0 0 l 211 716 l 456 716 l 670 0 z m 403 289 l 373 422 q 368 444 361 476 q 353 507 347 540 q 340 573 336 595 l 336 595 q 332 573 326 542 q 319 511 312 480 q 305 448 300 423 l 300 423 l 269 289 l 403 289 z m 416 948 l 519 948 q 517 894 494 853 q 470 812 430 790 q 389 767 334 767 l 334 767 q 249 767 202 815 q 155 862 152 948 l 152 948 l 252 948 q 257 921 267 907 q 276 893 293 888 q 310 882 334 882 l 334 882 q 355 882 372 888 q 388 893 400 908 q 411 922 416 948 l 416 948 z"},"Â":{"ha":670,"x_min":0,"x_max":670,"o":"m 670 0 l 470 0 l 438 136 l 234 136 l 202 0 l 0 0 l 211 716 l 456 716 l 670 0 z m 403 289 l 373 422 q 368 444 361 476 q 353 507 347 540 q 340 573 336 595 l 336 595 q 332 573 326 542 q 319 511 312 480 q 305 448 300 423 l 300 423 l 269 289 l 403 289 z m 249 927 l 425 927 q 439 904 459 878 q 478 852 499 827 q 520 802 539 781 l 539 781 l 539 767 l 424 767 q 402 781 381 799 q 360 817 336 840 l 336 840 q 312 817 292 800 q 272 782 251 767 l 251 767 l 134 767 l 134 781 q 151 799 173 825 q 195 851 216 879 q 237 906 249 927 l 249 927 z"},"Ä":{"ha":670,"x_min":0,"x_max":670,"o":"m 670 0 l 470 0 l 438 136 l 234 136 l 202 0 l 0 0 l 211 716 l 456 716 l 670 0 z m 403 289 l 373 422 q 368 444 361 476 q 353 507 347 540 q 340 573 336 595 l 336 595 q 332 573 326 542 q 319 511 312 480 q 305 448 300 423 l 300 423 l 269 289 l 403 289 z m 146 851 l 146 851 q 146 890 169 909 q 191 928 225 928 l 225 928 q 259 928 282 909 q 305 889 305 851 l 305 851 q 305 814 282 795 q 259 775 225 775 l 225 775 q 191 775 169 794 q 146 813 146 851 z m 365 851 l 365 851 q 365 890 388 909 q 410 928 445 928 l 445 928 q 479 928 502 909 q 525 889 525 851 l 525 851 q 525 814 502 795 q 479 775 445 775 l 445 775 q 410 775 388 794 q 365 813 365 851 z"},"À":{"ha":670,"x_min":0,"x_max":670,"o":"m 670 0 l 470 0 l 438 136 l 234 136 l 202 0 l 0 0 l 211 716 l 456 716 l 670 0 z m 403 289 l 373 422 q 368 444 361 476 q 353 507 347 540 q 340 573 336 595 l 336 595 q 332 573 326 542 q 319 511 312 480 q 305 448 300 423 l 300 423 l 269 289 l 403 289 z m 173 927 l 373 927 q 387 906 408 878 q 428 850 449 824 q 469 798 482 781 l 482 781 l 482 767 l 358 767 q 341 779 316 799 q 291 819 264 841 q 236 863 212 884 q 188 904 173 917 l 173 917 l 173 927 z"},"Ā":{"ha":670,"x_min":0,"x_max":670,"o":"m 670 0 l 470 0 l 438 136 l 234 136 l 202 0 l 0 0 l 211 716 l 456 716 l 670 0 z m 403 289 l 373 422 q 368 444 361 476 q 353 507 347 540 q 340 573 336 595 l 336 595 q 332 573 326 542 q 319 511 312 480 q 305 448 300 423 l 300 423 l 269 289 l 403 289 z m 169 887 l 503 887 l 503 772 l 169 772 l 169 887 z"},"Ą":{"ha":670,"x_min":0,"x_max":670,"o":"m 670 0 l 470 0 l 438 136 l 234 136 l 202 0 l 0 0 l 211 716 l 456 716 l 670 0 z m 403 289 l 373 422 q 368 444 361 476 q 353 507 347 540 q 340 573 336 595 l 336 595 q 332 573 326 542 q 319 511 312 480 q 305 448 300 423 l 300 423 l 269 289 l 403 289 z m 553 -96 l 553 -96 q 553 -113 564 -122 q 575 -131 592 -131 l 592 -131 q 606 -131 621 -127 q 635 -124 643 -120 l 643 -120 l 643 -226 q 629 -231 609 -235 q 588 -240 562 -240 l 562 -240 q 503 -240 467 -210 q 430 -180 430 -128 l 430 -128 q 430 -105 440 -81 q 449 -57 472 -31 q 495 -6 535 22 l 535 22 l 613 0 q 580 -32 567 -52 q 553 -73 553 -96 z"},"Å":{"ha":670,"x_min":0,"x_max":670,"o":"m 670 0 l 470 0 l 438 136 l 234 136 l 202 0 l 0 0 l 211 716 l 456 716 l 670 0 z m 403 289 l 373 422 q 368 444 361 476 q 353 507 347 540 q 340 573 336 595 l 336 595 q 332 573 326 542 q 319 511 312 480 q 305 448 300 423 l 300 423 l 269 289 l 403 289 z m 333 635 l 333 635 q 276 635 241 669 q 206 702 206 758 l 206 758 q 206 815 241 849 q 276 882 333 882 l 333 882 q 388 882 426 848 q 463 814 463 759 l 463 759 q 463 703 426 669 q 389 635 333 635 z m 333 717 l 333 717 q 350 717 362 729 q 374 740 374 758 l 374 758 q 374 777 362 788 q 350 799 333 799 l 333 799 q 316 799 304 788 q 292 777 292 758 l 292 758 q 292 740 303 729 q 313 717 333 717 z"},"Ã":{"ha":670,"x_min":0,"x_max":670,"o":"m 670 0 l 470 0 l 438 136 l 234 136 l 202 0 l 0 0 l 211 716 l 456 716 l 670 0 z m 403 289 l 373 422 q 368 444 361 476 q 353 507 347 540 q 340 573 336 595 l 336 595 q 332 573 326 542 q 319 511 312 480 q 305 448 300 423 l 300 423 l 269 289 l 403 289 z m 229 765 l 142 765 q 144 803 151 834 q 158 864 171 886 q 184 908 204 920 q 224 932 253 932 l 253 932 q 272 932 292 925 q 312 918 333 909 q 353 899 372 892 q 391 885 410 885 l 410 885 q 420 885 429 895 q 438 905 442 933 l 442 933 l 530 933 q 526 846 496 806 q 465 766 420 766 l 420 766 q 399 766 378 773 q 356 780 336 790 q 315 799 296 806 q 277 813 261 813 l 261 813 q 253 813 243 804 q 233 795 229 765 l 229 765 z"},"Æ":{"ha":871,"x_min":-5,"x_max":826,"o":"m 826 153 l 826 0 l 431 0 l 431 136 l 245 136 l 200 0 l -5 0 l 270 714 l 826 714 l 826 563 l 615 563 l 615 445 l 810 445 l 810 294 l 615 294 l 615 153 l 826 153 z m 388 558 l 297 291 l 431 291 l 431 558 l 388 558 z"},"B":{"ha":631,"x_min":70,"x_max":586,"o":"m 70 714 l 304 714 q 447 714 510 669 q 573 624 573 536 l 573 536 q 573 492 558 460 q 543 427 519 407 q 495 387 468 379 l 468 379 l 468 374 q 500 366 527 347 q 554 328 570 295 q 586 261 586 209 l 586 209 q 586 144 555 97 q 524 50 467 25 q 409 0 330 0 l 330 0 l 70 0 l 70 714 z m 255 439 l 305 439 q 347 439 366 458 q 385 477 385 509 l 385 509 q 385 539 365 555 q 344 571 302 571 l 302 571 l 255 571 l 255 439 z m 311 300 l 255 300 l 255 146 l 314 146 q 359 146 378 167 q 396 188 396 224 l 396 224 q 396 246 388 263 q 380 280 361 290 q 342 300 311 300 l 311 300 z"},"C":{"ha":597,"x_min":47,"x_max":569,"o":"m 368 570 l 368 570 q 337 570 313 556 q 288 541 272 513 q 255 485 246 445 q 237 405 237 354 l 237 354 q 237 285 253 238 q 268 191 299 168 q 330 144 377 144 l 377 144 q 420 144 460 157 q 500 170 540 189 l 540 189 l 540 30 q 498 9 452 0 q 406 -10 354 -10 l 354 -10 q 250 -10 182 35 q 113 79 80 161 q 47 243 47 355 l 47 355 q 47 437 68 505 q 89 572 130 621 q 170 670 229 697 q 287 724 363 724 l 363 724 q 413 724 466 712 q 518 700 569 674 l 569 674 l 515 526 q 480 546 444 558 q 408 570 368 570 z"},"Ć":{"ha":597,"x_min":47,"x_max":569,"o":"m 368 570 l 368 570 q 337 570 313 556 q 288 541 272 513 q 255 485 246 445 q 237 405 237 354 l 237 354 q 237 285 253 238 q 268 191 299 168 q 330 144 377 144 l 377 144 q 420 144 460 157 q 500 170 540 189 l 540 189 l 540 30 q 498 9 452 0 q 406 -10 354 -10 l 354 -10 q 250 -10 182 35 q 113 79 80 161 q 47 243 47 355 l 47 355 q 47 437 68 505 q 89 572 130 621 q 170 670 229 697 q 287 724 363 724 l 363 724 q 413 724 466 712 q 518 700 569 674 l 569 674 l 515 526 q 480 546 444 558 q 408 570 368 570 z m 548 927 l 548 917 q 533 903 510 884 q 487 864 460 843 q 433 822 408 802 q 383 782 363 767 l 363 767 l 239 767 l 239 781 q 256 803 276 829 q 296 854 316 880 q 336 905 349 927 l 349 927 l 548 927 z"},"Č":{"ha":597,"x_min":47,"x_max":569,"o":"m 368 570 l 368 570 q 337 570 313 556 q 288 541 272 513 q 255 485 246 445 q 237 405 237 354 l 237 354 q 237 285 253 238 q 268 191 299 168 q 330 144 377 144 l 377 144 q 420 144 460 157 q 500 170 540 189 l 540 189 l 540 30 q 498 9 452 0 q 406 -10 354 -10 l 354 -10 q 250 -10 182 35 q 113 79 80 161 q 47 243 47 355 l 47 355 q 47 437 68 505 q 89 572 130 621 q 170 670 229 697 q 287 724 363 724 l 363 724 q 413 724 466 712 q 518 700 569 674 l 569 674 l 515 526 q 480 546 444 558 q 408 570 368 570 z m 428 767 l 252 767 q 240 788 219 816 q 198 843 176 870 q 154 896 137 913 l 137 913 l 137 927 l 254 927 q 276 912 296 895 q 316 877 339 854 l 339 854 q 363 878 384 896 q 405 913 427 927 l 427 927 l 542 927 l 542 913 q 526 895 505 869 q 483 843 463 816 q 442 789 428 767 l 428 767 z"},"Ç":{"ha":597,"x_min":47,"x_max":569,"o":"m 368 570 l 368 570 q 337 570 313 556 q 288 541 272 513 q 255 485 246 445 q 237 405 237 354 l 237 354 q 237 285 253 238 q 268 191 299 168 q 330 144 377 144 l 377 144 q 420 144 460 157 q 500 170 540 189 l 540 189 l 540 30 q 498 9 452 0 q 406 -10 354 -10 l 354 -10 q 250 -10 182 35 q 113 79 80 161 q 47 243 47 355 l 47 355 q 47 437 68 505 q 89 572 130 621 q 170 670 229 697 q 287 724 363 724 l 363 724 q 413 724 466 712 q 518 700 569 674 l 569 674 l 515 526 q 480 546 444 558 q 408 570 368 570 z m 456 -124 l 456 -124 q 456 -177 421 -208 q 385 -240 324 -240 l 324 -240 q 293 -240 268 -236 q 242 -232 224 -226 l 224 -226 l 224 -133 q 241 -138 256 -140 q 271 -143 285 -143 l 285 -143 q 304 -143 314 -136 q 324 -129 324 -115 l 324 -115 q 324 -98 307 -88 q 290 -78 255 -73 l 255 -73 l 286 0 l 374 0 l 363 -31 q 387 -35 408 -46 q 429 -57 443 -76 q 456 -95 456 -124 z"},"Ċ":{"ha":597,"x_min":47,"x_max":569,"o":"m 368 570 l 368 570 q 337 570 313 556 q 288 541 272 513 q 255 485 246 445 q 237 405 237 354 l 237 354 q 237 285 253 238 q 268 191 299 168 q 330 144 377 144 l 377 144 q 420 144 460 157 q 500 170 540 189 l 540 189 l 540 30 q 498 9 452 0 q 406 -10 354 -10 l 354 -10 q 250 -10 182 35 q 113 79 80 161 q 47 243 47 355 l 47 355 q 47 437 68 505 q 89 572 130 621 q 170 670 229 697 q 287 724 363 724 l 363 724 q 413 724 466 712 q 518 700 569 674 l 569 674 l 515 526 q 480 546 444 558 q 408 570 368 570 z m 339 937 l 339 937 q 381 937 408 919 q 435 900 435 852 l 435 852 q 435 806 408 787 q 380 768 339 768 l 339 768 q 296 768 270 787 q 243 806 243 852 l 243 852 q 243 900 269 919 q 295 937 339 937 z"},"D":{"ha":680,"x_min":70,"x_max":634,"o":"m 634 372 l 634 372 q 634 250 591 167 q 548 84 470 42 q 392 0 284 0 l 284 0 l 70 0 l 70 714 l 299 714 q 406 714 481 675 q 555 635 595 559 q 634 483 634 372 z m 442 365 l 442 365 q 442 433 426 477 q 410 520 379 541 q 347 561 299 561 l 299 561 l 255 561 l 255 154 l 287 154 q 368 154 405 206 q 442 257 442 365 z"},"Ð":{"ha":680,"x_min":10,"x_max":634,"o":"m 70 714 l 299 714 q 406 714 481 675 q 555 635 595 559 q 634 483 634 372 l 634 372 q 634 250 591 167 q 548 84 470 42 q 392 0 284 0 l 284 0 l 70 0 l 70 287 l 10 287 l 10 432 l 70 432 l 70 714 z m 299 561 l 299 561 l 255 561 l 255 432 l 345 432 l 345 287 l 255 287 l 255 154 l 287 154 q 368 154 405 206 q 442 257 442 365 l 442 365 q 442 433 426 477 q 410 520 379 541 q 347 561 299 561 z"},"Ď":{"ha":680,"x_min":70,"x_max":634,"o":"m 634 372 l 634 372 q 634 250 591 167 q 548 84 470 42 q 392 0 284 0 l 284 0 l 70 0 l 70 714 l 299 714 q 406 714 481 675 q 555 635 595 559 q 634 483 634 372 z m 442 365 l 442 365 q 442 433 426 477 q 410 520 379 541 q 347 561 299 561 l 299 561 l 255 561 l 255 154 l 287 154 q 368 154 405 206 q 442 257 442 365 z m 428 767 l 252 767 q 240 788 219 816 q 198 843 176 870 q 154 896 137 913 l 137 913 l 137 927 l 254 927 q 276 912 296 895 q 316 877 339 854 l 339 854 q 363 878 384 896 q 405 913 427 927 l 427 927 l 542 927 l 542 913 q 526 895 505 869 q 483 843 463 816 q 442 789 428 767 l 428 767 z"},"Đ":{"ha":680,"x_min":10,"x_max":634,"o":"m 70 714 l 299 714 q 406 714 481 675 q 555 635 595 559 q 634 483 634 372 l 634 372 q 634 250 591 167 q 548 84 470 42 q 392 0 284 0 l 284 0 l 70 0 l 70 287 l 10 287 l 10 432 l 70 432 l 70 714 z m 299 561 l 299 561 l 255 561 l 255 432 l 345 432 l 345 287 l 255 287 l 255 154 l 287 154 q 368 154 405 206 q 442 257 442 365 l 442 365 q 442 433 426 477 q 410 520 379 541 q 347 561 299 561 z"},"E":{"ha":510,"x_min":70,"x_max":465,"o":"m 465 153 l 465 0 l 70 0 l 70 714 l 465 714 l 465 563 l 255 563 l 255 445 l 450 445 l 450 294 l 255 294 l 255 153 l 465 153 z"},"É":{"ha":510,"x_min":70,"x_max":477,"o":"m 465 153 l 465 0 l 70 0 l 70 714 l 465 714 l 465 563 l 255 563 l 255 445 l 450 445 l 450 294 l 255 294 l 255 153 l 465 153 z m 477 927 l 477 917 q 462 903 439 884 q 416 864 389 843 q 362 822 337 802 q 312 782 292 767 l 292 767 l 168 767 l 168 781 q 185 803 205 829 q 225 854 245 880 q 265 905 278 927 l 278 927 l 477 927 z"},"Ě":{"ha":510,"x_min":65,"x_max":470,"o":"m 465 153 l 465 0 l 70 0 l 70 714 l 465 714 l 465 563 l 255 563 l 255 445 l 450 445 l 450 294 l 255 294 l 255 153 l 465 153 z m 356 767 l 180 767 q 168 788 147 816 q 126 843 104 870 q 82 896 65 913 l 65 913 l 65 927 l 182 927 q 204 912 224 895 q 244 877 267 854 l 267 854 q 291 878 312 896 q 333 913 355 927 l 355 927 l 470 927 l 470 913 q 454 895 433 869 q 411 843 391 816 q 370 789 356 767 l 356 767 z"},"Ê":{"ha":510,"x_min":65,"x_max":470,"o":"m 465 153 l 465 0 l 70 0 l 70 714 l 465 714 l 465 563 l 255 563 l 255 445 l 450 445 l 450 294 l 255 294 l 255 153 l 465 153 z m 180 927 l 356 927 q 370 904 390 878 q 409 852 430 827 q 451 802 470 781 l 470 781 l 470 767 l 355 767 q 333 781 312 799 q 291 817 267 840 l 267 840 q 243 817 223 800 q 203 782 182 767 l 182 767 l 65 767 l 65 781 q 82 799 104 825 q 126 851 147 879 q 168 906 180 927 l 180 927 z"},"Ë":{"ha":510,"x_min":70,"x_max":465,"o":"m 465 153 l 465 0 l 70 0 l 70 714 l 465 714 l 465 563 l 255 563 l 255 445 l 450 445 l 450 294 l 255 294 l 255 153 l 465 153 z m 77 851 l 77 851 q 77 890 100 909 q 122 928 156 928 l 156 928 q 190 928 213 909 q 236 889 236 851 l 236 851 q 236 814 213 795 q 190 775 156 775 l 156 775 q 122 775 100 794 q 77 813 77 851 z m 296 851 l 296 851 q 296 890 319 909 q 341 928 376 928 l 376 928 q 410 928 433 909 q 456 889 456 851 l 456 851 q 456 814 433 795 q 410 775 376 775 l 376 775 q 341 775 319 794 q 296 813 296 851 z"},"Ė":{"ha":510,"x_min":70,"x_max":465,"o":"m 465 153 l 465 0 l 70 0 l 70 714 l 465 714 l 465 563 l 255 563 l 255 445 l 450 445 l 450 294 l 255 294 l 255 153 l 465 153 z m 268 937 l 268 937 q 310 937 337 919 q 364 900 364 852 l 364 852 q 364 806 337 787 q 309 768 268 768 l 268 768 q 225 768 199 787 q 172 806 172 852 l 172 852 q 172 900 198 919 q 224 937 268 937 z"},"È":{"ha":510,"x_min":70,"x_max":465,"o":"m 465 153 l 465 0 l 70 0 l 70 714 l 465 714 l 465 563 l 255 563 l 255 445 l 450 445 l 450 294 l 255 294 l 255 153 l 465 153 z m 105 927 l 305 927 q 319 906 340 878 q 360 850 381 824 q 401 798 414 781 l 414 781 l 414 767 l 290 767 q 273 779 248 799 q 223 819 196 841 q 168 863 144 884 q 120 904 105 917 l 105 917 l 105 927 z"},"Ē":{"ha":510,"x_min":70,"x_max":465,"o":"m 465 153 l 465 0 l 70 0 l 70 714 l 465 714 l 465 563 l 255 563 l 255 445 l 450 445 l 450 294 l 255 294 l 255 153 l 465 153 z m 101 887 l 435 887 l 435 772 l 101 772 l 101 887 z"},"Ę":{"ha":510,"x_min":70,"x_max":469,"o":"m 465 153 l 465 0 l 70 0 l 70 714 l 465 714 l 465 563 l 255 563 l 255 445 l 450 445 l 450 294 l 255 294 l 255 153 l 465 153 z m 379 -96 l 379 -96 q 379 -113 390 -122 q 401 -131 418 -131 l 418 -131 q 432 -131 447 -127 q 461 -124 469 -120 l 469 -120 l 469 -226 q 455 -231 435 -235 q 414 -240 388 -240 l 388 -240 q 329 -240 293 -210 q 256 -180 256 -128 l 256 -128 q 256 -105 266 -81 q 275 -57 298 -31 q 321 -6 361 22 l 361 22 l 439 0 q 406 -32 393 -52 q 379 -73 379 -96 z"},"F":{"ha":501,"x_min":70,"x_max":463,"o":"m 253 270 l 253 0 l 70 0 l 70 714 l 463 714 l 463 563 l 253 563 l 253 421 l 447 421 l 447 270 l 253 270 z"}}}
